**ABCDEFGHIJKLMNOPQRSTUVWXYZabcdefghijklmnopqrstuvwxyz**************************
**PARASOLID !"#$%&'()*+,-./:;<=>?@[\]^_`{|}~0123456789**************************
**PART1;
MC=AMD64;
MC_MODEL=Intel64 Family 6 Model 15 Stepping 11, GenuineIntel;
MC_ID=unknown;
OS=Windows_NT;
OS_RELEASE=unknown;
FRU=Parasolid Version 30.0, build 226,  7-26-2017;
APPL=SOLIDWORKS 2018-2017278;
SITE=;
USER=unknown;
FORMAT=text;
GUISE=transmit;
KEY=Heatbed MK2B;
FILE=Heatbed MK2B.x_t;
DATE=Fri Apr 17 16:14:25 2020;
**PART2;
SCH=SCH_3000226_30000;
USFLD_SIZE=0;
**PART3;
**END_OF_HEADER*****************************************************************
T51 : TRANSMIT FILE created by modeller version 300022623 SCH_3000226_30000_1300
6205 0 12 33 CCCCCCI4 mesh1006 0 I8 polyline1008 0 CCCCCCCDI5 owner1040 0 CCCCCC
I13 boundary_mesh1006 0 I17 boundary_polyline1008 0 CCCA16 index_map_offset0 0 1
 dA9 index_map82 0 A17 node_id_index_map82 0 A20 schema_embedding_map82 0 A5 chi
ld12 0 A14 lowest_node_id0 0 1 dZ1 386 0 2 0 0 0 0 0 0 1e3 1e-8 0 3 0 1 0 1 1 4
 5 6 7 0 0 8 9 10 0 0 0 0 0 0 70 11 CI9 list_type0 0 1 uI10 notransmit0 0 1 lCCC
DCCDI12 finger_index0 0 1 dI12 finger_block1012 0 CZ2 0 4 T1 0 0 2 20 1 11 11 13
 255 4 94 0 1 0 12 0 0 13 0 50 255 5 89 0 12 14 0 0 +.107 .107 .0016 -1 -6484947
57374507e-31 0 648494757374507e-31 -1 0 30 255 6 93 0 9 15 0 0 +.107 .107 .0016
 0 0 -1 29 255 7 70 0 16 17 0 .107 -.107 0 19 8 CCCCCCCA5 owner12 0 Z8 28 0 1 13
 0 18 V0 16 255 9 77 0 ?19 0 20 6 0 0 1 18 255 10 25 0 21 0 22 23 ?1 17 255 21 0
 24 25 26 10 27 28 0 29 +18 22 22 0 26 10 30 31 ?1 29 23 27 0 10 31 32 .107 -.10
7 .0016 29 31 24 0 22 33 23 -.107 -.107 .0016 29 32 73 0 34 23 35 .107 .107 0 18
 34 64 0 36 37 0 32 ?1 29 35 72 0 37 32 17 -.107 .107 0 18 37 63 0 38 39 34 35 ?
1 29 17 71 0 39 35 7 -.107 -.107 0 18 39 62 0 40 16 37 17 ?1 17 40 0 41 42 43 39
 44 45 0 46 +18 16 61 0 47 48 39 7 ?1 17 47 0 49 29 46 16 50 51 0 52 +18 48 16 0
 53 30 16 54 ?1 17 53 0 55 19 56 48 57 58 0 25 -18 30 19 0 57 22 48 33 ?1 29 54
 18 0 48 0 33 .107 .107 .0016 29 33 21 0 30 54 31 -.107 .107 .0016 17 57 0 24 26
 25 30 53 58 0 56 +15 255 24 3 0 25 59 0 17 26 0 24 21 57 22 60 61 0 42 +17 25 0
 24 57 21 48 62 63 0 64 +16 58 7 0 ?57 61 63 65 0 0 1 17 56 0 55 53 38 30 43 20
 0 60 -15 55 82 0 38 66 0 17 38 0 55 56 19 37 36 67 0 43 +17 43 0 41 40 60 37 56
 20 0 44 +16 20 76 0 ?43 9 68 15 0 0 1 17 60 0 41 43 42 30 26 61 0 0 -15 41 80 0
 40 69 0 17 42 0 41 60 40 22 46 68 0 27 -16 61 10 0 ?26 28 58 70 0 0 1 16 28 13
 0 ?21 71 61 72 0 0 1 30 70 11 0 61 65 72 0 +-.107 .107 .0016 648494757374507e-3
1 -1 0 30 65 8 0 58 73 70 0 +-.107 .107 .0016 -1 0 0 30 72 14 0 28 70 74 0 +-.10
7 -.107 .0016 1 0 0 30 74 69 0 75 72 76 0 +.107 .107 0 -648494757374507e-31 1 0
 16 75 57 0 ?77 67 78 74 0 0 1 30 76 68 0 67 74 79 0 +-.107 .107 0 -1 0 0 16 67
 53 0 ?38 45 75 76 0 0 1 30 79 67 0 45 76 80 0 +-.107 .107 0 648494757374507e-31
 -1 0 16 45 49 0 ?40 51 67 79 0 0 1 30 80 66 0 51 79 81 0 +-.107 -.107 0 1 0 0 1
6 51 45 0 ?47 63 45 80 0 0 1 30 81 90 0 71 80 82 0 +.107 -.107 .0016 0 0 -1 16 7
1 74 0 ?52 68 28 81 0 0 1 30 82 91 0 68 81 15 0 +-.107 -.107 .0016 0 0 -1 16 68
 75 0 ?46 20 71 82 0 0 1 30 15 92 0 20 82 6 0 +-.107 .107 .0016 0 0 -1 17 46 0 4
9 47 27 39 42 68 0 50 +15 49 78 0 47 83 0 17 27 0 49 46 29 22 21 28 0 0 -17 50 0
 84 44 85 39 47 51 0 0 -15 84 44 0 85 86 0 17 44 0 84 36 50 37 40 45 0 0 -17 85
 0 84 50 36 16 77 75 0 0 -17 36 0 84 85 44 34 38 67 0 19 -17 77 0 87 64 52 34 85
 75 0 0 +15 87 84 0 77 12 0 17 64 0 87 62 77 48 19 9 0 0 -17 52 0 87 77 62 16 29
 71 0 85 +17 62 0 87 52 64 10 25 63 0 0 -17 29 0 49 27 47 10 52 71 0 62 -16 63 4
 0 ?25 58 51 73 0 0 1 30 73 5 0 63 88 65 0 +.107 .107 .0016 -648494757374507e-31
 1 0 31 255 88 276 0 78 89 73 0 --.1045 .1045 0 0 0 1 1 0 0 .0015 16 78 242 0 ?9
0 75 91 88 0 0 1 31 89 277 0 91 92 88 0 +-.1045 .1045 .0016 0 0 1 1 0 0 .0015 16
 91 239 0 ?93 78 94 89 0 0 1 31 92 278 0 95 96 89 0 --.104499999999994 -.1045 0
 0 0 1 1 0 0 .00150000000000309 16 95 188 0 ?97 98 99 92 0 0 1 31 96 279 0 99 10
0 92 0 +-.104499999999994 -.1045 .0016 0 0 1 1 0 0 .00150000000000309 16 99 185
 0 ?101 95 0 96 0 0 1 31 100 280 0 102 103 96 0 -.104500000000006 -.104499999999
994 0 0 0 1 1 0 0 .001500000000008285 16 102 206 0 ?104 105 98 100 0 0 1 31 103
 281 0 98 106 100 0 +.104500000000006 -.104499999999994 .0016 0 0 1 1 0 0 .00150
0000000008285 16 98 203 0 ?107 102 95 103 0 0 1 31 106 282 0 94 108 103 0 -.1045
 .104500000000006 0 0 0 1 1 0 0 .001500000000006035 16 94 224 0 ?109 91 105 106
 0 0 1 31 108 283 0 105 0 106 0 +.1045 .104500000000006 .0016 0 0 1 1 0 0 .00150
0000000006035 16 105 221 0 ?110 94 102 108 0 0 1 17 110 0 111 110 110 0 112 105
 0 0 +15 111 229 0 110 113 0 17 112 0 114 112 112 0 110 105 0 0 -15 114 168 0 11
2 59 115 14 255 59 1 116 ?86 83 117 4 118 +0 0 86 83 18 15 115 162 0 119 59 24 1
7 119 0 115 119 119 0 93 91 0 0 -17 93 0 120 93 93 0 119 91 0 0 +15 120 247 0 93
 121 0 14 121 243 122 ?113 86 123 4 124 -0 0 113 86 18 81 255 1 122 378 125 121
 126 0 116 127 128 14 113 225 127 ?129 121 130 4 131 -0 0 129 121 18 14 86 43 13
2 ?121 59 133 4 134 -0 0 121 59 18 15 123 246 0 90 121 120 51 255 124 264 0 121
 135 118 0 +-.1045 .1045 -.004242640687142725 0 0 1 .0015 1 0 0 13 18 29 0 0 0 0
 0 0 8 12 14 12 85 136 ?66 0 87 4 5 -0 0 66 0 18 81 1 136 381 125 12 137 0 132 1
38 139 14 66 83 138 ?69 12 55 4 14 -0 0 69 12 18 81 1 138 382 125 66 140 0 136 1
41 142 14 69 81 141 ?83 66 41 4 143 -0 0 83 66 18 50 14 88 0 66 143 5 0 +-.107 .
107 .0016 0 -1 0 0 0 -1 50 143 87 0 69 144 14 0 +-.107 .107 .0016 1 648494757374
507e-31 0 -648494757374507e-31 1 0 50 144 86 0 83 134 143 0 +-.107 -.107 .0016 0
 1 0 0 0 1 14 83 79 145 ?59 69 49 4 144 -0 0 59 69 18 50 134 65 0 86 118 144 0 +
0 0 0 0 0 1 1 0 0 50 118 2 0 59 124 134 0 +0 0 .0016 0 0 1 1 0 0 81 1 145 384 12
5 83 146 0 141 147 148 80 255 1 125 149 150 9000 1 1 1 1 1 1 1 1 0 FFFFTFTFFFFFF
F1 81 1 146 348 151 83 0 145 152 153 154 81 1 141 383 125 69 152 0 138 145 155 8
1 1 147 385 125 129 156 0 145 157 158 82 255 1 148 -2100297601 14 129 207 147 ?1
59 113 160 4 161 -0 0 159 113 18 81 1 156 353 151 129 0 147 162 163 164 81 1 157
 386 125 159 163 0 147 0 165 82 1 158 -2070609791 14 159 189 157 ?0 129 166 4 13
5 -0 0 0 129 18 81 1 163 354 151 159 0 157 156 0 167 82 1 165 -2066677631 80 1 1
51 0 168 8001 0 0 0 0 3 5 0 0 0 FFFFTFTFFFFFFF2 83 255 3 167 1 .168627450980392
 .168627450980392 79 255 15 168 SDL/TYSA_COLOUR15 166 192 0 97 159 169 51 135 26
7 0 159 161 124 0 +-.104499999999994 -.1045 -.004242640687142725 0 0 1 .00150000
000000309 1 0 0 51 161 270 0 129 131 135 0 +.104500000000006 -.104499999999994 -
.004242640687142725 0 0 1 .001500000000008285 1 0 0 51 131 273 0 113 0 161 0 +.1
045 .104500000000006 -.004242640687142725 0 0 1 .001500000000006035 1 0 0 17 97
 0 166 97 97 0 170 95 0 0 +15 169 193 0 101 159 0 17 101 0 169 101 101 0 171 99
 0 0 +17 171 0 117 171 171 0 101 99 0 0 -15 117 180 0 171 59 172 15 172 174 0 17
3 59 114 17 173 0 172 173 173 0 107 98 0 0 -17 107 0 174 107 107 0 173 98 0 0 +1
5 174 211 0 107 129 0 17 170 0 133 170 170 0 97 95 0 0 -15 133 155 0 170 86 175
 15 175 149 0 176 86 177 17 176 0 175 176 176 0 104 102 0 0 -15 177 143 0 178 86
 179 17 178 0 177 178 178 0 109 94 0 0 -15 179 137 0 180 86 84 17 180 0 179 180
 180 0 90 78 0 0 -17 90 0 123 90 90 0 180 78 0 0 +17 109 0 130 109 109 0 178 94
 0 0 +15 130 228 0 109 113 111 17 104 0 160 104 104 0 176 102 0 0 +15 160 210 0
 104 129 174 81 1 162 352 151 113 0 127 126 156 181 83 3 164 1 .168627450980392
 .168627450980392 81 1 127 379 125 113 162 0 122 132 182 81 1 126 351 151 121 0
 122 183 162 184 83 3 181 1 .168627450980392 .168627450980392 81 1 183 350 151 8
6 0 132 153 126 185 83 3 184 1 .168627450980392 .168627450980392 81 1 132 380 12
5 86 183 0 127 136 186 81 1 153 349 151 59 0 116 146 183 187 83 3 185 1 .1686274
50980392 .168627450980392 81 1 116 377 125 59 153 0 0 122 188 83 3 187 1 .168627
450980392 .168627450980392 82 1 188 -2106851199 82 1 186 -2101215103 82 1 182 -2
074541951 81 1 152 347 151 69 0 141 140 146 189 82 1 155 -2100035457 81 1 140 34
6 151 66 0 138 137 152 190 83 3 189 1 .168627450980392 .168627450980392 81 1 137
 345 151 12 0 136 0 140 191 83 3 190 1 .168627450980392 .168627450980392 83 3 19
1 1 .168627450980392 .168627450980392 83 3 154 1 .168627450980392 .1686274509803
92 79 14 150 SWEntUnchanged82 1 142 -2099773313 82 1 139 -2099511169 82 1 128 -2
078539647 17 19 0 55 38 53 34 64 9 0 77 +19 13 95 0 1 0 8 4 S0 74 4 CI16 index_m
ap_offset0 0 1 dCCZ20 11 2 0 0 157 163 0 0 0 0 0 0 0 0 0 0 0 0 0 0 0 0 0 0 1 0 
