**ABCDEFGHIJKLMNOPQRSTUVWXYZabcdefghijklmnopqrstuvwxyz**************************
**PARASOLID !"#$%&'()*+,-./:;<=>?@[\]^_`{|}~0123456789**************************
**PART1;
MC=AMD64;
MC_MODEL=Intel64 Family 6 Model 15 Stepping 11, GenuineIntel;
MC_ID=unknown;
OS=Windows_NT;
OS_RELEASE=unknown;
FRU=Parasolid Version 30.0, build 226,  7-26-2017;
APPL=SOLIDWORKS 2018-2017278;
SITE=;
USER=unknown;
FORMAT=text;
GUISE=transmit;
KEY=Linear bearing LM8UU;
FILE=Linear bearing LM8UU.x_t;
DATE=Fri Apr 17 16:13:16 2020;
**PART2;
SCH=SCH_3000226_30000;
USFLD_SIZE=0;
**PART3;
**END_OF_HEADER*****************************************************************
T51 : TRANSMIT FILE created by modeller version 300022623 SCH_3000226_30000_1300
6205 0 12 33 CCCCCCI4 mesh1006 0 I8 polyline1008 0 CCCCCCCDI5 owner1040 0 CCCCCC
I13 boundary_mesh1006 0 I17 boundary_polyline1008 0 CCCA16 index_map_offset0 0 1
 dA9 index_map82 0 A17 node_id_index_map82 0 A20 schema_embedding_map82 0 A5 chi
ld12 0 A14 lowest_node_id0 0 1 dZ1 794 2 3 0 0 0 0 0 0 1e3 1e-8 0 4 0 1 0 1 1 5
 6 7 8 0 0 9 10 11 0 0 0 0 0 0 81 255 1 2 398 12 1 13 0 14 0 15 70 11 CI9 list_t
ype0 0 1 uI10 notransmit0 0 1 lCCCDCCDI12 finger_index0 0 1 dI12 finger_block101
2 0 CZ3 0 4 T1 0 0 6 20 1 16 16 13 255 5 4 0 1 0 17 0 0 18 0 52 255 6 148 0 19 2
0 0 0 +.005719444527229 -.01024523986384098 .005674899117618 -1 -1e-15 0 .004075
 .707106781186547 .707106781186548 1e-15 -.982567445911182 -.185906466362998 31
 255 7 230 0 21 22 0 0 +-.017555555472771 -.010245239863841 .005674899117618 1 1
e-15 0 0 -.185906466362998 .982567445911182 .0075 29 255 8 184 0 23 24 0 .006444
44452722899 -.00287598401950711 .00706919761534049 19 8 CCCCCCCA5 owner12 0 Z9 2
 0 1 18 0 25 V0 16 255 10 11 26 ?27 0 28 29 0 0 1 18 255 11 8 30 31 0 32 33 ?1 8
1 1 30 315 12 11 0 0 34 35 36 17 255 31 0 37 38 39 11 40 41 0 42 -18 32 9 35 38
 11 43 44 ?1 29 33 151 0 11 45 44 -.016755555472771 -.0143228947643724 .00490338
728221156 29 45 150 0 46 47 33 .00644444452722901 -.0164354147730814 .0045036883
7953111 29 44 152 0 32 33 48 -.016755555472771 -.00616758496330959 .006446410953
02444 29 48 153 0 49 44 50 -.017555555472771 -.01761449570817485 .00428060061989
5515 18 49 33 51 52 53 54 48 ?1 29 50 154 0 55 48 56 .001944444527229005 -.01761
449570817485 .004280600619895515 18 55 68 57 58 59 60 50 ?1 29 56 155 0 61 50 62
 .003144444527229005 -.01722146872981035 .004354963206440715 18 61 82 63 64 65 6
6 56 ?1 29 62 156 0 66 56 67 .003144444527228995 -.00326901099787159 .0069948350
2879529 18 66 83 68 69 61 70 62 ?1 29 67 157 0 71 62 72 .00564444452722899 -.004
05506495460053 .00684610985570489 18 71 110 73 74 75 76 67 ?1 29 72 158 0 77 67
 78 -.013055555472771 -.0172214687298104 .004354963206440715 18 77 54 79 80 81 8
2 72 ?1 29 78 159 0 83 72 84 -.016905555472771 -.01417550964748572 .004931273252
16601 18 83 14 85 86 43 87 78 ?1 29 84 160 0 88 78 89 .003144444527228995 -.0028
75984019507115 .00706919761534049 18 88 90 90 91 70 92 84 ?1 29 89 161 0 93 84 9
4 .005644444527229 -.00616758496330957 .00644641095302444 18 93 119 95 96 97 98
 89 ?1 29 94 162 0 99 89 100 -.014255555472771 -.0172214687298104 .0043549632064
40715 18 99 48 101 102 103 81 94 ?1 29 100 163 0 70 94 104 .003144444527229005 -
.01761449570817485 .004280600619895515 18 70 89 105 106 66 88 100 ?1 29 104 164
 0 53 100 107 -.017555555472771 -.01643541477308145 .00450368837953111 18 53 28
 108 109 110 49 104 ?1 29 107 165 0 103 104 111 -.014255555472771 -.002875984019
507135 .00706919761534049 18 103 41 112 113 114 99 107 ?1 29 111 166 0 115 107 1
16 -.016755555472771 -.004055064954600555 .00684610985570489 18 115 20 117 118 8
7 110 111 ?1 29 116 167 0 43 111 119 -.016905555472771 -.00631497008019627 .0064
1852498306999 18 43 12 120 121 32 83 116 ?1 29 119 168 0 97 116 122 .00564444452
7229 -.01432289476437238 .00490338728221156 18 97 118 123 124 76 93 119 ?1 29 12
2 169 0 81 119 125 -.014255555472771 -.003269010997871605 .00699483502879529 18
 81 49 126 127 99 77 122 ?1 29 125 170 0 128 122 129 -.013055555472771 -.0176144
9570817485 .004280600619895515 18 128 61 130 131 82 59 125 ?1 29 129 171 0 132 1
25 133 .001944444527229005 -.01722146872981035 .004354963206440715 18 132 76 134
 135 60 65 129 ?1 29 133 172 0 75 129 136 .00644444452722899 -.00405506495460053
 .00684610985570489 18 75 105 137 138 46 71 133 ?1 29 136 173 0 114 133 139 -.01
4255555472771 -.01761449570817485 .004280600619895515 18 114 40 140 141 54 103 1
36 ?1 29 139 174 0 60 136 142 .001944444527228995 -.002875984019507115 .00706919
761534049 18 60 69 143 144 55 132 139 ?1 29 142 175 0 110 139 145 -.017555555472
771 -.004055064954600555 .00684610985570489 18 110 26 146 147 115 53 142 ?1 29 1
45 176 0 87 142 148 -.016755555472771 -.01643541477308145 .00450368837953111 18
 87 19 149 150 83 115 145 ?1 29 148 177 0 59 145 151 -.013055555472771 -.0028759
8401950713 .00706919761534049 18 59 62 152 153 128 55 148 ?1 29 151 178 0 65 148
 154 .001944444527228995 -.00326901099787159 .00699483502879529 18 65 77 155 156
 132 61 151 ?1 29 154 179 0 98 151 157 .005794444527229 -.0141755096474857 .0049
3127325216601 18 98 124 158 159 93 160 154 ?1 29 157 180 0 160 154 161 .00579444
4527229 -.00631497008019625 .00641852498306999 18 160 125 162 163 98 0 157 ?1 29
 161 181 0 92 157 164 .00644444452722901 -.01761449570817485 .004280600619895515
 18 92 96 165 166 88 23 161 ?1 29 164 182 0 76 161 24 .00564444452722901 -.01643
541477308145 .00450368837953111 18 76 112 167 168 71 97 164 ?1 29 24 183 0 54 16
4 8 -.017555555472771 -.002875984019507135 .00706919761534049 18 54 34 169 170 4
9 114 24 ?1 81 1 169 347 12 54 0 0 167 14 171 17 170 0 172 173 174 54 52 21 0 17
5 +15 255 172 38 0 141 176 0 17 173 0 172 141 170 103 177 178 0 0 -17 174 0 172
 170 177 49 175 179 0 0 +17 52 0 180 175 175 49 170 21 0 174 -16 21 32 181 ?170
 179 182 7 0 0 1 17 175 0 180 52 52 54 174 179 0 177 -15 180 31 0 52 183 184 16
 179 35 185 ?174 178 21 186 0 0 1 17 177 0 172 174 113 54 173 178 0 0 +17 113 0
 172 177 141 103 187 188 0 189 -16 178 43 190 ?177 191 179 192 0 0 1 81 1 190 36
0 193 178 194 0 195 185 196 16 191 29 195 ?197 198 178 199 0 0 1 30 255 192 190
 0 178 200 201 0 +-.015905555472771 -.002875984019507135 .00706919761534049 -1 -
1e-15 0 31 200 189 0 198 202 192 0 +-.017555555472771 -.010245239863841 .0056748
99117618 1 1e-15 0 0 -.185906466362998 .982567445911182 .0063 31 201 191 0 41 19
2 203 0 +-.016755555472771 -.010245239863841 .005674899117618 1 1e-15 0 0 -.1859
06466362998 .982567445911182 .00415 16 41 7 204 ?40 205 206 201 0 0 1 31 203 192
 0 28 201 207 0 +-.016905555472771 -.010245239863841 .005674899117618 1 1e-15 0
 0 -.185906466362998 .982567445911182 .004 16 28 13 208 ?86 10 205 203 0 0 1 30
 207 193 0 209 203 210 0 +.00479444452722899 -.002875984019507115 .0070691976153
4049 -1 -1e-15 0 16 209 99 211 ?212 213 214 207 0 0 1 30 210 194 0 215 207 216 0
 +.005719444527229 -.00624127752175291 .00643246796804722 -.707106781186549 .694
780103976943 .131455723031705 16 215 127 217 ?218 219 220 210 0 0 1 31 216 195 0
 221 210 222 0 +.001944444527229 -.01024523986384098 .005674899117618 1 1e-15 0
 0 -.185906466362998 .982567445911182 .0071 16 221 78 223 ?224 225 226 216 0 0 1
 31 222 196 0 182 216 227 0 +-.014255555472771 -.010245239863841 .00567489911761
8 1 1e-15 0 0 -.185906466362998 .982567445911182 .0075 16 182 39 228 ?189 21 188
 222 0 0 1 31 227 197 0 229 222 186 0 +-.014255555472771 -.010245239863841 .0056
74899117618 1 1e-15 0 0 -.185906466362998 .982567445911182 .0071 16 229 47 230 ?
127 231 232 227 0 0 1 31 186 198 0 179 227 233 0 +-.017555555472771 -.0102452398
63841 .005674899117618 1 1e-15 0 0 -.185906466362998 .982567445911182 .0075 31 2
33 199 0 234 186 235 0 +.003144444527229 -.01024523986384098 .005674899117618 1
 1e-15 0 0 -.185906466362998 .982567445911182 .0071 16 234 81 236 ?237 226 213 2
33 0 0 1 31 235 200 0 238 233 239 0 +-.016755555472771 -.010245239863841 .005674
899117618 1 1e-15 0 0 -.185906466362998 .982567445911182 .0063 16 238 21 240 ?24
1 242 198 235 0 0 1 31 239 201 0 219 235 243 0 +.005644444527229 -.0102452398638
4098 .005674899117618 1 1e-15 0 0 -.185906466362998 .982567445911182 .0063 16 21
9 113 244 ?245 246 215 239 0 0 1 31 243 202 0 247 239 199 0 +.005644444527229 -.
01024523986384098 .005674899117618 1 1e-15 0 0 -.185906466362998 .98256744591118
2 .00415 16 247 117 248 ?96 220 249 243 0 0 1 31 199 203 0 191 243 250 0 +-.0175
55555472771 -.010245239863841 .005674899117618 1 1e-15 0 0 -.185906466362998 .98
2567445911182 .0063 31 250 204 0 213 199 251 0 +.003144444527229 -.0102452398638
4098 .005674899117618 1 1e-15 0 0 -.185906466362998 .982567445911182 .0071 16 21
3 84 252 ?253 234 209 250 0 0 1 31 251 205 0 220 250 254 0 +.005644444527229 -.0
1024523986384098 .005674899117618 1 1e-15 0 0 -.185906466362998 .982567445911182
 .00415 16 220 120 255 ?256 215 247 251 0 0 1 31 254 206 0 257 251 258 0 +.00579
4444527229 -.01024523986384098 .005674899117618 1 1e-15 0 0 -.185906466362998 .9
82567445911182 .004 16 257 126 259 ?260 261 0 254 0 0 1 30 258 207 0 261 254 262
 0 +-.005555555472771 -.00631497008019626 .00641852498306999 -1 -1e-15 0 16 261
 130 263 ?264 249 257 258 0 0 1 31 262 208 0 265 258 266 0 +.006444444527229 -.0
1024523986384098 .005674899117618 1 1e-15 0 0 -.185906466362998 .982567445911182
 .0075 16 265 95 267 ?268 269 270 262 0 0 1 31 266 209 0 271 262 272 0 +-.013055
555472771 -.010245239863841 .005674899117618 1 1e-15 0 0 -.185906466362998 .9825
67445911182 .0075 16 271 60 273 ?153 274 275 266 0 0 1 31 272 210 0 231 266 276
 0 +-.014255555472771 -.010245239863841 .005674899117618 1 1e-15 0 0 -.185906466
362998 .982567445911182 .0071 16 231 50 277 ?278 279 229 272 0 0 1 31 276 211 0
 269 272 29 0 +.003144444527229 -.01024523986384098 .005674899117618 1 1e-15 0 0
 -.185906466362998 .982567445911182 .0075 16 269 88 280 ?91 214 265 276 0 0 1 30
 29 212 0 10 276 281 0 +-.016830555472771 -.00624127752175293 .00643246796804722
 -.707106781186547 -.694780103976944 -.131455723031705 31 281 213 0 232 29 282 0
 +-.013055555472771 -.010245239863841 .005674899117618 1 1e-15 0 0 -.18590646636
2998 .982567445911182 .0071 16 232 53 283 ?284 229 285 281 0 0 1 31 282 214 0 20
6 281 286 0 +-.016755555472771 -.010245239863841 .005674899117618 1 1e-15 0 0 -.
185906466362998 .982567445911182 .00415 16 206 10 287 ?42 41 288 282 0 0 1 31 28
6 215 0 188 282 289 0 +-.014255555472771 -.010245239863841 .005674899117618 1 1e
-15 0 0 -.185906466362998 .982567445911182 .0075 16 188 42 290 ?187 182 279 286
 0 0 1 30 289 216 0 279 286 291 0 +-.013655555472771 -.003269010997871605 .00699
483502879529 -1 -1e-15 0 16 279 57 292 ?293 188 231 289 0 0 1 30 291 217 0 225 2
89 294 0 +.002544444527228995 -.00326901099787159 .00699483502879529 -1 -1e-15 0
 16 225 85 295 ?296 297 221 291 0 0 1 30 294 218 0 298 291 299 0 +.0060444445272
2899 -.00405506495460053 .00684610985570489 -1 -1e-15 0 16 298 109 300 ?301 302
 303 294 0 0 1 31 299 219 0 246 294 304 0 +.005644444527229 -.01024523986384098
 .005674899117618 1 1e-15 0 0 -.185906466362998 .982567445911182 .0063 16 246 11
1 305 ?74 303 219 299 0 0 1 31 304 220 0 214 299 306 0 +.003144444527229 -.01024
523986384098 .005674899117618 1 1e-15 0 0 -.185906466362998 .982567445911182 .00
75 16 214 91 307 ?308 209 269 304 0 0 1 31 306 221 0 285 304 309 0 +-.0130555554
72771 -.010245239863841 .005674899117618 1 1e-15 0 0 -.185906466362998 .98256744
5911182 .0071 16 285 56 310 ?311 232 312 306 0 0 1 31 309 222 0 303 306 313 0 +.
006444444527229 -.01024523986384098 .005674899117618 1 1e-15 0 0 -.1859064663629
98 .982567445911182 .0063 16 303 106 314 ?315 298 246 309 0 0 1 31 313 223 0 275
 309 316 0 +.001944444527229 -.01024523986384098 .005674899117618 1 1e-15 0 0 -.
185906466362998 .982567445911182 .0075 16 275 67 317 ?318 271 297 313 0 0 1 31 3
16 224 0 270 313 319 0 +.006444444527229 -.01024523986384098 .005674899117618 1
 1e-15 0 0 -.185906466362998 .982567445911182 .0075 16 270 98 320 ?321 265 302 3
16 0 0 1 30 319 225 0 312 316 322 0 +-.00555555547277101 -.002875984019507125 .0
0706919761534049 -1 -1e-15 0 16 312 71 323 ?324 285 274 319 0 0 1 31 322 226 0 2
97 319 325 0 +.001944444527229 -.01024523986384098 .005674899117618 1 1e-15 0 0
 -.185906466362998 .982567445911182 .0075 16 297 70 326 ?327 275 225 322 0 0 1 3
1 325 227 0 302 322 328 0 +.006444444527229 -.01024523986384098 .005674899117618
 1 1e-15 0 0 -.185906466362998 .982567445911182 .0063 16 302 103 329 ?330 270 29
8 325 0 0 1 30 328 228 0 242 325 22 0 +-.017155555472771 -.004055064954600555 .0
0684610985570489 -1 -1e-15 0 16 242 25 331 ?332 288 238 328 0 0 1 31 22 229 0 27
4 328 7 0 +-.013055555472771 -.010245239863841 .005674899117618 1 1e-15 0 0 -.18
5906466362998 .982567445911182 .0075 16 274 63 333 ?334 312 271 22 0 0 1 81 1 33
3 371 193 274 335 0 323 273 336 17 334 0 337 153 324 128 338 274 0 0 +15 337 66
 0 58 339 0 17 153 0 337 340 334 59 131 271 0 338 +17 324 0 337 334 144 59 340 3
12 0 0 +17 338 0 341 131 131 59 334 274 0 324 -15 341 59 0 131 342 343 17 131 0
 341 338 338 128 153 271 0 334 -14 255 342 58 344 ?339 345 341 5 346 +0 0 339 34
5 25 15 343 64 0 284 342 0 17 284 0 343 311 311 82 80 232 0 347 +17 311 0 343 28
4 284 77 348 285 0 0 +18 82 55 349 348 77 128 47 ?1 17 80 0 350 348 347 77 284 2
32 0 311 -17 347 0 350 80 127 82 293 279 0 0 -15 350 52 0 80 345 0 17 127 0 350
 347 278 81 102 229 0 351 +17 293 0 350 278 348 81 347 279 0 0 +17 278 0 350 127
 293 99 351 231 0 0 +17 348 0 350 293 80 82 311 285 0 284 -17 351 0 352 102 102
 81 278 231 0 293 -15 352 46 0 102 353 0 17 102 0 352 351 351 99 127 229 0 278 -
14 353 44 354 ?345 176 355 5 356 +0 0 345 176 25 81 1 354 778 357 353 358 0 344
 359 360 14 345 51 359 ?342 353 350 5 361 +0 0 342 353 25 14 176 37 362 ?353 183
 172 5 363 +0 0 353 183 25 15 355 45 0 189 353 352 50 255 356 144 0 353 364 365
 0 +-.014255555472771 -.0172214687298104 .004354963206440715 1 1e-15 0 1e-15 -.9
82567445911182 -.185906466362998 13 25 3 0 0 0 0 0 0 9 17 14 17 5 366 ?367 0 37
 5 364 +0 0 367 0 25 81 1 366 781 357 17 368 0 362 369 370 14 367 16 369 ?371 17
 372 5 373 +0 0 371 17 25 15 37 6 0 31 17 0 52 364 143 0 17 374 356 0 +-.0168305
55472771 -.010245239863841 .005674899117618 1 1e-15 0 .004075 .707106781186547 .
707106781186548 1e-15 -.982567445911182 -.185906466362998 51 255 374 142 0 371 3
75 364 0 +-.017155555472771 -.010245239863841 .005674899117618 1 1e-15 0 .0063 1
e-15 -.982567445911182 -.185906466362998 14 371 23 376 ?183 367 377 5 374 -0 0 1
83 367 25 51 375 141 0 378 379 374 0 +-.005555555472771 -.010245239863841 .00567
4899117618 1 1e-15 0 .004 1e-15 -.982567445911182 -.185906466362998 14 378 128 3
80 ?0 19 381 5 375 -0 0 0 19 25 51 379 140 0 339 361 375 0 +-.005555555472771 -.
010245239863841 .005674899117618 1 1e-15 0 .0075 1e-15 -.982567445911182 -.18590
6466362998 14 339 65 382 ?383 342 337 5 379 +0 0 383 342 25 51 361 139 0 345 384
 379 0 +-.013655555472771 -.010245239863841 .005674899117618 1 1e-15 0 .0071 1e-
15 -.982567445911182 -.185906466362998 50 384 138 0 183 385 361 0 +-.01755555547
2771 -.01761449570817485 .004280600619895515 -1 -1e-15 0 0 .185906466362998 -.98
2567445911182 14 183 30 386 ?176 371 180 5 384 +0 0 176 371 25 51 385 137 0 387
 346 384 0 +.002544444527229 -.01024523986384098 .005674899117618 1 1e-15 0 .007
1 1e-15 -.982567445911182 -.185906466362998 14 387 79 388 ?389 383 390 5 385 +0
 0 389 383 25 50 346 136 0 342 391 385 0 +-.013055555472771 -.01761449570817485
 .004280600619895515 -1 -1e-15 0 0 .185906466362998 -.982567445911182 50 391 135
 0 383 392 346 0 +.001944444527229005 -.01722146872981035 .004354963206440715 1
 1e-15 0 1e-15 -.982567445911182 -.185906466362998 14 383 72 393 ?387 339 394 5
 391 +0 0 387 339 25 50 392 134 0 395 363 391 0 +.005644444527229 -.014322894764
37238 .00490338728221156 1 1e-15 0 1e-15 -.982567445911182 -.185906466362998 14
 395 114 396 ?19 397 398 5 392 +0 0 19 397 25 51 363 133 0 176 399 392 0 +-.0159
05555472771 -.010245239863841 .005674899117618 1 1e-15 0 .0075 1e-15 -.982567445
911182 -.185906466362998 50 399 132 0 389 373 363 0 +.003144444527229005 -.01761
449570817485 .004280600619895515 -1 -1e-15 0 0 .185906466362998 -.98256744591118
2 14 389 86 400 ?401 387 402 5 399 +0 0 401 387 25 50 373 131 0 367 0 399 0 +-.0
16755555472771 -.01643541477308145 .00450368837953111 -1 -1e-15 0 0 .18590646636
2998 -.982567445911182 81 1 400 790 357 389 403 0 396 404 405 14 401 93 404 ?406
 389 407 5 408 +0 0 406 389 25 15 402 87 0 106 389 409 17 106 0 402 410 410 70 9
1 269 0 308 -15 409 92 0 237 389 0 17 237 0 409 253 253 66 64 234 0 411 +17 253
 0 409 237 237 61 69 213 0 0 +17 64 0 390 69 411 61 237 234 0 253 -17 411 0 390
 64 156 66 296 225 0 0 -15 390 80 0 64 387 0 17 156 0 390 411 224 65 135 226 0 4
12 +17 296 0 390 224 69 65 411 225 0 0 +17 224 0 390 156 296 132 412 221 0 0 +17
 69 0 390 296 64 66 253 213 0 237 -17 412 0 413 135 135 65 224 221 0 296 -15 413
 74 0 135 383 0 17 135 0 413 412 412 132 156 226 0 224 -16 226 75 414 ?156 221 2
34 415 0 0 1 81 1 414 377 193 226 416 0 223 236 417 31 415 186 0 226 418 419 0 +
.001944444527229 -.01024523986384098 .005674899117618 1 1e-15 0 0 -.185906466362
998 .982567445911182 .0071 31 418 185 0 249 0 415 0 +.005794444527229 -.01024523
986384098 .005674899117618 1 1e-15 0 0 -.185906466362998 .982567445911182 .004 3
1 419 187 0 205 415 202 0 +-.016905555472771 -.010245239863841 .005674899117618
 1 1e-15 0 0 -.185906466362998 .982567445911182 .004 16 205 15 420 ?121 28 41 41
9 0 0 1 31 202 188 0 288 419 200 0 +-.016755555472771 -.010245239863841 .0056748
99117618 1 1e-15 0 0 -.185906466362998 .982567445911182 .0063 16 288 18 421 ?422
 206 242 202 0 0 1 81 1 421 355 193 288 423 0 287 331 424 17 422 0 377 332 241 1
15 150 288 0 425 +15 377 24 0 422 371 0 17 332 0 377 109 422 110 425 242 0 426 +
17 241 0 377 422 425 87 118 238 0 0 +17 150 0 372 118 118 87 422 288 0 241 -17 4
25 0 377 241 426 115 332 242 0 0 -17 426 0 377 425 109 110 197 191 0 0 -17 109 0
 377 426 332 53 147 198 0 197 -17 197 0 184 147 147 53 426 191 0 0 +15 184 36 0
 147 183 0 17 147 0 184 197 197 110 109 198 0 332 +16 198 27 427 ?147 238 191 20
0 0 0 1 81 1 427 358 193 198 428 0 240 195 429 80 255 1 193 0 430 8001 0 0 0 0 3
 5 0 0 0 FFFFTFTFFFFFFF2 81 1 428 235 12 198 0 427 423 194 431 81 1 240 357 193
 238 432 0 331 427 433 81 1 195 359 193 191 434 0 427 190 435 83 255 3 429 .7490
19622802734 .749019622802734 .749019622802734 81 1 434 249 12 191 0 195 436 437
 438 83 3 435 .749019622802734 .749019622802734 .749019622802734 80 1 12 439 440
 9000 0 0 0 0 3 6 0 0 0 TTTFTFTTTFFFFF3 81 1 436 248 12 247 0 248 441 434 442 81
 1 437 250 12 213 0 252 434 443 444 84 255 3 438 70181 1 252 379 193 213 437 0 2
36 211 445 81 1 443 251 12 220 0 255 437 446 447 84 3 444 72081 1 255 391 193 22
0 443 0 217 248 448 81 1 446 252 12 257 0 259 443 449 450 84 3 447 73381 1 259 3
95 193 257 446 0 263 368 451 81 1 449 253 12 261 0 263 446 452 453 84 3 450 7358
1 1 263 394 193 261 449 0 454 259 455 81 1 452 254 12 265 0 267 449 456 457 84 3
 453 73781 1 267 383 193 265 452 0 280 320 458 81 1 456 255 12 271 0 273 452 459
 460 84 3 457 72481 1 273 372 193 271 456 0 333 317 461 81 1 459 256 12 231 0 27
7 456 462 463 84 3 460 71281 1 277 366 193 231 459 0 292 230 464 81 1 462 257 12
 269 0 280 459 465 466 84 3 463 70881 1 280 382 193 269 462 0 307 267 467 81 1 4
65 258 12 10 0 26 462 468 469 84 3 466 72281 1 26 350 193 10 465 0 0 208 470 81
 1 468 259 12 232 0 283 465 471 472 84 3 469 69481 1 283 368 193 232 468 0 230 3
10 473 81 1 471 260 12 206 0 287 468 474 475 84 3 472 70981 1 287 354 193 206 47
1 0 204 421 476 81 1 474 261 12 188 0 290 471 477 478 84 3 475 69381 1 290 364 1
93 188 474 0 228 292 479 81 1 477 262 12 279 0 292 474 480 481 84 3 478 70581 1
 292 365 193 279 477 0 290 277 482 81 1 480 263 12 225 0 295 477 483 484 84 3 48
1 71181 1 295 375 193 225 480 0 326 223 485 81 1 483 264 12 298 0 300 480 486 48
7 84 3 484 72181 1 300 386 193 298 483 0 329 314 488 81 1 486 265 12 246 0 305 4
83 489 490 84 3 487 72981 1 305 388 193 246 486 0 314 244 491 81 1 489 266 12 21
4 0 307 486 492 493 84 3 490 73081 1 307 381 193 214 489 0 211 280 494 81 1 492
 267 12 285 0 310 489 495 496 84 3 493 72381 1 310 369 193 285 492 0 283 323 497
 81 1 495 268 12 303 0 314 492 498 499 84 3 496 71081 1 314 387 193 303 495 0 30
0 305 500 81 1 498 269 12 275 0 317 495 501 502 84 3 499 72881 1 317 373 193 275
 498 0 273 326 503 81 1 501 270 12 270 0 320 498 504 505 84 3 502 71481 1 320 38
4 193 270 501 0 267 329 506 81 1 504 271 12 312 0 323 501 507 508 84 3 505 72581
 1 323 370 193 312 504 0 310 333 509 81 1 507 272 12 297 0 326 504 510 511 84 3
 508 71681 1 326 374 193 297 507 0 317 295 512 81 1 510 273 12 302 0 329 507 513
 514 84 3 511 71581 1 329 385 193 302 510 0 320 300 515 81 1 513 274 12 242 0 33
1 510 335 516 84 3 514 72781 1 331 356 193 242 513 0 421 240 517 81 1 335 275 12
 274 0 333 513 518 519 84 3 516 69981 1 518 276 12 21 0 181 335 520 521 84 3 519
 71381 1 181 362 193 21 518 0 185 228 522 81 1 520 278 12 367 0 523 518 524 525
 84 3 521 70281 1 523 722 193 367 520 369 368 526 527 81 1 524 280 12 389 0 403
 520 528 529 84 4 525 112981 1 403 732 193 389 524 400 530 531 532 81 1 528 282
 12 176 0 533 524 534 535 84 4 529 113981 1 533 725 193 176 528 362 536 358 537
 81 1 534 284 12 395 0 538 528 539 540 84 4 535 113281 1 538 736 193 395 534 396
 541 542 543 81 1 539 286 12 383 0 544 534 545 546 84 4 540 114381 1 544 730 193
 383 539 393 547 530 548 81 1 545 288 12 342 0 549 539 550 551 84 4 546 113781 1
 549 728 193 342 545 344 552 547 553 81 1 550 290 12 387 0 530 545 554 555 84 4
 551 113581 1 530 731 193 387 550 388 544 403 556 81 1 554 292 12 183 0 536 550
 557 558 84 4 555 113881 1 536 724 193 183 554 386 526 533 559 81 1 557 294 12 3
45 0 552 554 560 561 84 4 558 113181 1 552 727 193 345 557 359 358 549 562 81 1
 560 296 12 339 0 547 557 563 564 84 4 561 113481 1 547 729 193 339 560 382 549
 544 565 81 1 563 298 12 378 0 566 560 567 568 84 4 564 113681 1 566 738 193 378
 563 380 542 0 569 81 1 567 300 12 371 0 526 563 570 571 84 4 568 114581 1 526 7
23 193 371 567 376 523 536 572 81 1 570 302 12 17 0 368 567 573 574 84 4 571 113
081 1 368 721 193 17 570 366 259 523 575 81 1 573 304 12 353 0 358 570 576 577 8
4 4 574 112881 1 358 726 193 353 573 354 533 552 578 81 1 576 306 12 397 0 541 5
73 579 580 84 4 577 113314 397 107 581 ?395 406 582 5 365 -0 0 395 406 25 81 1 5
41 735 193 397 576 581 583 538 584 81 1 579 308 12 401 0 531 576 585 586 84 4 58
0 114281 1 531 733 193 401 579 404 403 583 587 81 1 585 310 12 406 0 583 579 588
 589 84 4 586 114014 406 100 590 ?397 401 591 5 20 +0 0 397 401 25 81 1 583 734
 193 406 585 590 531 541 592 81 1 588 312 12 19 0 542 585 349 593 84 4 589 11411
4 19 121 594 ?378 395 595 5 6 +0 0 378 395 25 81 1 542 737 193 19 588 594 538 56
6 596 81 1 349 313 12 82 0 0 588 34 597 84 4 593 114481 1 34 314 12 46 0 0 349 3
0 598 84 3 597 55618 46 104 34 599 23 75 45 ?1 84 3 598 56917 599 0 600 138 138
 46 330 302 0 315 -18 23 97 14 601 92 46 8 ?1 81 1 14 348 12 23 0 0 169 2 602 17
 601 0 407 212 166 23 321 270 0 268 -15 407 94 0 166 401 0 17 212 0 407 308 601
 88 603 209 0 0 +17 166 0 407 601 603 92 268 265 0 321 -17 321 0 591 268 268 92
 601 270 0 0 +17 268 0 591 321 321 23 166 265 0 603 +15 591 101 0 268 406 600 17
 603 0 407 166 91 23 212 209 0 0 -17 91 0 407 603 308 88 106 269 0 410 +17 308 0
 407 91 212 70 410 214 0 0 +17 410 0 402 106 106 88 308 214 0 212 -15 600 102 0
 599 406 0 84 3 602 56817 138 0 600 599 599 75 315 303 0 330 -17 330 0 582 301 3
15 75 599 302 0 604 +17 315 0 582 330 604 46 138 303 0 0 +15 582 108 0 330 397 0
 17 604 0 582 315 605 75 301 298 0 0 -17 605 0 582 604 168 71 245 219 0 0 -17 30
1 0 582 168 330 71 604 298 0 605 +17 168 0 582 605 301 76 74 246 0 245 -17 74 0
 398 245 245 71 168 246 0 301 +17 245 0 398 74 74 76 605 219 0 0 +15 398 115 0 7
4 395 606 15 606 116 0 124 395 0 17 124 0 606 607 607 97 96 247 0 256 -17 607 0
 606 124 124 93 256 220 0 218 -17 96 0 595 608 256 93 124 247 0 607 +17 256 0 59
5 96 218 97 607 220 0 0 +15 595 122 0 159 19 0 17 218 0 595 256 163 93 608 215 0
 0 +17 163 0 595 218 159 160 260 257 0 609 -17 608 0 595 159 96 160 218 215 0 61
0 -17 159 0 595 163 608 98 609 249 0 260 -17 610 0 381 260 611 160 264 261 0 0 -
15 381 129 0 609 378 0 17 260 0 381 609 610 98 163 257 0 0 +17 611 0 381 610 612
 43 86 28 0 27 -17 264 0 381 612 609 43 610 261 0 0 +17 612 0 381 611 264 83 121
 205 0 0 -17 609 0 381 264 260 160 159 249 0 608 +16 249 123 454 ?609 247 261 41
8 0 0 1 81 1 454 393 193 249 613 0 248 263 614 81 1 613 231 12 249 0 454 0 416 6
15 81 1 248 392 193 247 436 0 255 454 616 83 3 614 .749019622802734 .74901962280
2734 .749019622802734 83 3 616 .749019622802734 .749019622802734 .74901962280273
4 81 1 416 232 12 226 0 414 613 617 618 84 3 615 73481 1 617 233 12 205 0 420 41
6 423 619 84 3 618 71781 1 420 352 193 205 617 0 208 204 620 81 1 423 234 12 288
 0 421 617 428 621 84 3 619 69684 3 621 69781 1 208 351 193 28 622 0 26 420 623
 81 1 204 353 193 41 624 0 420 287 625 83 3 620 .749019622802734 .74901962280273
4 .749019622802734 81 1 624 237 12 41 0 204 194 622 626 83 3 625 .74901962280273
4 .749019622802734 .749019622802734 81 1 194 236 12 178 0 190 428 624 627 81 1 6
22 238 12 28 0 208 624 628 629 84 3 626 69281 1 628 239 12 209 0 211 622 630 631
 84 3 629 69581 1 211 380 193 209 628 0 252 307 632 81 1 630 240 12 215 0 217 62
8 633 634 84 3 631 72681 1 217 390 193 215 630 0 244 255 635 81 1 633 241 12 221
 0 223 630 636 637 84 3 634 73681 1 223 376 193 221 633 0 295 414 638 81 1 636 2
42 12 182 0 228 633 639 640 84 3 637 71881 1 228 363 193 182 636 0 181 290 641 8
1 1 639 243 12 229 0 230 636 642 643 84 3 640 70481 1 230 367 193 229 639 0 277
 283 644 81 1 642 244 12 179 0 185 639 645 646 84 3 643 70781 1 185 361 193 179
 642 0 190 181 647 81 1 645 245 12 234 0 236 642 432 648 84 3 646 70381 1 236 37
8 193 234 645 0 414 252 649 81 1 432 246 12 238 0 240 645 441 650 84 3 648 71981
 1 441 247 12 219 0 244 432 436 651 84 3 650 69881 1 244 389 193 219 441 0 305 2
17 652 84 3 651 73183 3 652 .749019622802734 .749019622802734 .749019622802734 8
3 3 649 .749019622802734 .749019622802734 .749019622802734 83 3 647 .74901962280
2734 .749019622802734 .749019622802734 83 3 644 .749019622802734 .74901962280273
4 .749019622802734 83 3 641 .749019622802734 .749019622802734 .749019622802734 8
3 3 638 .749019622802734 .749019622802734 .749019622802734 83 3 635 .74901962280
2734 .749019622802734 .749019622802734 83 3 632 .749019622802734 .74901962280273
4 .749019622802734 84 3 627 70683 3 623 .749019622802734 .749019622802734 .74901
9622802734 17 121 0 37 39 86 43 612 205 0 611 +17 39 0 37 31 121 32 27 10 0 0 -1
7 86 0 37 121 27 83 611 28 0 612 +17 27 0 37 86 38 43 39 10 0 264 +17 38 0 37 27
 31 32 42 206 0 40 -17 42 0 653 40 40 11 38 206 0 0 +17 40 0 653 42 42 32 31 41
 0 39 +15 653 22 0 40 367 0 81 1 594 794 357 19 542 0 590 0 654 83 3 596 .019607
8431372549 .0196078431372549 .0196078431372549 80 1 357 655 656 9000 1 1 1 1 1 1
 1 1 0 FFFFTFTFFFFFFF1 81 1 590 793 357 406 583 0 581 594 657 82 255 1 654 10648
29032 81 1 581 792 357 397 541 0 404 590 658 82 1 657 1064566888 81 1 404 791 35
7 401 531 0 400 581 659 82 1 658 1064108136 82 1 659 1054998632 79 255 14 656 SW
EntUnchanged83 3 592 .87843137254902 .874509803921569 .858823529411765 50 20 147
 0 406 408 6 0 +.00644444452722901 -.0164354147730814 .00450368837953111 1 1e-15
 0 1e-15 -.982567445911182 -.185906466362998 51 408 146 0 401 365 20 0 +.0047944
44527229 -.01024523986384098 .005674899117618 1 1e-15 0 .0075 1e-15 -.9825674459
11182 -.185906466362998 51 365 145 0 397 356 408 0 +.006044444527229 -.010245239
86384098 .005674899117618 1 1e-15 0 .0063 1e-15 -.982567445911182 -.185906466362
998 83 3 587 .87843137254902 .874509803921569 .858823529411765 83 3 584 .8784313
7254902 .874509803921569 .858823529411765 83 3 578 .0196078431372549 .0196078431
372549 .0196078431372549 83 3 575 .0196078431372549 .0196078431372549 .019607843
1372549 81 1 376 783 357 371 526 0 369 380 660 83 3 572 .87843137254902 .8745098
03921569 .858823529411765 81 1 369 782 357 367 523 0 366 376 661 81 1 380 784 35
7 378 566 0 376 382 662 82 1 660 1053687912 81 1 382 785 357 339 547 0 380 386 6
63 82 1 662 1053818984 81 1 386 786 357 183 536 0 382 388 664 82 1 663 105395005
6 81 1 388 787 357 387 530 0 386 393 665 82 1 664 1054146664 81 1 393 788 357 38
3 544 0 388 396 666 82 1 665 1054277736 81 1 396 789 357 395 538 0 393 400 667 8
2 1 666 1054474344 82 1 667 1054605416 82 1 661 1053425768 83 3 569 .01960784313
72549 .0196078431372549 .0196078431372549 83 3 565 .87843137254902 .874509803921
569 .858823529411765 81 1 359 779 357 345 552 0 354 362 668 83 3 562 .0196078431
372549 .0196078431372549 .0196078431372549 81 1 362 780 357 176 533 0 359 366 66
9 82 1 668 1052967016 82 1 669 1053032552 83 3 559 .87843137254902 .874509803921
569 .858823529411765 83 3 556 .0196078431372549 .0196078431372549 .0196078431372
549 81 1 344 777 357 342 549 0 0 354 670 83 3 553 .0196078431372549 .01960784313
72549 .0196078431372549 82 1 670 1051852904 83 3 548 .0196078431372549 .01960784
31372549 .0196078431372549 83 3 543 .0196078431372549 .0196078431372549 .0196078
431372549 83 3 537 .87843137254902 .874509803921569 .858823529411765 83 3 532 .0
196078431372549 .0196078431372549 .0196078431372549 83 3 527 .0196078431372549 .
0196078431372549 .0196078431372549 83 3 522 .749019622802734 .749019622802734 .7
49019622802734 83 3 517 .749019622802734 .749019622802734 .749019622802734 83 3
 515 .749019622802734 .749019622802734 .749019622802734 83 3 512 .74901962280273
4 .749019622802734 .749019622802734 83 3 509 .749019622802734 .749019622802734 .
749019622802734 83 3 506 .749019622802734 .749019622802734 .749019622802734 83 3
 503 .749019622802734 .749019622802734 .749019622802734 83 3 500 .74901962280273
4 .749019622802734 .749019622802734 83 3 497 .749019622802734 .749019622802734 .
749019622802734 83 3 494 .749019622802734 .749019622802734 .749019622802734 83 3
 491 .749019622802734 .749019622802734 .749019622802734 83 3 488 .74901962280273
4 .749019622802734 .749019622802734 83 3 485 .749019622802734 .749019622802734 .
749019622802734 83 3 482 .749019622802734 .749019622802734 .749019622802734 83 3
 479 .749019622802734 .749019622802734 .749019622802734 83 3 476 .74901962280273
4 .749019622802734 .749019622802734 83 3 473 .749019622802734 .749019622802734 .
749019622802734 83 3 470 .749019622802734 .749019622802734 .749019622802734 83 3
 467 .749019622802734 .749019622802734 .749019622802734 83 3 464 .74901962280273
4 .749019622802734 .749019622802734 83 3 461 .749019622802734 .749019622802734 .
749019622802734 83 3 458 .749019622802734 .749019622802734 .749019622802734 83 3
 455 .749019622802734 .749019622802734 .749019622802734 83 3 451 .74901962280273
4 .749019622802734 .749019622802734 83 3 448 .749019622802734 .749019622802734 .
749019622802734 83 3 445 .749019622802734 .749019622802734 .749019622802734 84 3
 442 73279 20 440 ATTRIB_XPARASOLID_ID83 3 433 .749019622802734 .749019622802734
 .749019622802734 84 3 431 70079 15 430 SDL/TYSA_COLOUR15 372 17 0 150 367 653 1
7 118 0 372 150 150 115 241 238 0 422 -83 3 424 .749019622802734 .74901962280273
4 .749019622802734 83 3 417 .749019622802734 .749019622802734 .749019622802734 8
2 1 405 1054802024 15 394 73 0 318 383 413 17 318 0 394 327 327 60 58 275 0 340
 +17 327 0 394 318 318 55 144 297 0 0 +17 58 0 337 144 340 55 318 275 0 327 -17
 340 0 337 58 153 60 324 312 0 0 -17 144 0 337 324 58 60 327 297 0 318 -82 1 370
 1053294696 17 189 0 355 187 187 103 141 182 0 173 +17 187 0 355 189 189 114 113
 188 0 0 +17 141 0 172 113 173 114 189 182 0 187 -82 1 360 1052835944 29 47 149
 0 82 0 45 -.013055555472771 -.003269010997871605 .00699483502879529 83 3 336 .7
49019622802734 .749019622802734 .749019622802734 83 3 196 .749019622802734 .7490
19622802734 .749019622802734 81 1 167 346 12 76 0 0 165 169 671 84 3 171 55081 1
 165 345 12 92 0 0 162 167 672 84 3 671 57281 1 162 344 12 160 0 0 158 165 673 8
4 3 672 56781 1 158 343 12 98 0 0 155 162 674 84 3 673 57681 1 155 342 12 65 0 0
 152 158 675 84 3 674 57581 1 152 341 12 59 0 0 149 155 676 84 3 675 56281 1 149
 340 12 87 0 0 146 152 677 84 3 676 55881 1 146 339 12 110 0 0 143 149 678 84 3
 677 54581 1 143 338 12 60 0 0 140 146 679 84 3 678 54781 1 140 337 12 114 0 0 1
37 143 680 84 3 679 56081 1 137 336 12 75 0 0 134 140 681 84 3 680 55181 1 134 3
35 12 132 0 0 130 137 682 84 3 681 57081 1 130 334 12 128 0 0 126 134 683 84 3 6
82 56181 1 126 333 12 81 0 0 123 130 684 84 3 683 55781 1 123 332 12 97 0 0 120
 126 685 84 3 684 55481 1 120 331 12 43 0 0 117 123 686 84 3 685 57381 1 117 330
 12 115 0 0 112 120 687 84 3 686 54381 1 112 329 12 103 0 0 108 117 688 84 3 687
 54681 1 108 328 12 53 0 0 105 112 689 84 3 688 55281 1 105 327 12 70 0 0 101 10
8 690 84 3 689 54881 1 101 326 12 99 0 0 95 105 691 84 3 690 56581 1 95 325 12 9
3 0 0 90 101 692 84 3 691 55381 1 90 324 12 88 0 0 85 95 693 84 3 692 57481 1 85
 323 12 83 0 0 79 90 694 84 3 693 56681 1 79 322 12 77 0 0 73 85 695 84 3 694 54
481 1 73 321 12 71 0 0 68 79 696 84 3 695 55581 1 68 320 12 66 0 0 63 73 697 84
 3 696 57181 1 63 319 12 61 0 0 57 68 698 84 3 697 56481 1 57 318 12 55 0 0 51 6
3 699 84 3 698 56381 1 51 317 12 49 0 0 35 57 700 84 3 699 55981 1 35 316 12 32
 0 0 30 51 701 84 3 700 54984 3 701 54284 3 36 54119 18 1 0 1 0 9 5 S0 74 4 CI16
 index_map_offset0 0 1 dCCZ20 16 6 0 0 2 566 702 703 13 594 0 0 0 0 0 0 0 0 0 0
 0 0 0 0 81 1 702 349 704 1 0 703 0 0 705 81 1 703 396 706 1 702 13 0 0 0 81 1 1
3 397 707 1 703 2 0 0 708 80 1 707 12 709 9000 0 0 0 0 3 5 0 0 0 TFTFTFTFFFFFFF3
 84 5 708 LM8UU79 22 709 ATTRIB_XPARASOLID_NAME80 1 706 710 711 8017 0 0 0 0 0 0
 0 0 0 TTTTTTTTTTTTTF3 79 13 711 SDL/TYSA_NAME80 1 704 193 712 8040 0 0 0 0 3 5
 0 0 0 TTTFFFFFFFFFFF2 83 3 705 .749019622802734 .749019622802734 .7490196228027
34 79 17 712 SDL/TYSA_COLOUR_284 2 15 461 0 
