**ABCDEFGHIJKLMNOPQRSTUVWXYZabcdefghijklmnopqrstuvwxyz**************************
**PARASOLID !"#$%&'()*+,-./:;<=>?@[\]^_`{|}~0123456789**************************
**PART1;
MC=AMD64;
MC_MODEL=Intel64 Family 6 Model 15 Stepping 11, GenuineIntel;
MC_ID=unknown;
OS=Windows_NT;
OS_RELEASE=unknown;
FRU=Parasolid Version 30.0, build 226,  7-26-2017;
APPL=SOLIDWORKS 2018-2017278;
SITE=;
USER=unknown;
FORMAT=text;
GUISE=transmit;
KEY=Radial ball bearing DIN 625 - 608;
FILE=Radial ball bearing DIN 625 - 608.x_t;
DATE=Mon Apr 27 15:32:12 2020;
**PART2;
SCH=SCH_3000226_30000;
USFLD_SIZE=0;
**PART3;
**END_OF_HEADER*****************************************************************
T51 : TRANSMIT FILE created by modeller version 300022623 SCH_3000226_30000_1300
6205 0 12 33 CCCCCCI4 mesh1006 0 I8 polyline1008 0 CCCCCCCDI5 owner1040 0 CCCCCC
I13 boundary_mesh1006 0 I17 boundary_polyline1008 0 CCCA16 index_map_offset0 0 1
 dA9 index_map82 0 A17 node_id_index_map82 0 A20 schema_embedding_map82 0 A5 chi
ld12 0 A14 lowest_node_id0 0 1 dZ1 427 0 2 0 0 0 0 0 0 1e3 1e-8 0 3 0 1 0 1 1 4
 5 6 0 0 0 7 8 0 0 0 0 0 0 0 70 11 CI9 list_type0 0 1 uI10 notransmit0 0 1 lCCCD
CCDI12 finger_index0 0 1 dI12 finger_block1012 0 CZ2 0 4 T1 0 0 2 20 1 9 9 13 25
5 4 147 0 1 0 10 0 0 11 0 54 255 5 128 0 12 13 0 0 -0 0 0 -1 0 0 .0075 .0021 0 0
 1 31 255 6 247 0 14 15 0 0 -.00156524758424985 0 0 -1 0 0 0 0 1 .0089 19 8 CCCC
CCCA5 owner12 0 Z7 198 0 1 11 0 16 V0 16 255 8 150 0 ?17 0 18 19 0 0 1 17 255 17
 0 20 17 17 0 21 8 0 0 +16 18 157 0 ?22 8 23 24 0 0 1 31 19 144 0 8 24 15 0 +.00
1565247584249855 0 0 -1 0 0 0 0 1 .0061 31 24 138 0 18 25 19 0 +-.00156524758424
9855 0 0 1 0 0 0 0 -1 .0061 31 15 241 0 26 19 6 0 --.00156524758424985 0 0 1 0 0
 0 0 -1 .0089 16 26 259 0 ?27 14 28 15 0 0 1 17 27 0 29 27 27 0 30 26 0 0 +16 14
 253 0 ?31 32 26 6 0 0 1 16 28 251 0 ?33 26 34 35 0 0 1 17 33 0 36 33 33 0 37 28
 0 0 +16 34 254 0 ?38 28 39 40 0 0 1 31 35 312 0 28 40 41 0 +.0035 0 0 1 0 0 0 0
 -1 .0089 31 40 313 0 34 42 35 0 +.0035 0 0 1 0 0 0 0 -1 .0107 31 41 214 0 32 35
 43 0 +-.0035 0 0 1 0 0 0 0 -1 .0061 16 32 148 0 ?44 45 14 41 0 0 1 31 43 213 0
 45 41 46 0 +-.0035 0 0 1 0 0 0 0 -1 .0043 16 45 156 0 ?47 48 32 43 0 0 1 31 46
 212 0 48 43 49 0 +-.0032 0 0 1 0 0 0 0 -1 .004 16 48 155 0 ?50 51 45 46 0 0 1 3
1 49 211 0 51 46 52 0 +.0032 0 0 1 0 0 0 0 -1 .004 16 51 154 0 ?53 54 48 49 0 0
 1 31 52 210 0 54 49 25 0 +.0035 0 0 1 0 0 0 0 -1 .0043 16 54 153 0 ?55 23 51 52
 0 0 1 31 25 209 0 23 52 24 0 +.0035 0 0 1 0 0 0 0 -1 .0061 16 23 152 0 ?56 18 5
4 25 0 0 1 17 56 0 57 56 56 0 58 23 0 0 +15 255 57 176 0 56 59 60 17 58 0 61 58
 58 0 56 23 0 0 -15 61 160 0 58 62 63 14 255 62 158 64 ?65 10 61 4 13 +0 0 65 10
 16 15 63 161 0 21 62 0 17 21 0 63 21 21 0 17 8 0 0 -81 255 1 64 412 66 62 67 0
 0 68 69 14 65 162 68 ?59 62 70 4 71 +0 0 59 62 16 14 10 242 72 ?62 0 73 4 5 -12
 12 62 0 16 51 255 13 201 0 62 74 5 0 +-.0206375 0 0 1 0 0 .0061 0 0 -1 13 16 19
9 0 0 0 0 0 0 7 10 50 255 74 202 0 59 75 13 0 +.0035 .0043 0 1 0 0 0 0 -1 14 59
 174 76 ?77 65 57 4 74 +0 0 77 65 16 54 75 203 0 77 78 74 0 +.0032 0 0 1 0 0 .00
43 3e-4 0 0 -1 14 77 178 79 ?80 59 81 4 75 +0 0 80 59 16 51 78 204 0 80 82 75 0
 --.0206375 0 0 1 0 0 .004 0 0 -1 14 80 182 83 ?84 77 85 4 78 +0 0 84 77 16 54 8
2 205 0 84 86 78 0 +-.0032 0 0 1 0 0 .0043 3e-4 0 0 -1 14 84 186 87 ?88 80 89 4
 82 +0 0 88 80 16 50 86 206 0 88 71 82 0 +-.0035 .0061 0 -1 0 0 0 0 1 14 88 190
 90 ?12 84 91 4 86 +0 0 12 84 16 51 71 207 0 65 92 86 0 +-.0206375 0 0 1 0 0 .00
61 0 0 -1 51 92 304 0 93 94 71 0 --.0206375 0 0 1 0 0 .0089 0 0 -1 14 93 261 95
 ?96 12 36 4 92 +0 0 96 12 16 50 94 305 0 97 98 92 0 +.0035 .0107 0 1 0 0 0 0 -1
 14 97 277 99 ?100 96 101 4 94 +0 0 100 96 16 54 98 306 0 100 102 94 0 +.0032 0
 0 1 0 0 .0107 3e-4 0 0 -1 14 100 281 103 ?104 97 105 4 98 +0 0 104 97 16 51 102
 307 0 104 106 98 0 +-.0206375 0 0 1 0 0 .011 0 0 -1 14 104 285 107 ?108 100 109
 4 102 +0 0 108 100 16 54 106 308 0 108 110 102 0 +-.0032 0 0 1 0 0 .0107 3e-4 0
 0 -1 14 108 289 111 ?112 104 113 4 106 +0 0 112 104 16 50 110 309 0 112 114 106
 0 +-.0035 .0089 0 -1 0 0 0 0 1 14 112 293 115 ?0 108 116 4 110 +0 0 0 108 16 51
 114 310 0 96 0 110 0 --.0206375 0 0 1 0 0 .0089 0 0 -1 14 96 265 117 ?97 93 118
 4 114 +0 0 97 93 16 81 1 117 426 66 96 119 0 115 120 121 15 118 267 0 122 96 12
3 17 122 0 118 122 122 0 124 125 0 0 -15 123 268 0 30 96 0 17 30 0 123 30 30 0 2
7 26 0 0 -17 124 0 116 124 124 0 122 125 0 0 +16 125 258 0 ?124 126 0 127 0 0 1
 16 126 257 0 ?128 129 125 130 0 0 1 31 127 317 0 125 0 130 0 +-.0035 0 0 1 0 0
 0 0 -1 .0089 31 130 316 0 126 127 131 0 +-.0035 0 0 1 0 0 0 0 -1 .0107 31 131 3
15 0 129 130 42 0 +-.0032 0 0 1 0 0 0 0 -1 .011 16 129 256 0 ?132 39 126 131 0 0
 1 31 42 314 0 39 131 40 0 +.0032 0 0 1 0 0 0 0 -1 .011 16 39 255 0 ?133 34 129
 42 0 0 1 17 133 0 105 133 133 0 134 39 0 0 +15 105 283 0 133 100 135 17 134 0 1
36 134 134 0 133 39 0 0 -15 136 288 0 134 104 0 15 135 284 0 137 100 0 17 137 0
 135 137 137 0 38 34 0 0 -17 38 0 101 38 38 0 137 34 0 0 +15 101 279 0 38 97 138
 15 138 280 0 37 97 0 17 37 0 138 37 37 0 33 28 0 0 -17 132 0 109 132 132 0 139
 129 0 0 +15 109 287 0 132 104 136 17 139 0 140 139 139 0 132 129 0 0 -15 140 29
2 0 139 108 0 17 128 0 113 128 128 0 141 126 0 0 +15 113 291 0 128 108 140 17 14
1 0 142 141 141 0 128 126 0 0 -15 142 296 0 141 112 0 15 116 295 0 124 112 142 8
0 255 1 66 143 144 9000 1 1 1 1 1 1 1 1 0 FFFFTFTFFFFFFF1 81 1 119 372 145 96 0
 117 146 147 148 81 1 115 425 66 112 149 0 111 117 150 81 1 120 427 66 12 151 0
 117 0 152 82 255 1 121 -1463351864 14 12 123 120 ?93 88 29 4 5 -10 10 93 88 16
 81 1 151 370 145 12 0 120 153 146 154 82 1 152 -1540946488 80 1 145 0 155 8001
 0 0 0 0 3 5 0 0 0 FFFFTFTFFFFFFF2 81 1 153 369 145 88 0 90 156 151 157 81 1 146
 371 145 93 0 95 151 119 158 83 255 3 154 .776470588235294 .756862745098039 .737
254901960784 81 1 95 420 66 93 146 0 90 99 159 83 3 158 .776470588235294 .756862
745098039 .737254901960784 81 1 90 419 66 88 153 0 87 95 160 81 1 99 421 66 97 1
47 0 95 103 161 82 1 159 -1462893112 81 1 147 373 145 97 0 99 119 162 163 81 1 1
03 422 66 100 162 0 99 107 164 82 1 161 -1470102072 81 1 162 374 145 100 0 103 1
47 165 166 81 1 107 423 66 104 165 0 103 111 167 82 1 164 -1470691896 81 1 165 3
75 145 104 0 107 162 168 169 81 1 111 424 66 108 168 0 107 115 170 82 1 167 -147
1281720 81 1 168 376 145 108 0 111 165 149 171 82 1 170 -1471871544 81 1 149 377
 145 112 0 115 168 0 172 83 3 171 .776470588235294 .756862745098039 .73725490196
0784 83 3 172 .776470588235294 .756862745098039 .737254901960784 83 3 169 .77647
0588235294 .756862745098039 .737254901960784 83 3 166 .776470588235294 .75686274
5098039 .737254901960784 83 3 163 .776470588235294 .756862745098039 .73725490196
0784 81 1 87 418 66 84 156 0 83 90 173 82 1 160 -1511717433 81 1 156 368 145 84
 0 87 174 153 175 81 1 83 417 66 80 174 0 79 87 176 82 1 173 -1511127609 81 1 17
4 367 145 80 0 83 177 156 178 81 1 79 416 66 77 177 0 76 83 179 82 1 176 -151053
7785 81 1 177 366 145 77 0 79 180 174 181 81 1 76 415 66 59 180 0 72 79 182 82 1
 179 -1509947961 81 1 180 365 145 59 0 76 183 177 184 81 1 72 414 66 10 185 0 68
 76 186 82 1 182 -1509358137 81 1 185 362 145 10 0 72 0 67 187 81 1 68 413 66 65
 183 0 64 72 188 82 1 186 -1464334904 81 1 183 364 145 65 0 68 67 180 189 82 1 1
88 -1502607929 81 1 67 363 145 62 0 64 185 183 190 83 3 189 .776470588235294 .75
6862745098039 .737254901960784 83 3 190 .776470588235294 .756862745098039 .73725
4901960784 83 3 187 .776470588235294 .756862745098039 .737254901960784 83 3 184
 .776470588235294 .756862745098039 .737254901960784 83 3 181 .776470588235294 .7
56862745098039 .737254901960784 83 3 178 .776470588235294 .756862745098039 .7372
54901960784 83 3 175 .776470588235294 .756862745098039 .737254901960784 83 3 157
 .776470588235294 .756862745098039 .737254901960784 79 255 15 155 SDL/TYSA_COLOU
R15 29 239 0 27 12 191 15 191 136 0 22 12 0 17 22 0 191 22 22 0 192 18 0 0 +17 1
92 0 193 192 192 0 22 18 0 0 -15 193 165 0 192 65 0 82 1 150 -1472461368 83 3 14
8 .776470588235294 .756862745098039 .737254901960784 79 14 144 SWEntUnchanged15
 36 263 0 33 93 194 15 194 264 0 195 93 0 17 195 0 194 195 195 0 31 14 0 0 -17 3
1 0 73 31 31 0 195 14 0 0 +15 73 245 0 31 10 20 15 20 142 0 17 10 0 15 91 192 0
 47 88 196 17 47 0 91 47 47 0 197 45 0 0 +15 196 193 0 198 88 0 17 198 0 196 198
 198 0 44 32 0 0 -17 44 0 70 44 44 0 198 32 0 0 +15 70 164 0 44 65 193 17 197 0
 199 197 197 0 47 45 0 0 -15 199 189 0 197 84 0 15 89 188 0 50 84 199 17 50 0 89
 50 50 0 200 48 0 0 +17 200 0 201 200 200 0 50 48 0 0 -15 201 185 0 200 80 0 15
 85 184 0 53 80 201 17 53 0 85 53 53 0 202 51 0 0 +17 202 0 203 202 202 0 53 51
 0 0 -15 203 181 0 202 77 0 15 81 180 0 55 77 203 17 55 0 81 55 55 0 204 54 0 0
 +17 204 0 60 204 204 0 55 54 0 0 -15 60 177 0 204 59 0 82 1 69 -1502149177 19 1
1 28 0 1 0 7 4 S0 74 4 CI16 index_map_offset0 0 1 dCCZ20 9 2 0 0 120 149 0 0 0 0
 0 0 0 0 0 0 0 0 0 0 0 0 0 0 1 0 
