**ABCDEFGHIJKLMNOPQRSTUVWXYZabcdefghijklmnopqrstuvwxyz**************************
**PARASOLID !"#$%&'()*+,-./:;<=>?@[\]^_`{|}~0123456789**************************
**PART1;
MC=AMD64;
MC_MODEL=Intel64 Family 6 Model 15 Stepping 11, GenuineIntel;
MC_ID=unknown;
OS=Windows_NT;
OS_RELEASE=unknown;
FRU=Parasolid Version 30.0, build 226,  7-26-2017;
APPL=SOLIDWORKS 2018-2017278;
SITE=;
USER=unknown;
FORMAT=text;
GUISE=transmit;
KEY=Nut DIN 934 - M5;
FILE=Nut DIN 934 - M5.x_t;
DATE=Tue Apr 28 14:08:40 2020;
**PART2;
SCH=SCH_3000226_30000;
USFLD_SIZE=0;
**PART3;
**END_OF_HEADER*****************************************************************
T51 : TRANSMIT FILE created by modeller version 300022623 SCH_3000226_30000_1300
6205 0 12 33 CCCCCCI4 mesh1006 0 I8 polyline1008 0 CCCCCCCDI5 owner1040 0 CCCCCC
I13 boundary_mesh1006 0 I17 boundary_polyline1008 0 CCCA16 index_map_offset0 0 1
 dA9 index_map82 0 A17 node_id_index_map82 0 A20 schema_embedding_map82 0 A5 chi
ld12 0 A14 lowest_node_id0 0 1 dZ1 1167 0 2 0 0 0 0 0 0 1e3 1e-8 0 3 0 1 0 1 1 4
 5 6 7 0 0 8 9 10 0 0 0 0 0 0 70 11 CI9 list_type0 0 1 uI10 notransmit0 0 1 lCCC
DCCDI12 finger_index0 0 1 dI12 finger_block1012 0 CZ2 0 4 T1 0 0 2 20 1 11 11 13
 255 4 134 0 1 0 12 0 0 13 0 50 255 5 127 0 14 15 0 0 +.002 -.004 -.002309401076
758505 0 .5 .866025403784439 0 -.866025403784439 .5 30 255 6 133 0 9 16 0 0 +.00
2 -165621378177755e-32 -.00461880215351701 -1 0 0 29 255 7 1008 0 10 17 0 -.002
 -.002 -.003464101615137755 19 8 CCCCCCCA5 owner12 0 Z8 40 0 1 13 0 18 V0 16 255
 9 301 0 ?19 0 20 6 0 0 1 18 255 10 1005 0 21 0 22 7 ?1 17 255 21 0 23 24 25 10
 26 27 0 28 -18 22 998 0 24 10 29 17 ?1 17 24 0 23 30 21 22 28 31 0 32 -18 29 99
4 0 30 22 33 34 ?1 29 17 1000 0 22 34 7 -.002 -.004 0 29 34 997 0 29 35 17 -.002
 -.002 .003464101615137755 29 35 993 0 33 36 34 -.002 .002 .003464101615137755 1
8 33 991 0 37 29 38 35 ?1 29 36 566 0 38 39 35 .002 .002 -.003464101615137755 18
 38 563 0 40 33 41 36 ?1 29 39 562 0 41 42 36 .002 .004 751157299368579e-33 18 4
1 559 0 43 38 44 39 ?1 29 42 558 0 44 45 39 .002 .002 .003464101615137755 18 44
 555 0 46 41 47 42 ?1 29 45 550 0 47 48 42 .002 -.002 -.003464101615137755 18 47
 547 0 49 44 50 45 ?1 29 48 534 0 50 51 45 .002 -.004 0 18 50 532 0 52 47 53 48
 ?1 29 51 531 0 53 54 48 .002 -.002 .003464101615137755 18 53 528 0 55 50 56 51
 ?1 29 54 302 0 56 57 51 .00164273441009184 -165621378177755e-32 -.0046188021535
1701 18 56 300 0 58 53 59 54 ?1 29 57 286 0 59 60 54 .00164273441009184 .004 -.0
02309401076758505 18 59 284 0 61 56 62 57 ?1 29 60 270 0 62 63 57 .0016427344100
9184 .004 .002309401076758505 18 62 268 0 64 59 65 60 ?1 29 63 254 0 65 66 60 .0
0164273441009184 885335950775103e-33 .00461880215351701 18 65 252 0 67 62 68 63
 ?1 29 66 238 0 68 69 63 .00164273441009184 -.004 .0023094010767585 18 68 236 0
 70 65 71 66 ?1 29 69 511 0 71 72 66 .001642734410092205 -.004 -.002309401076759
055 18 71 417 0 73 68 74 69 ?1 29 72 952 0 74 75 69 -.00164273441009184 -.004 .0
023094010767585 18 74 832 0 76 71 77 72 ?1 29 75 954 0 77 78 72 -.002 .002 -.003
464101615137755 18 77 820 0 25 74 79 75 ?1 29 78 955 0 79 80 75 -.00164273441009
184 -165621378177755e-32 -.00461880215351701 18 79 815 0 81 77 82 78 ?1 29 80 95
6 0 82 83 78 -.002 .004 867361737988404e-33 18 82 823 0 84 79 85 80 ?1 29 83 957
 0 85 86 80 -.00164273441009184 .004 -.002309401076758505 18 85 818 0 87 82 88 8
3 ?1 29 86 959 0 88 89 83 -.00164273441009184 .004 .002309401076758505 18 88 821
 0 90 85 91 86 ?1 29 89 961 0 91 92 86 -.00164273441009184 885335950775103e-33 .
00461880215351701 18 91 824 0 93 88 94 89 ?1 29 92 962 0 94 0 89 -.0016427344100
9184 -.004 -.002309401076758505 18 94 829 0 95 91 0 92 ?1 17 95 0 96 32 28 94 97
 98 0 99 +15 255 96 902 0 28 100 0 17 32 0 96 28 95 22 99 101 0 102 +17 28 0 96
 95 32 10 24 31 0 103 +17 97 0 104 105 106 10 95 98 0 0 -16 98 807 0 ?95 107 108
 109 107 107 1 17 99 0 110 73 111 94 32 101 0 106 -15 110 245 0 111 112 0 17 73
 0 110 113 99 71 106 114 0 115 -17 111 0 110 99 116 22 76 117 0 0 -16 101 808 0
 ?32 118 117 119 117 117 1 17 106 0 104 97 115 94 73 114 0 0 +15 104 322 0 97 14
 0 17 115 0 104 106 49 71 120 121 0 122 +16 114 231 0 ?106 123 124 125 0 0 1 16
 123 237 0 ?116 126 114 127 0 0 1 16 124 167 0 ?128 114 129 130 0 0 1 30 125 128
 0 114 131 127 0 +.002 -.004 -.002309401076758505 -1 0 0 31 255 131 186 0 129 13
0 125 0 +-.002 0 0 1 0 0 0 0 -1 .0021 30 127 129 0 123 125 132 0 +.002 -.004 .00
23094010767585 -1 0 0 30 132 130 0 126 127 133 0 +.002 885335950775103e-33 .0046
1880215351701 -1 0 0 16 126 253 0 ?134 135 123 132 0 0 1 30 133 131 0 135 132 16
 0 +.002 .004 .002309401076758505 -1 0 0 16 135 269 0 ?136 20 126 133 0 0 1 30 1
6 132 0 20 133 6 0 +.002 .004 -.002309401076758505 -1 0 0 16 20 285 0 ?137 9 135
 16 0 0 1 17 137 0 138 139 61 85 140 20 0 0 +15 138 293 0 139 141 0 17 139 0 138
 142 137 82 87 143 0 0 -17 61 0 138 137 144 59 145 146 0 140 +17 140 0 147 148 1
49 59 137 20 0 150 -15 147 309 0 151 152 0 17 148 0 147 58 140 38 150 153 0 154
 +17 149 0 147 140 151 85 155 108 0 137 -17 150 0 156 145 40 59 148 153 0 0 -15
 156 453 0 145 157 0 17 145 0 156 40 150 41 61 146 0 0 -17 40 0 156 150 145 38 1
58 159 0 148 -16 153 363 0 ?148 121 160 161 160 160 1 16 121 360 0 ?115 162 153
 163 162 162 1 16 160 364 0 ?58 153 164 161 153 153 1 38 12 CCCCCCCCCCCA17 inter
section_data204 0 Z161 488 0 160 165 163 0 +166 167 168 169 170 171 38 165 489 0
 146 172 161 0 -173 166 174 175 176 177 38 163 487 0 121 161 178 0 +166 179 180
 181 182 183 52 255 166 476 0 184 179 185 186 +.002 0 0 -1 0 0 .004 .86602540378
444 .5 0 0 -1 50 167 479 0 1 173 179 187 +.002 -165621378177755e-32 -.0046188021
5351701 0 -.5 .866025403784439 0 -.866025403784439 -.5 40 255 3 168 0 1 3 .00041
3826212753767 .3047201544574355 ??.001642667740925235 .0040002 -.002309285606704
665 .001998056772928255 .001857862375110655 -.00354616481112959 .001642667740925
235 -200000000001705e-21 -.00461891762357084 41 3 CI8 term_use0 0 1 cCZ1 169 L?.
001642667740925235 .0040002 -.002309285606704665 41 1 170 L?.001642667740925235
 -200000000001705e-21 -.00461891762357084 204 2 17 INTERSECTION_DATA17 Intersect
ion data7 uv_type0 0 1 u6 values0 1 1 fT12 171 4 5.23594445579533 .0003573322590
747645 -.00461903309362468 -.0003573322590747645 5.80059512598609 19432270717423
4e-20 -.00214527468477483 -194322707174283e-20 4330018765783765e-20 .00035733225
90747655 2309401076759555e-22 -.0003573322590747655 50 173 480 0 1 188 167 189 +
.002 .004 -.002309401076758505 0 -1 -187789324842145e-30 0 187789324842145e-30 -
1 50 179 478 0 1 167 166 190 +.002 -.004 -.002309401076758505 0 .5 .866025403784
439 0 -.866025403784439 .5 141 255 187 161 187 187 167 141 190 163 190 190 179 5
0 188 481 0 1 191 173 192 +.002 .004 .002309401076758505 0 -.5 -.866025403784439
 0 .866025403784439 -.5 141 189 165 189 189 173 50 191 482 0 1 193 188 194 +.002
 885335950775103e-33 .00461880215351701 0 .5 -.866025403784439 0 .86602540378443
9 .5 141 192 172 192 192 188 38 172 490 0 195 196 165 0 +166 188 197 198 199 200
 16 195 372 0 ?64 201 202 172 201 201 1 38 196 491 0 203 204 172 0 +166 191 205
 206 207 208 40 3 197 0 1 3 .000413826212753767 .3047201544574355 ??.00164266774
0925235 -1999999999991145e-22 .00461891762357084 .00199805677292826 .00214213762
4889345 .003382038419145915 .001642667740925235 .0040002 .002309285606704665 41
 1 198 L?.001642667740925235 -1999999999991145e-22 .00461891762357084 41 1 199 L
?.001642667740925235 .0040002 .002309285606704665 204 12 200 4 3.141549353402135
 .000357332259074764 -.00461903309362468 -.0003573322590747645 3.7062000235929 1
94322707174234e-20 -.002145274684774825 -1943227071742395e-21 4.18883350497405 .
0003573322590747645 230940107676387e-21 -.0003573322590747645 16 203 376 0 ?67 2
02 209 196 202 202 1 38 204 492 0 210 211 196 0 +166 193 212 213 214 215 40 3 20
5 0 1 3 .000413826212753767 .3047201544574355 ??.001642667740925235 -.0040002 .0
02309285606704665 .00199805677292826 -.001857862375110655 .00354616481112959 .00
1642667740925235 2000000000008565e-22 .00461891762357084 41 1 206 L?.00164266774
0925235 -.0040002 .002309285606704665 41 1 207 L?.001642667740925235 20000000000
08565e-22 .00461891762357084 204 12 208 4 2.09435180220554 .000357332259074765 -
.00461903309362468 -.0003573322590747655 2.6590024723963 194322707174184e-20 -.0
0214527468477483 -194322707174196e-20 3.14163595377745 .0003573322590747645 2309
401076758885e-22 -.0003573322590747645 16 210 380 0 ?70 209 216 204 209 209 1 31
 211 930 0 216 109 204 0 +-.002 0 0 1 0 0 0 0 -1 .004 50 193 483 0 1 217 191 218
 +.002 -.004 .0023094010767585 0 1 0 0 0 1 40 5 212 0 1 5 .001066648289301834 .3
137126885072315 ??4248780929243725e-20 -.004 -.00621447073339589 .00177793544775
246 -.004 -.00179581588491608 .00197652841759871 -.004 .000571738166966218 .0011
18431262388522 -.004 .00381403527365194 -.004065413854965765 -.004 .013943191005
71662 41 1 213 L?4248780929243725e-20 -.004 -.00621447073339589 41 1 214 L?-.004
065413854965765 -.004 .01394319100571662 204 20 215 4 .571904649937969 .00195751
2190707565 -.00852387181015439 -.001957512190707565 1.14881261948125 .0002220645
52247541 -.00410521696167458 -.000222064552247541 1.71276923148374 2347158240129
27e-19 -.001737662909792285 -234715824012923e-19 ????2.86221709088869 .006065413
85496577 .01163378992895812 -.00606541385496577 52 217 913 0 219 220 193 221 --.
002 0 0 1 0 0 .004 .86602540378444 .5 0 0 -1 141 218 204 218 218 193 14 255 219
 883 222 ?223 224 225 4 217 -223 226 223 224 18 50 220 915 0 1 227 217 228 +.002
 -.004 -.002309401076758505 0 .5 .866025403784439 0 -.866025403784439 .5 141 221
 119 229 230 217 38 119 936 0 117 0 231 0 +217 232 233 234 235 236 141 229 109 2
37 221 217 141 230 231 221 238 217 38 231 935 0 118 119 239 0 +217 240 241 242 2
43 244 141 238 239 230 245 217 38 239 934 0 246 231 247 0 +217 248 249 250 251 2
52 141 245 247 238 237 217 38 247 933 0 143 239 253 0 -254 217 255 256 257 258 1
41 237 253 245 229 217 38 253 932 0 259 247 109 0 +217 227 260 261 262 263 16 25
9 797 0 ?81 108 264 253 108 108 1 38 109 931 0 98 253 211 0 +217 220 265 266 267
 268 50 227 916 0 1 254 220 269 +.002 -165621378177755e-32 -.00461880215351701 0
 -.5 .866025403784439 0 -.866025403784439 -.5 40 3 260 0 1 3 .000413826212753767
 .3047201544574355 ??-.001642667740925235 .0040002 -.002309285606704665 -.001998
056772928255 .001857862375110655 -.00354616481112959 -.001642667740925235 -20000
0000001705e-21 -.00461891762357084 41 1 261 L?-.001642667740925235 .0040002 -.00
2309285606704665 41 1 262 L?-.001642667740925235 -200000000001705e-21 -.00461891
762357084 204 12 263 4 1.047240851384254 .0003573322590747645 -.0046190330936246
8 -.003642667740925235 .482590181193494 194322707174234e-20 -.00214527468477483
 -.00399805677292826 6.28314200699193 .0003573322590747655 2309401076759555e-22
 -.003642667740925235 50 254 917 0 1 248 227 270 +.002 .004 -.002309401076758505
 0 -1 -187789324842145e-30 0 187789324842145e-30 -1 141 269 253 269 269 227 50 2
48 918 0 1 240 254 271 +.002 .004 .002309401076758505 0 -.5 -.866025403784439 0
 .866025403784439 -.5 141 270 247 270 270 254 50 240 919 0 1 232 248 272 +.002 8
85335950775103e-33 .00461880215351701 0 .5 -.866025403784439 0 .866025403784439
 .5 141 271 239 271 271 248 50 232 920 0 1 0 240 273 +.002 -.004 .00230940107675
85 0 1 0 0 0 1 141 272 231 272 272 240 141 273 119 273 273 232 40 3 265 0 1 3 .0
004138262127537675 .304720154457436 ??-.001642667740925235 199999999998344e-21 -
.00461891762357084 -.001998056772928255 -.00214213762488935 -.00338203841914592
 -.001642667740925235 -.0040002 -.00230928560670467 41 1 266 L?-.001642667740925
235 199999999998344e-21 -.00461891762357084 41 1 267 L?-.001642667740925235 -.00
40002 -.00230928560670467 204 12 268 4 4330018765711e-17 .000357332259074765 -.0
0461903309362468 -.003642667740925235 5.71857793717648 1943227071743845e-21 -.00
2145274684774825 -.003998056772928255 5.23594445579533 .000357332259074766 23094
0107675419e-21 -.003642667740925235 17 81 0 274 103 26 79 151 259 0 105 +16 108
 793 0 ?155 98 259 253 259 259 1 16 264 785 0 ?275 259 143 247 143 143 1 17 275
 0 225 276 90 82 142 264 0 139 +16 143 792 0 ?87 264 277 247 264 264 1 17 87 0 2
78 155 279 85 139 143 0 149 +16 277 800 0 ?280 143 246 239 246 246 1 17 280 0 28
1 282 93 33 283 277 0 284 +16 246 784 0 ?90 277 285 239 277 277 1 17 90 0 225 27
5 276 88 284 246 0 142 +16 285 810 0 ?286 246 118 231 118 118 1 17 286 0 287 102
 76 29 288 285 0 289 +16 118 799 0 ?93 285 101 231 285 285 1 17 93 0 281 280 282
 91 289 118 0 283 +15 281 898 0 93 224 0 17 282 0 281 93 280 29 37 290 0 286 +17
 289 0 291 288 134 29 93 118 0 0 -17 283 0 292 293 284 91 280 277 0 134 -15 292
 277 0 136 294 0 17 293 0 292 295 283 65 134 126 0 296 -17 284 0 292 283 136 33
 90 246 0 0 -17 134 0 291 289 67 91 293 126 0 0 +15 291 261 0 134 297 0 17 67 0
 291 134 298 65 299 203 0 293 +17 298 0 291 67 300 53 301 202 0 302 +17 299 0 30
3 46 296 53 67 203 0 0 -15 303 461 0 296 304 0 17 46 0 303 296 299 44 302 305 0
 295 -17 296 0 303 299 46 65 295 201 0 0 -17 295 0 292 64 293 44 296 201 0 306 +
16 201 371 0 ?295 146 195 172 195 195 1 16 146 368 0 ?61 164 201 165 164 164 1 1
6 164 367 0 ?144 160 146 165 146 146 1 17 144 0 138 61 307 41 308 164 0 158 +17
 307 0 138 144 142 62 136 135 0 308 -17 308 0 309 310 43 62 144 164 0 0 -17 158
 0 311 306 154 41 40 159 0 145 +15 311 352 0 306 312 313 17 306 0 311 302 158 44
 43 314 0 310 +17 154 0 311 158 315 38 316 317 0 318 +16 159 384 0 ?158 129 314
 178 317 314 1 16 129 164 0 ?319 124 159 131 0 0 1 16 314 387 0 ?306 159 305 178
 159 305 1 31 178 486 0 159 163 130 0 +.002 0 0 1 0 0 0 0 -1 .004 16 317 399 0 ?
154 320 162 178 320 159 1 16 320 396 0 ?315 321 317 178 321 317 1 16 162 359 0 ?
49 317 121 163 121 121 1 17 49 0 104 115 322 47 323 162 0 315 +17 322 0 104 49 1
05 56 19 9 0 323 -17 323 0 324 318 316 56 49 162 0 0 -17 315 0 311 154 52 47 325
 320 0 120 +17 52 0 311 315 302 50 55 321 0 113 +17 325 0 326 122 120 50 315 320
 0 0 -17 120 0 326 325 122 47 115 121 0 316 -15 326 465 0 120 327 0 17 122 0 326
 120 325 71 113 209 0 0 -17 316 0 324 323 318 47 154 317 0 0 -15 324 457 0 318 3
28 0 17 318 0 324 316 323 38 58 160 0 0 -17 58 0 147 19 148 56 318 160 0 322 +17
 19 0 147 151 58 79 322 9 0 0 +17 151 0 147 149 19 77 81 259 0 0 -14 328 454 329
 ?226 157 324 4 166 +304 157 226 157 18 81 255 1 329 1148 330 328 331 0 222 332
 333 14 226 903 332 ?100 328 287 4 217 -219 100 100 328 18 14 157 450 334 ?328 1
84 156 4 166 +328 184 328 184 18 14 304 458 335 ?184 327 303 4 166 +327 328 184
 327 18 13 18 41 0 0 0 0 0 0 8 12 14 12 756 336 ?14 0 337 4 338 +0 0 14 0 18 81
 1 336 1152 330 12 339 0 335 340 341 14 14 726 340 ?152 12 104 4 5 -0 0 152 12 1
8 15 337 152 0 319 12 23 50 338 91 0 12 342 343 0 +-.002 -.004 -.002309401076758
505 -1 0 0 0 0 1 50 342 2 0 312 185 338 0 +.002 -.004 -.002309401076758505 -1 0
 0 0 0 1 50 343 122 0 112 338 344 0 +.002 -.004 .0023094010767585 0 1 0 0 0 1 14
 112 649 345 ?312 297 110 4 343 -0 0 312 297 18 50 344 123 0 297 343 346 0 +.002
 885335950775103e-33 .00461880215351701 0 .5 -.866025403784439 0 .86602540378443
9 .5 14 297 665 347 ?112 294 291 4 344 -0 0 112 294 18 50 346 124 0 294 344 348
 0 +.002 .004 .002309401076758505 0 -.5 -.866025403784439 0 .866025403784439 -.5
 14 294 681 349 ?297 141 292 4 346 -0 0 297 141 18 50 348 125 0 141 346 15 0 +.0
02 .004 -.002309401076758505 0 -1 -187789324842145e-30 0 187789324842145e-30 -1
 14 141 697 350 ?294 152 138 4 348 -0 0 294 152 18 50 15 126 0 152 348 5 0 +.002
 -165621378177755e-32 -.00461880215351701 0 -.5 .866025403784439 0 -.86602540378
4439 -.5 14 152 713 351 ?141 14 147 4 15 -0 0 141 14 18 81 1 351 1158 330 152 35
2 0 350 353 354 80 255 1 330 355 356 9000 1 1 1 1 1 1 1 1 0 FFFFTFTFFFFFFF1 81 1
 352 1084 357 152 0 351 358 359 360 81 1 350 1157 330 141 359 0 349 351 361 81 1
 353 1159 330 312 362 0 351 363 364 82 255 1 354 -1622605670 14 312 161 353 ?365
 112 311 4 342 -0 0 365 112 18 81 1 362 1089 357 312 0 353 366 367 368 81 1 363
 1160 330 365 367 0 353 369 370 82 1 364 -1766260583 14 365 170 363 ?371 312 372
 4 185 +0 0 371 312 18 81 1 367 1090 357 365 0 363 362 373 374 81 1 369 1161 330
 371 373 0 363 375 376 82 1 370 -1784938346 14 371 466 369 ?327 365 377 4 166 +1
84 327 327 365 18 81 1 373 1091 357 371 0 369 367 378 379 81 1 375 1162 330 327
 378 0 369 380 381 82 1 376 -1717829479 14 327 462 375 ?304 371 326 4 166 +371 3
04 304 371 18 81 1 378 1092 357 327 0 375 373 382 383 81 1 380 1163 330 184 384
 0 375 385 386 82 1 381 -1717370727 14 184 446 380 ?157 304 309 4 166 +157 371 1
57 304 18 81 1 384 1094 357 184 0 380 382 387 388 81 1 385 1164 330 100 389 0 38
0 390 391 82 1 386 -1714224999 14 100 899 385 ?224 226 96 4 217 -226 224 224 226
 18 81 1 389 1098 357 100 0 385 392 393 394 81 1 390 1165 330 224 393 0 385 395
 396 82 1 391 -1641676646 14 224 895 390 ?219 100 281 4 217 -100 397 219 100 18
 81 1 393 1099 357 224 0 390 389 398 399 81 1 395 1166 330 223 400 0 390 401 402
 82 1 396 -1640562534 14 223 887 395 ?397 219 278 4 217 -397 219 397 219 18 81 1
 400 1101 357 223 0 395 398 403 404 81 1 401 1167 330 397 403 0 395 0 405 82 1 4
02 -1638989670 14 397 891 401 ?0 223 274 4 217 -224 223 0 223 18 81 1 403 1102 3
57 397 0 401 400 0 406 82 1 405 -1640103782 80 1 357 0 407 8001 0 0 0 0 3 5 0 0
 0 FFFFTFTFFFFFFF2 83 255 3 406 .647058823529412 .619607843137255 .5882352941176
47 79 255 15 407 SDL/TYSA_COLOUR15 274 894 0 26 397 0 17 26 0 274 81 103 77 21 2
7 0 155 +17 103 0 274 26 81 10 105 107 0 97 +16 27 794 0 ?26 31 107 211 31 216 1
 17 155 0 278 279 87 77 149 108 0 151 +15 278 890 0 279 223 0 17 279 0 278 87 15
5 82 25 216 0 275 +17 25 0 23 21 84 77 279 216 0 26 -16 216 789 0 ?279 210 408 2
11 27 408 1 16 408 786 0 ?276 216 290 211 216 290 1 17 276 0 225 90 275 33 84 40
8 0 280 +16 290 801 0 ?282 408 409 211 408 409 1 16 409 811 0 ?102 290 31 211 29
0 31 1 17 102 0 287 76 286 22 30 409 0 111 +16 31 804 0 ?28 409 27 211 409 27 1
 15 287 906 0 76 226 0 17 76 0 287 286 102 74 111 117 0 288 +17 30 0 23 37 24 29
 102 409 0 282 -15 23 754 0 84 12 0 17 37 0 23 84 30 33 282 290 0 276 -17 84 0 2
3 25 37 82 276 408 0 279 -16 117 809 0 ?76 101 0 119 101 101 1 17 288 0 291 300
 289 74 286 285 0 116 -17 300 0 291 298 288 68 116 123 0 301 -17 116 0 110 111 7
0 74 300 123 0 0 +17 70 0 110 116 113 68 410 210 0 300 +17 113 0 110 70 73 50 12
2 209 0 410 +17 410 0 377 55 301 50 70 210 0 325 -15 377 469 0 301 371 0 17 55 0
 377 301 410 53 52 321 0 298 -17 301 0 377 410 55 68 298 202 0 0 -16 202 375 0 ?
298 195 203 196 203 203 1 16 321 393 0 ?52 305 320 178 305 320 1 16 305 390 0 ?3
02 314 321 178 314 321 1 17 302 0 311 52 306 53 46 305 0 299 +16 209 379 0 ?113
 203 210 204 210 210 1 15 225 886 0 90 219 0 16 107 798 0 ?103 27 98 109 98 98 1
 17 105 0 104 322 97 79 103 107 0 19 -81 1 398 1100 357 219 0 222 393 400 411 83
 3 404 .647058823529412 .619607843137255 .588235294117647 81 1 222 1147 330 219
 398 0 0 329 412 83 3 411 .647058823529412 .619607843137255 .588235294117647 82
 1 412 -1638530918 83 3 399 .647058823529412 .619607843137255 .588235294117647 8
1 1 392 1097 357 226 0 332 331 389 413 83 3 394 .647058823529412 .61960784313725
5 .588235294117647 81 1 332 1149 330 226 392 0 329 334 414 81 1 331 1096 357 328
 0 329 387 392 415 83 3 413 .647058823529412 .619607843137255 .588235294117647 8
1 1 387 1095 357 157 0 334 384 331 416 83 3 415 .647058823529412 .61960784313725
5 .588235294117647 81 1 334 1150 330 157 387 0 332 335 417 83 3 416 .64705882352
9412 .619607843137255 .588235294117647 81 1 335 1151 330 304 382 0 334 336 418 8
2 1 417 -1714683751 81 1 382 1093 357 304 0 335 378 384 419 82 1 418 -1716256615
 83 3 419 .647058823529412 .619607843137255 .588235294117647 82 1 414 -164213539
8 83 3 388 .647058823529412 .619607843137255 .588235294117647 15 309 449 0 308 1
84 0 83 3 383 .647058823529412 .619607843137255 .588235294117647 83 3 379 .64705
8823529412 .619607843137255 .588235294117647 83 3 374 .647058823529412 .61960784
3137255 .588235294117647 15 372 173 0 128 365 420 51 255 185 183 0 365 166 342 0
 -.002 0 0 -1 0 0 .0021 0 0 1 17 128 0 372 128 128 0 421 124 0 0 +15 420 174 0 4
22 365 0 17 422 0 420 422 422 0 319 129 0 0 -17 319 0 337 319 319 0 422 129 0 0
 +17 421 0 313 421 421 0 128 124 0 0 -15 313 159 0 421 312 0 81 1 366 1088 357 1
12 0 345 423 362 424 83 3 368 .647058823529412 .619607843137255 .588235294117647
 81 1 345 1154 330 112 366 0 340 347 425 81 1 423 1087 357 297 0 347 426 366 427
 83 3 424 .647058823529412 .619607843137255 .588235294117647 81 1 347 1155 330 2
97 423 0 345 349 428 81 1 426 1086 357 294 0 349 359 423 429 83 3 427 .647058823
529412 .619607843137255 .588235294117647 81 1 349 1156 330 294 426 0 347 350 430
 81 1 359 1085 357 141 0 350 352 426 431 83 3 429 .647058823529412 .619607843137
255 .588235294117647 83 3 431 .647058823529412 .619607843137255 .588235294117647
 82 1 430 -1625751398 82 1 428 -1627324262 81 1 340 1153 330 14 358 0 336 345 43
2 82 1 425 -1628897126 81 1 358 1083 357 14 0 340 339 352 433 82 1 432 -16213604
86 81 1 339 1082 357 12 0 336 0 358 434 83 3 433 .647058823529412 .6196078431372
55 .588235294117647 83 3 434 .647058823529412 .619607843137255 .588235294117647
 82 1 361 -1624178534 83 3 360 .647058823529412 .619607843137255 .58823529411764
7 79 14 356 SWEntUnchanged82 1 341 -1618607974 82 1 333 -1715797863 31 130 187 0
 124 178 131 0 +.002 0 0 1 0 0 0 0 -1 .0021 17 43 0 309 308 310 41 306 314 0 144
 -17 310 0 309 43 308 44 64 195 0 0 -17 64 0 292 136 295 62 310 195 0 307 +17 13
6 0 292 284 64 88 307 135 0 0 +17 142 0 138 307 139 88 275 264 0 136 -40 5 255 0
 1 5 .001066648289301834 .3137126885072315 ??-4248780929244025e-20 .004 -.006214
47073339589 -.00177793544775246 .004 -.001795815884916075 -.00197652841759871 .0
04 .000571738166966218 -.001118431262388524 .004 .00381403527365194 .00406541385
4965765 .004 .01394319100571662 41 1 256 L?-4248780929244025e-20 .004 -.00621447
073339589 41 1 257 L?.004065413854965765 .004 .01394319100571662 204 20 258 4 .0
03905069656637385 -.00204248780929244 .571904649937969 .00195751219070756 -.0005
13585191842426 -.00377793544775246 1.14881261948125 .0002220645522475395 -.00288
113924372472 -.00397652841759871 1.71276923148374 234715824012907e-19 ????-.0162
5259208247515 .002065413854965765 2.862217090888695 .00606541385496576 40 3 249
 0 1 3 .000413826212753767 .3047201544574355 ??-.001642667740925235 -19999999999
91145e-22 .00461891762357084 -.00199805677292826 .002142137624889345 .0033820384
19145915 -.001642667740925235 .0040002 .002309285606704665 41 1 250 L?-.00164266
7740925235 -1999999999991145e-22 .00461891762357084 41 1 251 L?-.001642667740925
235 .0040002 .002309285606704665 204 12 252 4 3.14163595377745 .0003573322590747
64 -.00461903309362468 -.003642667740925235 2.57698528358669 194322707174234e-20
 -.002145274684774825 -.00399805677292826 2.09435180220554 .0003573322590747645
 230940107676387e-21 -.003642667740925235 40 3 241 0 1 3 .000413826212753767 .30
47201544574355 ??-.001642667740925235 -.0040002 .002309285606704665 -.0019980567
7292826 -.001857862375110655 .00354616481112959 -.001642667740925235 20000000000
08565e-22 .00461891762357084 41 1 242 L?-.001642667740925235 -.0040002 .00230928
5606704665 41 1 243 L?-.001642667740925235 2000000000008565e-22 .004618917623570
84 204 12 244 4 4.18883350497405 .000357332259074765 -.00461903309362468 -.00364
2667740925235 3.624182834783285 194322707174184e-20 -.00214527468477483 -.003998
05677292826 3.141549353402135 .0003573322590747645 2309401076758885e-22 -.003642
667740925235 40 5 233 0 1 5 .001066648289301834 .3137126885072315 ??-42487809292
43725e-20 -.004 -.00621447073339589 -.00177793544775246 -.004 -.0017958158849160
8 -.00197652841759871 -.004 .000571738166966218 -.001118431262388522 -.004 .0038
1403527365194 .004065413854965765 -.004 .01394319100571662 41 1 234 L?-424878092
9243725e-20 -.004 -.00621447073339589 41 1 235 L?.004065413854965765 -.004 .0139
4319100571662 204 20 236 4 5.71128065724162 .001957512190707565 -.00852387181015
439 -.002042487809292435 5.13437268769834 .000222064552247541 -.0041052169616745
8 -.00377793544775246 4.57041607569585 234715824012927e-19 -.001737662909792285
 -.00397652841759871 ????3.420968216290895 .00606541385496577 .01163378992895812
 .002065413854965765 141 228 109 228 228 220 141 194 196 194 194 191 141 186 204
 435 436 166 141 435 163 437 186 166 141 436 196 186 438 166 141 438 172 436 439
 166 141 439 165 438 437 166 141 437 161 439 435 166 40 3 180 0 1 3 .00041382621
27537675 .304720154457436 ??.001642667740925235 199999999998344e-21 -.0046189176
2357084 .001998056772928255 -.00214213762488935 -.00338203841914592 .00164266774
0925235 -.0040002 -.00230928560670467 41 1 181 L?.001642667740925235 19999999999
8344e-21 -.00461891762357084 41 1 182 L?.001642667740925235 -.0040002 -.00230928
560670467 204 12 183 4 6.28314200699193 .000357332259074765 -.00461903309362468
 -.0003573322590747655 .564607370003104 1943227071743845e-21 -.00214527468477482
5 -1943227071743265e-21 1.047240851384254 .000357332259074766 230940107675419e-2
1 -.000357332259074766 40 5 174 0 1 5 .001066648289301834 .3137126885072315 ??42
48780929244025e-20 .004 -.00621447073339589 .00177793544775246 .004 -.0017958158
84916075 .00197652841759871 .004 .000571738166966218 .001118431262388524 .004 .0
0381403527365194 -.004065413854965765 .004 .01394319100571662 41 1 175 L?4248780
929244025e-20 .004 -.00621447073339589 41 1 176 L?-.004065413854965765 .004 .013
94319100571662 204 20 177 4 .003905069656637385 -.00195751219070756 5.7112806572
4162 .00195751219070756 -.000513585191842426 -.0002220645522475395 5.13437268769
834 .0002220645522475395 -.00288113924372472 -2347158240129055e-20 4.57041607569
585 234715824012907e-19 ????-.01625259208247515 -.00606541385496576 3.4209682162
90895 .00606541385496576 19 13 135 0 1 0 8 4 S0 74 4 CI16 index_map_offset0 0 1
 dCCZ20 11 2 0 0 401 403 0 0 0 0 0 0 0 0 0 0 0 0 0 0 0 0 0 0 1 0 
