**ABCDEFGHIJKLMNOPQRSTUVWXYZabcdefghijklmnopqrstuvwxyz**************************
**PARASOLID !"#$%&'()*+,-./:;<=>?@[\]^_`{|}~0123456789**************************
**PART1;
MC=AMD64;
MC_MODEL=Intel64 Family 6 Model 15 Stepping 11, GenuineIntel;
MC_ID=unknown;
OS=Windows_NT;
OS_RELEASE=unknown;
FRU=Parasolid Version 30.0, build 226,  7-26-2017;
APPL=SOLIDWORKS 2018-2017278;
SITE=;
USER=unknown;
FORMAT=text;
GUISE=transmit;
KEY=Nut DIN 934 - M4;
FILE=Nut DIN 934 - M4.x_t;
DATE=Mon Apr 27 15:07:40 2020;
**PART2;
SCH=SCH_3000226_30000;
USFLD_SIZE=0;
**PART3;
**END_OF_HEADER*****************************************************************
T51 : TRANSMIT FILE created by modeller version 300022623 SCH_3000226_30000_1300
6205 0 12 33 CCCCCCI4 mesh1006 0 I8 polyline1008 0 CCCCCCCDI5 owner1040 0 CCCCCC
I13 boundary_mesh1006 0 I17 boundary_polyline1008 0 CCCA16 index_map_offset0 0 1
 dA9 index_map82 0 A17 node_id_index_map82 0 A20 schema_embedding_map82 0 A5 chi
ld12 0 A14 lowest_node_id0 0 1 dZ1 1158 0 2 0 0 0 0 0 0 1e3 1e-8 0 3 0 1 0 1 1 4
 5 6 7 0 0 8 9 10 0 0 0 0 0 0 70 11 CI9 list_type0 0 1 uI10 notransmit0 0 1 lCCC
DCCDI12 finger_index0 0 1 dI12 finger_block1012 0 CZ2 0 4 T1 0 0 2 20 1 11 11 13
 255 4 134 0 1 0 12 0 0 13 0 50 255 5 127 0 14 15 0 0 +.0016 -.0035 -.0020207259
42163695 0 .5 .866025403784439 0 -.866025403784439 .5 30 255 6 133 0 9 16 0 0 +.
0016 -165621378177755e-32 -.004041451884327385 -1 0 0 29 255 7 1008 0 10 17 0 -.
0016 -.00175 -.00303108891324554 19 8 CCCCCCCA5 owner12 0 Z8 40 0 1 13 0 18 V0 1
6 255 9 301 0 ?19 0 20 6 0 0 1 18 255 10 1005 0 21 0 22 7 ?1 17 255 21 0 23 24 2
5 10 26 27 0 28 +18 22 998 0 25 10 29 17 ?1 17 25 0 23 21 24 22 30 31 0 32 +18 2
9 994 0 33 22 34 35 ?1 29 17 1000 0 22 35 7 -.0016 -.0035 0 29 35 997 0 29 36 17
 -.0016 -.00175 .003031088913245535 29 36 566 0 34 37 35 .0016 .00175 -.00303108
8913245535 18 34 563 0 38 29 39 36 ?1 29 37 562 0 39 40 36 .0016 .0035 751157299
368579e-33 18 39 559 0 41 34 42 37 ?1 29 40 558 0 42 43 37 .0016 .00175 .0030310
88913245535 18 42 555 0 44 39 45 40 ?1 29 43 550 0 45 46 40 .0016 -.00175 -.0030
3108891324554 18 45 547 0 47 42 48 43 ?1 29 46 534 0 48 49 43 .0016 -.0035 0 18
 48 532 0 50 45 51 46 ?1 29 49 531 0 51 52 46 .0016 -.00175 .003031088913245535
 18 51 528 0 53 48 54 49 ?1 29 52 302 0 54 55 49 .001287392608830358 -1656213781
77755e-32 -.004041451884327385 18 54 300 0 56 51 57 52 ?1 29 55 286 0 57 58 52 .
00128739260883036 .0035 -.00202072594216369 18 57 284 0 59 54 60 55 ?1 29 58 270
 0 60 61 55 .00128739260883036 .0035 .00202072594216369 18 60 268 0 62 57 63 58
 ?1 29 61 254 0 63 64 58 .00128739260883036 1797421278669945e-35 .00404145188432
738 18 63 252 0 65 60 66 61 ?1 29 64 238 0 66 67 61 .00128739260883036 -.0035 .0
0202072594216369 18 66 236 0 68 63 69 64 ?1 29 67 511 0 69 70 64 .00128739260883
0426 -.0035 -.002020725942163795 18 69 417 0 71 66 72 67 ?1 29 70 952 0 72 73 67
 -.00128739260883036 -.0035 .00202072594216369 18 72 832 0 74 69 75 70 ?1 29 73
 954 0 75 76 70 -.0016 .00175 -.003031088913245535 18 75 820 0 77 72 78 73 ?1 29
 76 955 0 78 79 73 -.001287392608830358 -165621378177755e-32 -.00404145188432738
5 18 78 815 0 80 75 81 76 ?1 29 79 956 0 81 82 76 -.0016 .0035 867361737988404e-
33 18 81 823 0 83 78 84 79 ?1 29 82 957 0 84 85 79 -.00128739260883036 .0035 -.0
0202072594216369 18 84 818 0 86 81 87 82 ?1 29 85 958 0 87 88 82 -.0016 .00175 .
003031088913245535 18 87 826 0 89 84 90 85 ?1 29 88 959 0 90 91 85 -.00128739260
883036 .0035 .00202072594216369 18 90 821 0 92 87 93 88 ?1 29 91 961 0 93 94 88
 -.00128739260883036 1797421278669945e-35 .00404145188432738 18 93 824 0 95 90 9
6 91 ?1 29 94 962 0 96 0 91 -.001287392608830358 -.0035 -.002020725942163695 18
 96 829 0 24 93 0 94 ?1 17 24 0 23 25 21 96 97 98 0 30 +15 255 23 902 0 21 99 0
 17 97 0 100 101 102 10 24 98 0 103 -16 98 807 0 ?24 104 105 106 104 104 1 17 30
 0 107 71 108 96 25 31 0 102 -15 107 245 0 108 109 0 17 71 0 107 110 30 69 102 1
11 0 112 -17 108 0 107 30 113 22 74 114 0 26 -16 31 808 0 ?25 115 114 116 114 11
4 1 17 102 0 100 97 112 96 71 111 0 0 +15 100 322 0 97 14 0 17 112 0 100 102 47
 69 117 118 0 119 +16 111 231 0 ?102 120 121 122 0 0 1 16 120 237 0 ?113 123 111
 124 0 0 1 16 121 167 0 ?125 111 126 127 0 0 1 30 122 128 0 111 128 124 0 +.0016
 -.0035 -.002020725942163695 -1 0 0 31 255 128 186 0 126 127 122 0 +-.0016 0 0 1
 0 0 0 0 -1 .00165 30 124 129 0 120 122 129 0 +.0016 -.0035 .00202072594216369 -
1 0 0 30 129 130 0 123 124 130 0 +.0016 1797421278669945e-35 .00404145188432738
 -1 0 0 16 123 253 0 ?131 132 120 129 0 0 1 30 130 131 0 132 129 16 0 +.0016 .00
35 .00202072594216369 -1 0 0 16 132 269 0 ?133 20 123 130 0 0 1 30 16 132 0 20 1
30 6 0 +.0016 .0035 -.00202072594216369 -1 0 0 16 20 285 0 ?134 9 132 16 0 0 1 1
7 134 0 135 136 59 84 137 20 0 0 +15 135 293 0 136 138 0 17 136 0 135 139 134 81
 86 140 0 141 -17 59 0 135 134 142 57 143 144 0 137 +17 137 0 145 146 147 57 134
 20 0 148 -15 145 309 0 149 150 0 17 146 0 145 56 137 34 148 151 0 152 +17 147 0
 145 137 149 84 153 105 0 134 -17 148 0 154 143 38 57 146 151 0 0 -15 154 453 0
 143 155 0 17 143 0 154 38 148 39 59 144 0 0 -17 38 0 154 148 143 34 156 157 0 1
46 -16 151 363 0 ?146 118 158 159 158 158 1 16 118 360 0 ?112 160 151 161 160 16
0 1 16 158 364 0 ?56 151 162 159 151 151 1 38 12 CCCCCCCCCCCA17 intersection_dat
a204 0 Z159 488 0 158 163 161 0 +164 165 166 167 168 169 38 163 489 0 144 170 15
9 0 -171 164 172 173 174 175 38 161 487 0 118 159 176 0 +164 177 178 179 180 181
 52 255 164 476 0 182 177 183 184 +.0016 0 0 -1 0 0 .0035 .86602540378444 .5 0 0
 -1 50 165 479 0 1 171 177 185 +.0016 -165621378177755e-32 -.004041451884327385
 0 -.5 .866025403784439 0 -.866025403784439 -.5 40 255 3 166 0 1 3 .000362098978
607593 .3047193125027175 ??.001287325939306632 .0035002 -.002020610472109855 .00
1598300208350105 .00162564904591973 -.003102882970057765 .00128732593930663 -200
0000000016605e-22 -.00404156735438122 41 3 CI8 term_use0 0 1 cCZ1 167 L?.0012873
25939306632 .0035002 -.002020610472109855 41 1 168 L?.00128732593930663 -2000000
000016605e-22 -.00404156735438122 204 2 17 INTERSECTION_DATA17 Intersection data
7 uv_type0 0 1 u6 values0 1 1 fT12 169 4 5.23593827023098 .000312674060693368 -.
00404168282443506 -.000312674060693368 5.80058871410475 1699791649892495e-21 -.0
01877137828539235 -1699791649892745e-21 494857520119259e-19 .00031267406069337 2
30940107675917e-21 -.00031267406069337 50 171 480 0 1 186 165 187 +.0016 .0035 -
.00202072594216369 0 -1 -2146163712481655e-31 0 2146163712481655e-31 -1 50 177 4
78 0 1 165 164 188 +.0016 -.0035 -.002020725942163695 0 .5 .866025403784439 0 -.
866025403784439 .5 141 255 185 159 185 185 165 141 188 161 188 188 177 50 186 48
1 0 1 189 171 190 +.0016 .0035 .00202072594216369 0 -.5 -.866025403784439 0 .866
025403784439 -.5 141 187 163 187 187 171 50 189 482 0 1 191 186 192 +.0016 17974
21278669945e-35 .00404145188432738 0 .5 -.866025403784439 0 .866025403784439 .5
 141 190 170 190 190 186 38 170 490 0 193 194 163 0 +164 186 195 196 197 198 16
 193 372 0 ?62 199 200 170 199 199 1 38 194 491 0 201 202 170 0 +164 189 203 204
 205 206 40 3 195 0 1 3 .000362098978607594 .3047193125027175 ??.001287325939306
63 -1999999999999065e-22 .00404156735438122 .00159830020835011 .0018743509540802
65 .002959294856433305 .001287325939306632 .0035002 .002020610472109855 41 1 196
 L?.00128732593930663 -1999999999999065e-22 .00404156735438122 41 1 197 L?.00128
7325939306632 .0035002 .002020610472109855 204 12 198 4 3.14154316783778 .000312
6740606933685 -.004041682824435055 -.0003126740606933685 3.706193611711555 16997
91649891995e-21 -.00187713782853923 -169979164989188e-20 4.1888396905384 .000312
6740606933675 230940107675419e-21 -.0003126740606933675 16 201 376 0 ?65 200 207
 194 200 200 1 38 202 492 0 208 209 194 0 +164 191 210 211 212 213 40 3 203 0 1
 3 .000362098978607594 .3047193125027175 ??.00128732593930663 -.0035002 .0020206
1047210985 .00159830020835011 -.001625649045919735 .003102882970057765 .00128732
5939306632 200000000000059e-21 .00404156735438122 41 1 204 L?.00128732593930663
 -.0035002 .00202061047210985 41 1 205 L?.001287325939306632 200000000000059e-21
 .00404156735438122 204 12 206 4 2.094345616641185 .000312674060693369 -.0040416
8282443506 -.000312674060693369 2.658996060514955 1699791649891995e-21 -.0018771
37828539235 -169979164989188e-20 3.141642139341805 .0003126740606933685 23094010
7675949e-21 -.0003126740606933685 16 208 380 0 ?68 207 214 202 207 207 1 31 209
 930 0 214 106 202 0 +-.0016 0 0 1 0 0 0 0 -1 .0035 50 191 483 0 1 215 189 216 +
.0016 -.0035 .00202072594216369 0 1 0 0 0 1 40 5 210 0 1 5 .000949915444727569 .
3127820313725385 ??-.000162588626993035 -.0035 -.00553989236245442 .001386668413
98374 -.0035 -.001650163360898715 .001584327312064975 -.0035 .000436758677078952
 .000870084977701585 -.0035 .003232348549604625 -.00355629544629529 -.0035 .0119
2807226802362 41 1 211 L?-.000162588626993035 -.0035 -.00553989236245442 41 1 21
2 L?-.00355629544629529 -.0035 .01192807226802362 204 20 213 4 .563460848929808
 .001762588626993035 -.00756061830461811 -.001762588626993035 1.13022779931232 .
00021333158601626 -.003670889303062405 -.00021333158601626 1.694942767921425 156
726879350235e-19 -.001583967265084735 -1567268793502385e-20 ????2.85617841491902
5 .00515629544629529 .00990734632585994 -.00515629544629529 52 215 913 0 217 218
 191 219 --.0016 0 0 1 0 0 .0035 .86602540378444 .5 0 0 -1 141 216 202 216 216 1
91 14 255 217 883 220 ?221 222 223 4 215 -221 224 221 222 18 50 218 915 0 1 225
 215 226 +.0016 -.0035 -.002020725942163695 0 .5 .866025403784439 0 -.8660254037
84439 .5 141 219 116 227 228 215 38 116 936 0 114 0 229 0 +215 230 231 232 233 2
34 141 227 106 235 219 215 141 228 229 219 236 215 38 229 935 0 115 116 237 0 +2
15 238 239 240 241 242 141 236 237 228 243 215 38 237 934 0 244 229 245 0 +215 2
46 247 248 249 250 141 243 245 236 235 215 38 245 933 0 140 237 251 0 -252 215 2
53 254 255 256 141 235 251 243 227 215 38 251 932 0 257 245 106 0 +215 225 258 2
59 260 261 16 257 797 0 ?80 105 262 251 105 105 1 38 106 931 0 98 251 209 0 +215
 218 263 264 265 266 50 225 916 0 1 252 218 267 +.0016 -165621378177755e-32 -.00
4041451884327385 0 -.5 .866025403784439 0 -.866025403784439 -.5 40 3 258 0 1 3 .
000362098978607593 .3047193125027175 ??-.001287325939306632 .0035002 -.002020610
472109855 -.001598300208350105 .00162564904591973 -.003102882970057765 -.0012873
2593930663 -2000000000016605e-22 -.00404156735438122 41 1 259 L?-.00128732593930
6632 .0035002 -.002020610472109855 41 1 260 L?-.00128732593930663 -2000000000016
605e-22 -.00404156735438122 204 12 261 4 1.04724703694861 .000312674060693368 -.
00404168282443506 -.00288732593930663 .482596593074836 1699791649892495e-21 -.00
1877137828539235 -.00319830020835011 6.28313582142758 .00031267406069337 2309401
07675917e-21 -.00288732593930663 50 252 917 0 1 246 225 268 +.0016 .0035 -.00202
072594216369 0 -1 -2146163712481655e-31 0 2146163712481655e-31 -1 141 267 251 26
7 267 225 50 246 918 0 1 238 252 269 +.0016 .0035 .00202072594216369 0 -.5 -.866
025403784439 0 .866025403784439 -.5 141 268 245 268 268 252 50 238 919 0 1 230 2
46 270 +.0016 1797421278669945e-35 .00404145188432738 0 .5 -.866025403784439 0 .
866025403784439 .5 141 269 237 269 269 246 50 230 920 0 1 0 238 271 +.0016 -.003
5 .00202072594216369 0 1 0 0 0 1 141 270 229 270 270 238 141 271 116 271 271 230
 40 3 263 0 1 3 .000362098978607594 .3047193125027175 ??-.00128732593930663 1999
999999981235e-22 -.00404156735438122 -.001598300208350105 -.00187435095408027 -.
00295929485643331 -.00128732593930663 -.0035002 -.002020610472109855 41 1 264 L?
-.00128732593930663 1999999999981235e-22 -.00404156735438122 41 1 265 L?-.001287
32593930663 -.0035002 -.002020610472109855 204 12 266 4 494857520110508e-19 .000
31267406069337 -.004041682824435055 -.00288732593930663 5.71858434905782 1699791
64989425e-20 -.00187713782853923 -.003198300208350105 5.23593827023098 .00031267
406069337 230940107676604e-21 -.00288732593930663 17 80 0 272 28 77 78 149 257 0
 101 +16 105 793 0 ?153 98 257 251 257 257 1 16 262 785 0 ?273 257 140 245 140 1
40 1 17 273 0 223 89 92 81 139 262 0 136 +16 140 792 0 ?86 262 274 245 262 262 1
 17 86 0 275 153 83 84 136 140 0 147 +16 274 800 0 ?276 140 244 237 244 244 1 17
 276 0 277 278 95 87 279 274 0 280 +16 244 784 0 ?92 274 281 237 274 274 1 17 92
 0 223 273 89 90 280 244 0 139 +16 281 810 0 ?282 244 115 229 115 115 1 17 282 0
 283 32 74 29 284 281 0 278 +16 115 799 0 ?95 281 31 229 281 281 1 17 95 0 277 2
76 278 93 33 115 0 279 +15 277 898 0 95 222 0 17 278 0 277 95 276 29 285 286 0 2
87 +17 33 0 288 284 131 29 95 115 0 282 -17 279 0 289 290 280 93 276 274 0 131 -
15 289 277 0 133 291 0 17 290 0 289 292 279 63 131 123 0 293 -17 280 0 289 279 1
33 87 92 244 0 285 -17 131 0 288 33 65 93 290 123 0 0 +15 288 261 0 131 294 0 17
 65 0 288 131 295 63 296 201 0 290 +17 295 0 288 65 297 51 298 200 0 299 +17 296
 0 300 44 293 51 65 201 0 0 -15 300 461 0 293 301 0 17 44 0 300 293 296 42 299 3
02 0 292 -17 293 0 300 296 44 63 292 199 0 0 -17 292 0 289 62 290 42 293 199 0 3
03 +16 199 371 0 ?292 144 193 170 193 193 1 16 144 368 0 ?59 162 199 163 162 162
 1 16 162 367 0 ?142 158 144 163 144 144 1 17 142 0 135 59 304 39 305 162 0 156
 +17 304 0 135 142 139 60 133 132 0 305 -17 305 0 306 307 41 60 142 162 0 0 -17
 156 0 308 303 152 39 38 157 0 143 +15 308 3 0 156 309 310 17 303 0 308 299 156
 42 41 311 0 307 +17 152 0 308 156 312 34 313 314 0 315 +16 157 384 0 ?156 126 3
11 176 314 311 1 16 126 164 0 ?316 121 157 128 0 0 1 16 311 387 0 ?303 157 302 1
76 157 302 1 31 176 486 0 157 161 127 0 +.0016 0 0 1 0 0 0 0 -1 .0035 16 314 399
 0 ?152 317 160 176 317 157 1 16 317 396 0 ?312 318 314 176 318 314 1 16 160 359
 0 ?47 314 118 161 118 118 1 17 47 0 100 112 319 45 320 160 0 312 +17 319 0 100
 47 101 54 19 9 0 320 -17 320 0 321 315 313 54 47 160 0 0 -17 312 0 308 152 50 4
5 322 317 0 117 +17 50 0 308 312 299 48 53 318 0 110 +17 322 0 323 119 117 48 31
2 317 0 0 -17 117 0 323 322 119 45 112 118 0 313 -15 323 465 0 117 324 0 17 119
 0 323 117 322 69 110 207 0 0 -17 313 0 321 320 315 45 152 314 0 0 -15 321 457 0
 315 325 0 17 315 0 321 313 320 34 56 158 0 0 -17 56 0 145 19 146 54 315 158 0 3
19 +17 19 0 145 149 56 78 319 9 0 0 +17 149 0 145 147 19 75 80 257 0 326 -17 326
 0 327 103 141 75 83 214 0 0 -15 327 60 0 285 12 0 17 103 0 327 26 326 10 77 328
 0 0 -17 141 0 327 326 285 81 89 329 0 0 -17 83 0 275 86 153 81 326 214 0 273 +1
6 214 789 0 ?83 208 329 209 328 329 1 16 329 786 0 ?89 214 286 209 214 286 1 16
 328 794 0 ?77 27 104 209 27 214 1 17 77 0 272 80 28 75 103 328 0 153 +16 27 804
 0 ?21 330 328 209 330 328 1 16 104 798 0 ?28 328 98 106 98 98 1 17 28 0 272 77
 80 10 101 104 0 97 +15 272 894 0 77 331 0 17 101 0 100 319 97 78 28 104 0 19 -1
4 331 891 332 ?0 221 272 4 215 -222 221 0 221 18 81 255 1 332 1139 333 331 334 0
 220 335 336 14 221 887 335 ?331 217 275 4 215 -331 217 331 217 18 14 222 895 33
7 ?217 99 277 4 215 -99 331 217 99 18 13 18 41 0 0 0 0 0 0 8 12 14 12 756 338 ?1
4 0 339 4 340 -0 0 14 0 18 81 1 338 1142 333 12 341 0 337 342 343 14 14 726 342
 ?150 12 100 4 5 -0 0 150 12 18 15 339 153 0 316 12 327 50 340 91 0 12 344 345 0
 +-.0016 -1990038706234005e-33 -.004041451884327385 1 0 0 0 0 -1 50 344 2 0 309
 183 340 0 +.0016 -1990038706234005e-33 -.004041451884327385 1 0 0 0 0 -1 50 345
 122 0 109 340 346 0 +.0016 -.0035 .00202072594216369 0 1 0 0 0 1 14 109 649 347
 ?309 294 107 4 345 -0 0 309 294 18 50 346 123 0 294 345 348 0 +.0016 1797421278
669945e-35 .00404145188432738 0 .5 -.866025403784439 0 .866025403784439 .5 14 29
4 665 349 ?109 291 288 4 346 -0 0 109 291 18 50 348 124 0 291 346 350 0 +.0016 .
0035 .00202072594216369 0 -.5 -.866025403784439 0 .866025403784439 -.5 14 291 68
1 351 ?294 138 289 4 348 -0 0 294 138 18 50 350 125 0 138 348 15 0 +.0016 .0035
 -.00202072594216369 0 -1 -2146163712481655e-31 0 2146163712481655e-31 -1 14 138
 697 352 ?291 150 135 4 350 -0 0 291 150 18 50 15 126 0 150 350 5 0 +.0016 -1656
21378177755e-32 -.004041451884327385 0 -.5 .866025403784439 0 -.866025403784439
 -.5 14 150 713 353 ?138 14 145 4 15 -0 0 138 14 18 81 1 353 1148 333 150 354 0
 352 355 356 80 255 1 333 357 358 9000 1 1 1 1 1 1 1 1 0 FFFFTFTFFFFFFF1 81 1 35
4 1075 359 150 0 353 360 361 362 81 1 352 1147 333 138 361 0 351 353 363 81 1 35
5 1149 333 309 364 0 353 365 366 82 255 1 356 -204341094 14 309 161 355 ?367 109
 308 4 344 +0 0 367 109 18 81 1 364 1080 359 309 0 355 368 369 370 81 1 365 1150
 333 367 369 0 355 371 372 82 1 366 -347996007 14 367 170 365 ?373 309 374 4 183
 +0 0 373 309 18 81 1 369 1081 359 367 0 365 364 375 376 81 1 371 1151 333 373 3
75 0 365 377 378 82 1 372 -366673770 14 373 466 371 ?324 367 379 4 164 +182 324
 324 367 18 81 1 375 1082 359 373 0 371 369 380 381 81 1 377 1152 333 324 380 0
 371 382 383 82 1 378 -299564903 14 324 462 377 ?301 373 323 4 164 +373 301 301
 373 18 81 1 380 1083 359 324 0 377 375 384 385 81 1 382 1153 333 301 384 0 377
 386 387 82 1 383 -299106151 14 301 458 382 ?182 324 300 4 164 +324 325 182 324
 18 81 1 384 1084 359 301 0 382 380 388 389 81 1 386 1154 333 182 388 0 382 390
 391 82 1 387 -297992039 14 182 446 386 ?155 301 306 4 164 +155 373 155 301 18 8
1 1 388 1085 359 182 0 386 384 392 393 81 1 390 1155 333 155 392 0 386 394 395 8
2 1 391 -295960423 14 155 450 390 ?325 182 154 4 164 +325 182 325 182 18 81 1 39
2 1086 359 155 0 390 388 396 397 81 1 394 1156 333 325 396 0 390 398 399 82 1 39
5 -296419175 14 325 454 394 ?224 155 321 4 164 +301 155 224 155 18 81 1 396 1087
 359 325 0 394 392 400 401 81 1 398 1157 333 224 400 0 394 402 403 82 1 399 -297
533287 14 224 903 398 ?99 325 283 4 215 -217 99 99 325 18 81 1 400 1088 359 224
 0 398 396 404 405 81 1 402 1158 333 99 404 0 398 0 406 82 1 403 -223870822 14 9
9 899 402 ?222 224 23 4 215 -224 222 222 224 18 81 1 404 1089 359 99 0 402 400 4
07 408 82 1 406 -223412070 80 1 359 0 409 8001 0 0 0 0 3 5 0 0 0 FFFFTFTFFFFFFF2
 81 1 407 1090 359 222 0 337 404 410 411 83 255 3 408 .647058823529412 .61960784
3137255 .588235294117647 81 1 337 1141 333 222 407 0 335 338 412 81 1 410 1091 3
59 217 0 220 407 413 414 83 3 411 .647058823529412 .619607843137255 .58823529411
7647 81 1 220 1138 333 217 410 0 0 332 415 81 1 413 1092 359 221 0 335 410 334 4
16 83 3 414 .647058823529412 .619607843137255 .588235294117647 81 1 335 1140 333
 221 413 0 332 337 417 81 1 334 1093 359 331 0 332 413 0 418 83 3 416 .647058823
529412 .619607843137255 .588235294117647 83 3 418 .647058823529412 .619607843137
255 .588235294117647 82 1 417 -220725094 82 1 415 -220266342 82 1 412 -222297958
 79 255 15 409 SDL/TYSA_COLOUR83 3 405 .647058823529412 .619607843137255 .588235
294117647 15 283 906 0 74 224 0 17 74 0 283 282 32 72 108 114 0 284 +17 32 0 283
 74 282 22 287 330 0 108 +16 114 809 0 ?74 31 0 116 31 31 1 17 284 0 288 297 33
 72 282 281 0 113 -17 297 0 288 295 284 66 113 120 0 298 -17 113 0 107 108 68 72
 297 120 0 0 +17 68 0 107 113 110 66 419 208 0 297 +17 110 0 107 68 71 48 119 20
7 0 419 +17 419 0 379 53 298 48 68 208 0 322 -15 379 469 0 298 373 0 17 53 0 379
 298 419 51 50 318 0 295 -17 298 0 379 419 53 66 295 200 0 0 -16 200 375 0 ?295
 193 201 194 201 201 1 16 318 393 0 ?50 302 317 176 302 317 1 16 302 390 0 ?299
 311 318 176 311 318 1 17 299 0 308 50 303 51 44 302 0 296 +16 207 379 0 ?110 20
1 208 202 208 208 1 17 287 0 327 285 26 29 32 330 0 0 -16 330 811 0 ?32 286 27 2
09 286 27 1 16 286 801 0 ?278 329 330 209 329 330 1 17 285 0 327 141 287 87 278
 286 0 0 -17 26 0 327 287 103 22 21 27 0 0 -83 3 401 .647058823529412 .619607843
137255 .588235294117647 83 3 397 .647058823529412 .619607843137255 .588235294117
647 83 3 393 .647058823529412 .619607843137255 .588235294117647 15 306 449 0 305
 182 0 83 3 389 .647058823529412 .619607843137255 .588235294117647 83 3 385 .647
058823529412 .619607843137255 .588235294117647 83 3 381 .647058823529412 .619607
843137255 .588235294117647 83 3 376 .647058823529412 .619607843137255 .588235294
117647 15 374 173 0 125 367 420 51 255 183 183 0 367 164 344 0 -.0016 0 0 -1 0 0
 .00165 0 0 1 17 125 0 374 125 125 0 421 121 0 0 +15 420 174 0 422 367 0 17 422
 0 420 422 422 0 316 126 0 0 -17 316 0 339 316 316 0 422 126 0 0 +17 421 0 310 4
21 421 0 125 121 0 0 -15 310 158 0 421 309 0 81 1 368 1079 359 109 0 347 423 364
 424 83 3 370 .647058823529412 .619607843137255 .588235294117647 81 1 347 1144 3
33 109 368 0 342 349 425 81 1 423 1078 359 294 0 349 426 368 427 83 3 424 .64705
8823529412 .619607843137255 .588235294117647 81 1 349 1145 333 294 423 0 347 351
 428 81 1 426 1077 359 291 0 351 361 423 429 83 3 427 .647058823529412 .61960784
3137255 .588235294117647 81 1 351 1146 333 291 426 0 349 352 430 81 1 361 1076 3
59 138 0 352 354 426 431 83 3 429 .647058823529412 .619607843137255 .58823529411
7647 83 3 431 .647058823529412 .619607843137255 .588235294117647 82 1 430 -20748
6822 82 1 428 -209059686 81 1 342 1143 333 14 360 0 338 347 432 82 1 425 -210632
550 81 1 360 1074 359 14 0 342 341 354 433 82 1 432 -203095910 81 1 341 1073 359
 12 0 338 0 360 434 83 3 433 .647058823529412 .619607843137255 .588235294117647
 83 3 434 .647058823529412 .619607843137255 .588235294117647 82 1 363 -205913958
 83 3 362 .647058823529412 .619607843137255 .588235294117647 79 14 358 SWEntUnch
anged82 1 343 -200343398 15 275 890 0 83 221 0 82 1 336 -221839206 17 153 0 275
 83 86 75 147 105 0 149 +17 89 0 223 92 273 87 141 329 0 276 +15 223 886 0 92 21
7 0 31 127 187 0 121 176 128 0 +.0016 0 0 1 0 0 0 0 -1 .00165 17 41 0 306 305 30
7 39 303 311 0 142 -17 307 0 306 41 305 42 62 193 0 0 -17 62 0 289 133 292 60 30
7 193 0 304 +17 133 0 289 280 62 90 304 132 0 0 +17 139 0 135 304 136 90 273 262
 0 133 -40 5 253 0 1 5 .000949915444727568 .3127820313725385 ??.0001625886269930
32 .0035 -.00553989236245442 -.001386668413983742 .0035 -.00165016336089871 -.00
158432731206498 .0035 .000436758677078952 -.000870084977701586 .0035 .0032323485
49604625 .00355629544629529 .0035 .01192807226802362 41 1 254 L?.000162588626993
032 .0035 -.00553989236245442 41 1 255 L?.00355629544629529 .0035 .0119280722680
2362 204 20 256 4 .003519166420290725 -.001437411373006968 .563460848929808 .001
76258862699303 -.0003705625812649785 -.002986668413983745 1.13022779931232 .0002
13331586016258 -.002457484619242645 -.00318432731206498 1.694942767921425 156726
8793502175e-20 ????-.01394879821018732 .00195629544629529 2.856178414919025 .005
15629544629529 40 3 247 0 1 3 .000362098978607594 .3047193125027175 ??-.00128732
593930663 -1999999999999065e-22 .00404156735438122 -.00159830020835011 .00187435
0954080265 .002959294856433305 -.001287325939306632 .0035002 .002020610472109855
 41 1 248 L?-.00128732593930663 -1999999999999065e-22 .00404156735438122 41 1 24
9 L?-.001287325939306632 .0035002 .002020610472109855 204 12 250 4 3.14164213934
1805 .0003126740606933685 -.004041682824435055 -.00288732593930663 2.57699169546
803 1699791649891995e-21 -.00187713782853923 -.00319830020835011 2.0943456166411
85 .0003126740606933675 230940107675419e-21 -.002887325939306635 40 3 239 0 1 3
 .000362098978607594 .3047193125027175 ??-.00128732593930663 -.0035002 .00202061
047210985 -.00159830020835011 -.001625649045919735 .003102882970057765 -.0012873
25939306632 200000000000059e-21 .00404156735438122 41 1 240 L?-.0012873259393066
3 -.0035002 .00202061047210985 41 1 241 L?-.001287325939306632 200000000000059e-
21 .00404156735438122 204 12 242 4 4.188839690538405 .000312674060693369 -.00404
168282443506 -.00288732593930663 3.62418924666463 1699791649891995e-21 -.0018771
37828539235 -.00319830020835011 3.14154316783778 .0003126740606933685 2309401076
75949e-21 -.00288732593930663 40 5 231 0 1 5 .000949915444727569 .31278203137253
85 ??.000162588626993035 -.0035 -.00553989236245442 -.00138666841398374 -.0035 -
.001650163360898715 -.001584327312064975 -.0035 .000436758677078952 -.0008700849
77701585 -.0035 .003232348549604625 .00355629544629529 -.0035 .01192807226802362
 41 1 232 L?.000162588626993035 -.0035 -.00553989236245442 41 1 233 L?.003556295
44629529 -.0035 .01192807226802362 204 20 234 4 5.71972445824978 .00176258862699
3035 -.00756061830461811 -.001437411373006964 5.15295750786727 .0002133315860162
6 -.003670889303062405 -.00298666841398374 4.58824253925816 156726879350235e-19
 -.001583967265084735 -.003184327312064975 ????3.427006892260565 .00515629544629
529 .00990734632585994 .00195629544629529 141 226 106 226 226 218 141 192 194 19
2 192 189 141 184 202 435 436 164 141 435 161 437 184 164 141 436 194 184 438 16
4 141 438 170 436 439 164 141 439 163 438 437 164 141 437 159 439 435 164 40 3 1
78 0 1 3 .000362098978607594 .3047193125027175 ??.00128732593930663 199999999998
1235e-22 -.00404156735438122 .001598300208350105 -.00187435095408027 -.002959294
85643331 .00128732593930663 -.0035002 -.002020610472109855 41 1 179 L?.001287325
93930663 1999999999981235e-22 -.00404156735438122 41 1 180 L?.00128732593930663
 -.0035002 -.002020610472109855 204 12 181 4 6.28313582142758 .00031267406069337
 -.004041682824435055 -.0003126740606933705 .564600958121762 169979164989425e-20
 -.00187713782853923 -1699791649894265e-21 1.04724703694861 .00031267406069337 2
30940107676604e-21 -.00031267406069337 40 5 172 0 1 5 .000949915444727568 .31278
20313725385 ??-.000162588626993032 .0035 -.00553989236245442 .001386668413983742
 .0035 -.00165016336089871 .00158432731206498 .0035 .000436758677078952 .0008700
84977701586 .0035 .003232348549604625 -.00355629544629529 .0035 .011928072268023
62 41 1 173 L?-.000162588626993032 .0035 -.00553989236245442 41 1 174 L?-.003556
29544629529 .0035 .01192807226802362 204 20 175 4 .003519166420290725 -.00176258
862699303 5.71972445824978 .00176258862699303 -.0003705625812649785 -.0002133315
860162575 5.15295750786727 .000213331586016258 -.002457484619242645 -15672687935
02165e-20 4.58824253925816 1567268793502175e-20 ????-.01394879821018732 -.005156
29544629529 3.427006892260565 .00515629544629529 19 13 135 0 1 0 8 4 S0 74 4 CI1
6 index_map_offset0 0 1 dCCZ20 11 2 0 0 402 334 0 0 0 0 0 0 0 0 0 0 0 0 0 0 0 0
 0 0 1 0 
