**ABCDEFGHIJKLMNOPQRSTUVWXYZabcdefghijklmnopqrstuvwxyz**************************
**PARASOLID !"#$%&'()*+,-./:;<=>?@[\]^_`{|}~0123456789**************************
**PART1;
MC=AMD64;
MC_MODEL=Intel64 Family 6 Model 15 Stepping 11, GenuineIntel;
MC_ID=unknown;
OS=Windows_NT;
OS_RELEASE=unknown;
FRU=Parasolid Version 30.0, build 226,  7-26-2017;
APPL=SOLIDWORKS 2018-2017278;
SITE=;
USER=unknown;
FORMAT=text;
GUISE=transmit;
KEY=Nut DIN 985 - M3;
FILE=Nut DIN 985 - M3.x_t;
DATE=Fri Apr 17 15:15:49 2020;
**PART2;
SCH=SCH_3000226_30000;
USFLD_SIZE=0;
**PART3;
**END_OF_HEADER*****************************************************************
T51 : TRANSMIT FILE created by modeller version 300022623 SCH_3000226_30000_1300
6205 0 12 33 CCCCCCI4 mesh1006 0 I8 polyline1008 0 CCCCCCCDI5 owner1040 0 CCCCCC
I13 boundary_mesh1006 0 I17 boundary_polyline1008 0 CCCA16 index_map_offset0 0 1
 dA9 index_map82 0 A17 node_id_index_map82 0 A20 schema_embedding_map82 0 A5 chi
ld12 0 A14 lowest_node_id0 0 1 dZ1 1053 0 2 0 0 0 0 0 0 1e3 1e-8 0 3 0 1 0 1 1 4
 5 6 7 0 0 8 9 10 0 0 0 0 0 0 70 11 CI9 list_type0 0 1 uI10 notransmit0 0 1 lCCC
DCCDI12 finger_index0 0 1 dI12 finger_block1012 0 CZ2 0 4 T1 0 0 2 20 1 11 11 13
 255 4 134 0 1 0 12 0 0 13 0 50 255 5 127 0 12 14 0 15 +-.004 .00158771324027147
5 -.00275 0 .866025403784439 -.5 0 .5 .866025403784439 38 12 CCCCCCCCCCCA17 inte
rsection_data204 0 Z6 615 0 16 17 0 0 +14 18 19 20 21 22 29 255 7 608 0 10 23 0
 -.00215437990693814 .00158771324027147 .00275 19 8 CCCCCCCA5 owner12 0 Z8 40 0
 1 13 0 24 V0 16 255 9 616 0 ?25 0 16 6 16 16 1 18 255 10 606 0 26 0 27 7 ?1 17
 255 26 0 28 29 30 10 31 32 0 33 -18 27 549 0 34 10 35 23 ?1 17 34 0 36 37 38 27
 39 40 0 41 +18 35 533 0 42 27 43 44 ?1 29 23 552 0 27 44 7 -2971568469691925e-3
5 .00238156986040721 -.001375 29 44 535 0 35 45 23 0 -563666811132252e-34 -.0027
5 29 45 220 0 43 46 44 -.000245620093061859 .003175426480542945 838965652663176e
-33 18 43 218 0 47 35 48 45 ?1 29 46 514 0 48 49 45 -.000245620093061859 -.00158
771324027147 -.00275 18 48 387 0 50 43 51 46 ?1 29 49 515 0 51 52 46 -.000245620
093061859 .00158771324027148 -.00275 18 51 392 0 53 48 54 49 ?1 29 52 517 0 54 5
5 49 -.000245620093061859 .001587713240271475 .00275 18 54 390 0 56 51 57 52 ?1
 29 55 518 0 57 58 52 -.000245620093061859 -.00158771324027147 .00275 18 57 389
 0 59 54 60 55 ?1 29 58 519 0 60 61 55 -.000245620093061859 -.003175426480542945
 -1517883041479705e-33 18 60 388 0 62 57 63 58 ?1 29 61 520 0 63 64 58 297156846
9691925e-35 -.00238156986040721 -.001375 18 63 376 0 65 60 66 61 ?1 29 64 523 0
 66 67 61 -2971568469691925e-35 .00238156986040721 .001375 18 66 386 0 68 63 69
 64 ?1 29 67 524 0 69 70 64 0 499094067168593e-34 .00275 18 69 383 0 71 66 72 67
 ?1 29 70 525 0 72 73 67 2971568469691925e-35 -.002381569860407205 .001375 18 72
 377 0 74 69 75 70 ?1 29 73 857 0 75 76 70 -.0024 -.00238156986040721 -.001375 1
8 75 738 0 77 72 78 73 ?1 29 76 858 0 78 79 73 -.0024 3955424123710325e-34 -.002
75 18 78 736 0 80 75 81 76 ?1 29 79 859 0 81 82 76 -.0024 .00238156986040721 -.0
01375 18 81 733 0 83 78 84 79 ?1 29 82 860 0 84 85 79 -.0024 .00238156986040721
 .001375 18 84 756 0 29 81 86 82 ?1 29 85 861 0 86 87 82 -.0024 199637626867437e
-34 .00275 18 86 742 0 88 84 89 85 ?1 29 87 862 0 89 90 85 -.0024 -.002381569860
407205 .001375 18 89 740 0 91 86 92 87 ?1 29 90 869 0 92 93 87 -.002154379906938
14 -.00158771324027147 -.00275 18 92 745 0 94 89 95 90 ?1 29 93 870 0 95 96 90 -
.00215437990693814 .00158771324027148 -.00275 18 95 746 0 97 92 98 93 ?1 29 96 8
71 0 98 99 93 -.00215437990693814 .003175426480542945 1084202172485504e-33 18 98
 748 0 100 95 101 96 ?1 29 99 873 0 101 102 96 -.00215437990693814 -.00158771324
027147 .00275 18 101 744 0 103 98 104 99 ?1 29 102 874 0 104 0 99 -.002154379906
93814 -.003175426480542945 -1517883041479705e-33 18 104 743 0 105 101 0 102 ?1 1
7 105 0 106 91 107 104 108 109 0 110 -15 255 106 777 0 91 111 0 17 91 0 106 107
 105 89 110 112 0 113 -17 107 0 106 105 91 75 113 114 0 115 -17 108 0 116 117 11
8 75 105 109 0 0 +16 109 699 0 ?108 119 120 121 120 120 1 17 110 0 122 62 123 10
4 91 112 0 118 +15 122 114 0 124 125 0 17 62 0 122 126 110 60 118 127 0 128 +17
 123 0 122 110 124 89 103 129 0 0 +16 112 698 0 ?110 120 130 131 129 129 1 17 11
8 0 116 108 132 104 62 127 0 0 -15 116 112 0 118 133 0 17 132 0 116 118 134 60 1
35 136 0 0 +16 127 638 0 ?62 137 138 139 0 0 1 16 137 651 0 ?50 140 127 141 0 0
 1 16 138 625 0 ?59 127 142 143 0 0 1 30 255 139 130 0 127 141 143 0 +-.004 -.00
317542648054294 96774949962904e-32 1 0 0 30 141 129 0 137 144 139 0 +-.004 -.001
587713240271475 -.00275 1 0 0 30 143 131 0 138 139 145 0 +-.004 -.00158771324027
147 .00275 1 0 0 30 145 132 0 142 143 146 0 +-.004 .00158771324027147 .00275 1 0
 0 16 142 607 0 ?56 138 147 145 0 0 1 30 146 133 0 147 145 17 0 +-.004 .00317542
6480542945 838965652663176e-33 1 0 0 16 147 610 0 ?47 142 148 146 0 0 1 38 17 22
6 0 149 146 6 0 +14 150 151 152 153 154 16 149 224 0 ?155 156 140 17 156 156 1 5
0 14 126 0 157 158 5 159 +-.004 .003175426480542945 838965652663176e-33 0 .86602
5403784439 .5 0 -.5 .866025403784439 52 255 150 487 0 160 161 162 163 +-.0002456
20093061859 46844718436245e-33 0 -1 -124773516792148e-31 0 .003175426480542945 .
866025403784442 .499999999999994 124773516792148e-31 -1 0 40 255 3 151 0 1 3 .00
0284508127296379 .304717475405428 ??-.000245686763364757 .001587597770217635 .00
27502 -133463874723834e-20 .002437960208520985 .00127732905201044 -.000245686763
364757 .00317554195059678 -1999999999989895e-22 41 3 CI8 term_use0 0 1 cCZ1 152
 L?-.000245686763364757 .001587597770217635 .0027502 41 1 153 L?-.00024568676336
4757 .00317554195059678 -1999999999989895e-22 204 2 17 INTERSECTION_DATA17 Inter
section data7 uv_type0 0 1 u6 values0 1 1 fT12 154 4 .00317565742065062 .0037543
13236635245 2.09433212101778 666703028982885e-22 .001474932544043914 .0039986653
61252765 2.65898207099548 -.0002442854543146205 -230940107675548e-21 .0037543132
36635245 3.141655634965205 666703028977877e-22 14 255 160 480 164 ?165 166 167 4
 150 +166 165 165 166 24 54 255 161 832 0 168 169 150 0 +-.0032 0 0 -1 -12477351
6792148e-31 0 .00195 8e-4 124773516792148e-31 -1 0 51 255 162 210 0 170 150 171
 0 --.00812199341312805 -514315614350057e-34 0 -1 -124773516792148e-31 0 .00125
 124773516792148e-31 -1 0 141 255 163 17 172 173 150 141 172 174 175 163 150 141
 173 176 163 177 150 38 176 504 0 178 179 180 0 +158 150 181 182 183 184 141 177
 180 173 185 150 38 180 503 0 186 176 187 0 +188 150 189 190 191 192 141 185 187
 177 175 150 38 187 502 0 136 180 193 0 +194 150 195 196 197 198 141 175 193 185
 172 150 38 193 501 0 199 187 174 0 -150 200 201 202 203 204 16 199 358 0 ?205 2
06 207 193 206 206 1 38 174 500 0 208 193 209 0 +5 150 210 211 212 213 50 200 12
2 0 214 215 194 216 +-.004 -.001587713240271475 -.00275 0 1365740544306506e-31 -
1 0 1 1365740544306506e-31 40 4 201 0 1 4 .000470590535539334 .3142280830538955
 ??-.001315948914089764 -.004210850474667745 -.00275 -.0001414762402202504 -.001
18650275108393 -.00275 -1947829130969075e-20 .0004320808460908965 -.00275 -.0006
32712829223347 .00268856388993767 -.00275 41 1 202 L?-.001315948914089764 -.0042
10850474667745 -.00275 41 1 203 L?-.000632712829223347 .00268856388993767 -.0027
5 204 16 204 4 5.70465163129074 .001070328821027904 -.00262313723439627 .0026840
51085910235 5.11971480195582 -.000104143852841608 .000401210489187544 .003858523
75977975 4.55654278512099 -.000226141801752168 .00201979408636237 .0039805217086
9031 3.938286721246705 .0003870927361614885 .004276277130209145 .003367287170776
655 14 214 671 217 ?133 12 218 4 200 +0 0 133 12 24 50 215 91 0 219 171 200 0 +0
 0 0 1 0 0 0 0 -1 50 194 123 0 133 200 188 220 +-.004 -.00317542648054294 967749
49962904e-32 0 -.866025403784439 -.5 0 .5 -.866025403784439 141 216 193 221 221
 200 141 221 222 216 216 200 38 222 841 0 223 131 121 0 +200 18 224 225 226 227
 16 223 705 0 ?228 130 129 222 130 130 1 38 131 842 0 129 229 222 0 +188 18 230
 231 232 233 38 121 840 0 120 222 179 0 +194 18 234 235 236 237 52 18 834 0 238
 0 169 239 +-.0024 199637626867437e-34 0 1 124773516792148e-31 0 .00275 .8660254
03784442 .5 -124773516792148e-31 1 0 40 4 224 0 1 4 .000470590535539336 .3142280
830538965 ??-.001084051085910232 -.004210850474667745 -.00275 -.0022585237597797
5 -.001186502751083928 -.00275 -.00238052170869031 .000432080846090897 -.00275 -
.001767287170776655 .002688563889937665 -.00275 41 1 225 L?-.001084051085910232
 -.004210850474667745 -.00275 41 1 226 L?-.001767287170776655 .00268856388993766
5 -.00275 204 16 227 4 -.00262313723439627 .00291594891408977 3.72012632947864 .
001315948914089768 .0004012104891875455 .00174147624022025 4.305063158813565 .00
01414762402202508 .00201979408636237 .00161947829130969 4.86823517564839 1947829
13096908e-19 .004276277130209135 .002232712829223345 5.48649123952267 .000632712
829223346 14 238 824 240 ?0 168 28 4 18 +111 241 0 168 24 51 169 833 0 242 18 16
1 0 +-.00812199341312805 -514315614350057e-34 0 -1 -124773516792148e-31 0 .00275
 124773516792148e-31 -1 0 141 239 6 243 244 18 141 243 121 245 239 18 141 244 24
6 239 247 18 38 246 844 0 32 248 229 0 -18 158 249 250 251 252 141 247 229 244 2
53 18 38 229 843 0 254 246 131 0 +5 18 255 256 257 258 141 253 131 247 245 18 14
1 245 222 253 243 18 16 254 711 0 ?259 260 32 229 260 260 1 40 3 255 0 1 3 .0002
845081272963795 .304717475405429 ??-.002154313236635245 .001587597770217635 -.00
27502 -.002398665361252765 .002437960208520985 -.001277329052010438 -.0021543132
36635245 .00317554195059678 200000000000793e-21 41 1 256 L?-.002154313236635245
 .001587597770217635 -.0027502 41 1 257 L?-.002154313236635245 .0031755419505967
8 200000000000793e-21 204 12 258 4 -2309401076760115e-22 .001845686763364755 5.2
3592477460758 .000245686763364756 .001700493936499025 .00160133463874724 5.80057
472458527 1334638747238136e-21 .003175657420650615 .00184568676336476 6298137541
49157e-19 .0002456867633647575 17 259 0 261 47 262 98 83 254 0 263 +16 260 706 0
 ?262 264 254 229 254 254 1 16 32 731 0 ?31 254 265 246 264 264 1 17 31 0 266 26
7 268 86 26 32 0 0 +16 265 727 0 ?269 32 270 248 0 0 1 16 264 707 0 ?267 129 260
 246 32 32 1 17 267 0 266 59 31 101 88 264 0 124 +16 129 708 0 ?123 223 264 131
 112 112 1 15 266 116 0 268 271 0 17 59 0 266 272 267 57 124 138 0 273 +17 88 0
 274 275 103 86 267 264 0 30 -17 124 0 122 123 276 101 59 138 0 0 -17 276 0 122
 124 126 57 277 186 0 0 +17 126 0 122 276 62 72 128 278 0 279 +17 277 0 280 71 2
73 72 276 186 0 126 -16 186 364 0 ?276 278 281 180 278 278 1 16 278 362 0 ?126 1
36 186 180 186 186 1 16 281 365 0 ?272 186 178 176 178 178 1 17 272 0 266 282 59
 69 273 281 0 283 +16 178 373 0 ?282 281 284 176 281 281 1 17 282 0 266 268 272
 54 285 178 0 0 +16 284 338 0 ?71 178 286 179 119 286 1 17 71 0 280 273 277 69 2
79 284 0 285 +16 286 369 0 ?68 284 40 179 284 40 1 31 255 179 507 0 284 121 176
 0 +0 499094067168593e-34 0 -1 -124773516792148e-31 0 124773516792148e-31 -1 0 .
00275 16 119 329 0 ?74 287 109 179 287 284 1 17 74 0 288 128 135 72 289 119 0 27
7 +16 287 330 0 ?65 290 119 179 290 119 1 17 65 0 291 292 293 63 294 287 0 135 +
16 290 333 0 ?295 40 287 179 40 287 1 17 295 0 296 297 41 35 298 290 0 294 +16 4
0 339 0 ?34 286 290 179 286 290 1 15 296 452 0 295 299 0 17 297 0 296 41 295 51
 42 206 0 300 -17 41 0 296 295 297 27 300 208 0 301 -17 298 0 302 39 294 27 295
 290 0 0 -17 294 0 302 298 289 35 65 287 0 0 -15 302 60 0 294 219 0 17 289 0 302
 294 279 63 74 119 0 0 -17 279 0 302 289 283 72 71 284 0 0 -17 283 0 302 279 39
 69 68 286 0 0 -17 39 0 302 283 298 66 34 40 0 0 -17 68 0 167 303 285 66 283 286
 0 38 +15 167 482 0 68 160 0 17 303 0 167 285 68 54 304 156 0 282 -17 285 0 167
 68 303 69 282 178 0 272 -17 38 0 36 34 37 66 155 149 0 304 -15 36 446 0 38 166
 0 17 37 0 36 38 34 43 301 305 0 155 -17 155 0 306 263 304 43 38 149 0 0 +17 304
 0 306 155 56 66 303 156 0 39 +15 306 118 0 263 157 0 17 56 0 306 304 33 54 268
 142 0 303 +16 156 229 0 ?304 16 149 17 149 149 1 16 16 613 0 ?33 9 156 6 9 9 1
 17 33 0 306 56 25 10 29 16 0 268 +17 25 0 306 33 263 84 100 9 0 0 +17 29 0 28 3
0 26 84 33 16 0 307 -17 268 0 266 31 282 10 56 142 0 0 -15 28 826 0 29 238 0 17
 30 0 28 26 29 86 308 309 0 310 -17 307 0 311 100 83 84 312 313 0 308 -15 311 80
1 0 307 241 0 17 100 0 311 83 307 98 25 9 0 259 -17 83 0 311 307 100 81 259 254
 0 314 -17 312 0 315 316 308 81 307 313 0 262 +16 313 710 0 ?312 309 317 318 309
 317 1 17 308 0 315 312 310 84 30 309 0 25 +15 315 759 0 312 242 0 17 310 0 315
 308 113 86 275 319 0 31 +16 309 732 0 ?308 319 313 318 319 313 1 16 319 709 0 ?
310 270 309 318 114 309 1 31 318 855 0 319 0 320 0 +-.0024 199637626867437e-34 0
 -1 -124773516792148e-31 0 124773516792148e-31 -1 0 .00275 31 320 854 0 270 318
 248 0 +-.0032 998188134337186e-35 0 -1 -124773516792148e-31 0 124773516792148e-
31 -1 0 .00275 16 270 689 0 ?321 265 319 320 0 0 1 31 248 853 0 265 320 246 0 +-
.004 601853107621011e-50 0 -1 -124773516792148e-31 0 124773516792148e-31 -1 0 .0
0195 17 321 0 322 321 321 0 323 270 0 0 +15 322 819 0 321 168 324 17 323 0 325 3
23 323 0 321 270 0 0 -15 325 888 0 323 242 315 14 242 757 326 ?111 299 325 4 169
 +0 0 111 299 24 81 255 1 326 1034 327 242 328 0 240 329 330 14 111 775 329 ?331
 242 106 4 18 +331 238 331 242 24 14 299 450 332 ?242 333 296 4 150 +333 166 242
 333 24 13 24 41 0 0 0 0 0 0 8 12 14 12 681 334 ?214 0 261 4 5 +0 0 214 0 24 81
 1 334 1037 327 12 335 0 332 336 337 15 261 120 0 338 12 0 17 338 0 261 262 300
 95 53 140 0 0 -17 262 0 261 259 338 81 97 260 0 0 +17 300 0 261 338 301 51 41 2
08 0 0 +17 53 0 218 42 228 51 338 140 0 297 +16 140 664 0 ?53 149 137 144 0 0 1
 30 144 128 0 140 339 141 0 +-.004 .001587713240271475 -.00275 1 0 0 31 339 212
 0 148 209 144 0 +-.004 601853107621011e-50 0 -1 -124773516792148e-31 0 12477351
6792148e-31 -1 0 .00125 16 148 195 0 ?340 147 341 339 0 0 1 31 209 213 0 341 174
 339 0 +0 499094067168593e-34 0 -1 -124773516792148e-31 0 124773516792148e-31 -1
 0 .00125 16 341 196 0 ?342 148 305 209 0 0 1 17 342 0 343 342 342 0 344 341 0 0
 +16 305 353 0 ?301 341 208 174 208 208 1 17 301 0 261 300 47 27 37 305 0 298 +1
6 208 355 0 ?300 305 206 174 305 305 1 16 206 356 0 ?42 208 199 193 199 199 1 17
 42 0 218 205 53 35 297 206 0 293 +15 218 110 0 345 214 0 17 205 0 218 345 42 48
 293 199 0 0 +17 293 0 291 65 292 35 205 199 0 295 -15 291 458 0 65 333 0 17 292
 0 291 293 65 48 134 207 0 205 -17 134 0 116 132 50 63 292 207 0 289 +16 207 359
 0 ?134 199 136 187 136 136 1 16 136 361 0 ?132 207 278 187 207 207 1 17 50 0 11
6 134 117 48 345 137 0 292 +17 117 0 116 50 108 92 77 120 0 345 +17 345 0 218 34
6 205 92 50 137 0 0 -17 346 0 218 228 345 78 94 130 0 0 +17 228 0 218 53 346 95
 80 223 0 338 +17 94 0 347 77 348 92 346 130 0 117 -16 130 703 0 ?346 112 223 22
2 223 223 1 15 347 786 0 348 331 0 17 77 0 347 348 94 75 117 120 0 107 -17 348 0
 347 94 77 78 115 349 0 316 -17 115 0 315 113 316 75 348 349 0 108 +16 349 701 0
 ?115 317 114 318 317 114 1 17 316 0 315 115 312 78 314 317 0 346 +17 314 0 350
 97 80 81 316 317 0 312 -16 317 704 0 ?316 313 349 318 313 349 1 15 350 789 0 31
4 351 0 17 97 0 350 80 314 95 262 260 0 228 -17 80 0 350 314 97 78 228 223 0 348
 -14 351 787 336 ?352 331 350 4 18 +352 331 352 331 24 81 1 336 1038 327 351 353
 0 334 354 355 14 352 796 354 ?241 351 274 4 18 +241 351 241 351 24 14 331 784 3
56 ?351 111 347 4 18 +351 111 351 111 24 81 1 356 1040 327 331 357 0 354 358 359
 80 255 1 327 360 361 9000 1 1 1 1 1 1 1 1 0 FFFFTFTFFFFFFF1 81 1 357 977 362 33
1 0 356 363 353 364 81 1 354 1039 327 352 365 0 336 356 366 81 1 358 1041 327 33
3 367 0 356 368 369 82 255 1 359 1238171760 14 333 456 358 ?299 370 291 4 150 +3
70 299 299 370 24 81 1 367 973 362 333 0 358 371 372 373 81 1 368 1042 327 370 3
71 0 358 374 375 82 1 369 1196425328 14 370 462 368 ?333 165 288 4 150 +165 333
 333 165 24 81 1 371 972 362 370 0 368 376 367 377 81 1 374 1043 327 165 376 0 3
68 378 379 82 1 375 1195573360 14 165 468 374 ?370 160 280 4 150 +160 370 370 16
0 24 81 1 376 971 362 165 0 374 380 371 381 81 1 378 1044 327 166 382 0 374 383
 384 82 1 379 1194721392 14 166 444 378 ?160 170 36 4 150 +299 160 160 170 24 81
 1 382 969 362 166 0 378 385 380 386 81 1 383 1045 327 170 385 0 378 387 388 82
 1 384 1198129264 14 170 200 383 ?166 389 390 4 162 +0 0 166 389 24 81 1 385 968
 362 170 0 383 391 382 392 81 1 387 1046 327 389 391 0 383 393 394 82 1 388 1167
655024 14 389 191 387 ?170 219 395 4 171 -0 0 170 219 24 81 1 391 967 362 389 0
 387 396 385 397 81 1 393 1047 327 219 396 0 387 398 399 82 1 394 1188233328 14
 219 323 393 ?389 157 343 4 215 +0 0 389 157 24 81 1 396 966 362 219 0 393 400 3
91 401 81 1 398 1048 327 157 400 0 393 402 403 82 1 399 1217069168 14 157 618 39
8 ?219 271 306 4 14 +0 0 219 271 24 81 1 400 965 362 157 0 398 404 396 405 81 1
 402 1049 327 271 404 0 398 406 407 82 1 403 1232797808 14 271 632 402 ?157 125
 266 4 158 +0 0 157 125 24 81 1 404 964 362 271 0 402 408 400 409 81 1 406 1050
 327 125 408 0 402 410 411 82 1 407 1243349104 14 125 645 406 ?271 133 122 4 188
 +0 0 271 133 24 81 1 408 963 362 125 0 406 412 404 413 81 1 410 1051 327 133 41
2 0 406 414 415 82 1 411 1244725360 14 133 658 410 ?125 214 116 4 194 +0 0 125 2
14 24 81 1 412 962 362 133 0 410 416 408 417 81 1 414 1052 327 168 418 0 410 419
 420 82 1 415 1246101616 14 168 817 414 ?238 241 322 4 161 +0 0 238 241 24 81 1
 418 981 362 168 0 414 421 422 423 81 1 419 1053 327 241 421 0 414 0 424 82 1 42
0 1181810800 14 241 799 419 ?168 352 311 4 18 +238 352 168 352 24 81 1 421 980 3
62 241 0 419 365 418 425 82 1 424 1236009072 80 1 362 0 426 8001 0 0 0 0 3 5 0 0
 0 FFFFTFTFFFFFFF2 81 1 365 979 362 352 0 354 353 421 427 83 255 3 425 .64705882
3529412 .619607843137255 .584313725490196 81 1 353 978 362 351 0 336 357 365 428
 83 3 427 .647058823529412 .619607843137255 .584313725490196 83 3 428 .647058823
529412 .619607843137255 .584313725490196 79 255 15 426 SDL/TYSA_COLOUR81 1 422 9
82 362 238 0 240 418 0 429 83 3 423 .647058823529412 .619607843137255 .584313725
490196 81 1 240 1033 327 238 422 0 217 326 430 83 3 429 .647058823529412 .619607
843137255 .584313725490196 81 1 217 1032 327 214 416 0 164 240 431 82 1 430 1180
631152 81 1 416 961 362 214 0 217 335 412 432 81 1 164 1031 327 160 380 0 0 217
 433 82 1 431 1247477872 81 1 380 970 362 160 0 164 382 376 434 82 1 433 1173487
728 83 3 434 .647058823529412 .619607843137255 .584313725490196 81 1 335 960 362
 12 0 334 0 416 435 83 3 432 .647058823529412 .619607843137255 .584313725490196
 83 3 435 .647058823529412 .619607843137255 .584313725490196 83 3 417 .647058823
529412 .619607843137255 .584313725490196 83 3 413 .647058823529412 .619607843137
255 .584313725490196 50 188 124 0 125 194 158 436 +-.004 -.00158771324027147 .00
275 0 -.866025403784439 .5 0 -.5 -.866025403784439 50 158 125 0 271 188 14 437 +
-.004 .00158771324027147 .00275 0 0 1 1 0 0 141 436 180 438 438 188 141 438 131
 436 436 188 141 437 176 439 439 158 141 439 246 437 437 158 83 3 409 .647058823
529412 .619607843137255 .584313725490196 83 3 405 .647058823529412 .619607843137
255 .584313725490196 83 3 401 .647058823529412 .619607843137255 .584313725490196
 15 343 182 0 342 219 302 83 3 397 .647058823529412 .619607843137255 .5843137254
90196 15 395 601 0 269 389 440 50 171 2 0 389 162 215 0 +-.004 0 0 1 0 0 0 0 -1
 17 269 0 395 269 269 0 441 265 0 0 +15 440 189 0 442 389 0 17 442 0 440 442 442
 0 340 148 0 0 -17 340 0 390 340 340 0 442 148 0 0 +15 390 202 0 340 170 443 15
 443 203 0 344 170 0 17 344 0 443 344 344 0 342 341 0 0 -17 441 0 324 441 441 0
 269 265 0 0 -15 324 820 0 441 168 0 83 3 392 .647058823529412 .619607843137255
 .584313725490196 83 3 386 .647058823529412 .619607843137255 .584313725490196 83
 3 381 .647058823529412 .619607843137255 .584313725490196 15 280 470 0 71 165 0
 83 3 377 .647058823529412 .619607843137255 .584313725490196 15 288 464 0 74 370
 0 81 1 372 974 362 299 0 332 367 328 444 83 3 373 .647058823529412 .61960784313
7255 .584313725490196 81 1 332 1036 327 299 372 0 329 334 445 81 1 328 975 362 2
42 0 326 372 363 446 83 3 444 .647058823529412 .619607843137255 .584313725490196
 81 1 363 976 362 111 0 329 328 357 447 83 3 446 .647058823529412 .6196078431372
55 .584313725490196 81 1 329 1035 327 111 363 0 326 332 448 83 3 447 .6470588235
29412 .619607843137255 .584313725490196 82 1 448 1239416944 82 1 445 1197277296
 82 1 366 1236467824 83 3 364 .647058823529412 .619607843137255 .584313725490196
 79 14 361 SWEntUnchanged15 274 798 0 88 352 0 82 1 355 1237713008 16 114 700 0
 ?113 349 0 318 349 319 1 17 113 0 315 310 115 89 107 114 0 275 +17 275 0 274 10
3 88 89 310 319 0 123 -17 103 0 274 88 275 101 123 129 0 267 -16 120 702 0 ?117
 109 112 121 109 109 1 17 47 0 261 301 259 43 263 147 0 37 +17 263 0 306 25 155
 98 47 147 0 0 -82 1 337 1248526448 82 1 330 1242300528 17 135 0 288 74 128 63 1
32 136 0 134 -17 128 0 288 135 74 60 126 278 0 132 -17 273 0 280 277 71 57 272 2
81 0 276 -40 4 249 0 1 4 .000470590358222247 .31422792189331 ??-.001084051560397
08 -.004210849493096755 .00275 -.00225852379040091 -.001186502617203596 .00275 -
.00238052176056826 .00043208026718633 .00275 -.00176728755800251 .00268856293053
35 .00275 41 1 250 L?-.00108405156039708 -.004210849493096755 .00275 41 1 251 L?
-.00176728755800251 .0026885629305335 .00275 204 16 252 4 2.56305887098212 .0013
1594843960292 .00291594843960292 -.00579856273336823 1.978122107322645 .00014147
62095990904 .00174147620959909 -.00277421585747507 1.41495033697032 194782394317
418e-19 .00161947823943174 -.001155632973085142 .79669424603458 .000632712441997
492 .00223271244199749 .001100849690262026 40 3 234 0 1 3 .0002845081272963795 .
304717475405429 ??-.002154313236635245 -.00317554195059678 2000000000010495e-22
 -.002398665361252765 -.00232517951229343 -.00147267094798956 -.0021543132366352
45 -.001587597770217635 -.0027502 41 1 235 L?-.002154313236635245 -.003175541950
59678 2000000000010495e-22 41 1 236 L?-.002154313236635245 -.001587597770217635
 -.0027502 204 12 237 4 -2309401076759845e-22 .001845686763364755 3.141529672214
38 .000245686763364757 .00170049393649903 .00160133463874724 3.706179622192075 1
334638747237636e-21 .003175657420650615 .001845686763364755 4.188853186161805 .0
00245686763364756 40 3 230 0 1 3 .0002845081272963795 .3047174754054295 ??-.0021
54313236635245 -.001587597770217635 .0027502 -.002398665361252765 -.002437960208
520985 .00127732905201044 -.002154313236635245 -.00317554195059678 -199999999999
301e-21 41 1 231 L?-.002154313236635245 -.001587597770217635 .0027502 41 1 232 L
?-.002154313236635245 -.00317554195059678 -199999999999301e-21 204 12 233 4 -230
9401076760115e-22 .001845686763364755 2.09433212101778 .0002456867633647575 .001
70049393649903 .00160133463874724 2.65898207099548 1334638747237636e-21 .0031756
5742065062 .001845686763364755 3.14165563496521 .000245686763364757 141 220 187
 449 449 194 141 449 121 220 220 194 40 3 210 0 1 3 .0002845081272963785 .304717
475405428 ??-.0002456867633647565 .00317554195059678 2000000000007315e-22 -13346
38747237832e-21 .00232517951229343 -.00147267094798956 -.000245686763364755 .001
587597770217635 -.0027502 41 1 211 L?-.0002456867633647565 .00317554195059678 20
00000000007315e-22 41 1 212 L?-.000245686763364755 .001587597770217635 -.0027502
 204 12 213 4 .003175657420650615 .003754313236635245 3.14152967221438 666703028
977877e-22 .001474932544043912 .003998665361252765 3.706179622192075 -.000244285
454314621 -230940107675903e-21 .003754313236635245 4.188853186161805 66670302896
5358e-22 40 3 195 0 1 3 .000284508127296378 .304717475405428 ??-.000245686763364
7555 -.001587597770217635 -.0027502 -1334638747237814e-21 -.002437960208520985 -
.00127732905201044 -.000245686763364756 -.00317554195059678 2000000000009865e-22
 41 1 196 L?-.0002456867633647555 -.001587597770217635 -.0027502 41 1 197 L?-.00
0245686763364756 -.00317554195059678 2000000000009865e-22 204 12 198 4 .00317565
7420650615 .003754313236635245 5.23592477460758 666703028965358e-22 .00147493254
4043912 .003998665361252765 5.80057472458527 -.000244285454314621 -2309401076759
3e-20 .003754313236635245 629813754149766e-19 666703028972869e-22 40 3 189 0 1 3
 .0002845081272963785 .304717475405428 ??-.000245686763364756 -.0031755419505967
8 -199999999998929e-21 -133463874723787e-20 -.00232517951229343 .001472670947989
56 -.0002456867633647565 -.001587597770217635 .0027502 41 1 190 L?-.000245686763
364756 -.00317554195059678 -199999999998929e-21 41 1 191 L?-.0002456867633647565
 -.001587597770217635 .0027502 204 12 192 4 .00317565742065062 .0037543132366352
45 6.28312232580417 666703028970365e-22 .001474932544043914 .003998665361252765
 .564586968602283 -.000244285454314621 -2309401076760115e-22 .003754313236635245
 1.047260532572012 666703028977877e-22 40 4 181 0 1 4 .000470590358222246 .31422
7921893309 ??-.001315948439602916 -.004210849493096755 .00275 -.0001414762095990
898 -.001186502617203596 .00275 -1947823943174175e-20 .0004320802671863295 .0027
5 -.000632712441997493 .002688562930533505 .00275 41 1 182 L?-.00131594843960291
6 -.004210849493096755 .00275 41 1 183 L?-.000632712441997493 .00268856293053350
5 .00275 204 16 184 4 .002684051560397085 -.00579856273336823 .578533782607675 .
001070328346541056 .00385852379040091 -.00277421585747507 1.163470546267146 -.00
0104143883462769 .00398052176056826 -.001155632973085142 1.72664231661947 -.0002
26141853630117 .00336728755800251 .001100849690262034 2.344898407555215 .0003870
92348935634 141 159 17 450 450 14 141 450 6 159 159 14 19 13 135 0 1 0 8 4 S0 40
 3 19 0 1 3 .0002845081272963795 .304717475405429 ??-.002154313236635245 .003175
54195059678 -1999999999991925e-22 -.00239866536125276 .00232517951229343 .001472
67094798956 -.002154313236635245 .001587597770217635 .0027502 41 1 20 L?-.002154
313236635245 .00317554195059678 -1999999999991925e-22 41 1 21 L?-.00215431323663
5245 .001587597770217635 .0027502 204 12 22 4 -2309401076759405e-22 .00184568676
336476 6.28312232580417 .0002456867633647575 .00170049393649903 .001601334638747
24 .564586968602283 1334638747238388e-21 .00317565742065062 .00184568676336476 1
.047260532572012 .0002456867633647575 141 15 174 451 451 5 141 451 229 15 15 5 7
4 4 CI16 index_map_offset0 0 1 dCCZ20 11 2 0 0 419 422 0 0 0 0 0 0 0 0 0 0 0 0 0
 0 0 0 0 0 1 0 
