**ABCDEFGHIJKLMNOPQRSTUVWXYZabcdefghijklmnopqrstuvwxyz**************************
**PARASOLID !"#$%&'()*+,-./:;<=>?@[\]^_`{|}~0123456789**************************
**PART1;
MC=AMD64;
MC_MODEL=Intel64 Family 6 Model 15 Stepping 11, GenuineIntel;
MC_ID=unknown;
OS=Windows_NT;
OS_RELEASE=unknown;
FRU=Parasolid Version 30.0, build 226,  7-26-2017;
APPL=SOLIDWORKS 2018-2017278;
SITE=;
USER=unknown;
FORMAT=text;
GUISE=transmit;
KEY=Nut DIN 934 - M3;
FILE=Nut DIN 934 - M3.x_t;
DATE=Fri Apr 17 15:13:10 2020;
**PART2;
SCH=SCH_3000226_30000;
USFLD_SIZE=0;
**PART3;
**END_OF_HEADER*****************************************************************
T51 : TRANSMIT FILE created by modeller version 300022623 SCH_3000226_30000_1300
6205 0 12 33 CCCCCCI4 mesh1006 0 I8 polyline1008 0 CCCCCCCDI5 owner1040 0 CCCCCC
I13 boundary_mesh1006 0 I17 boundary_polyline1008 0 CCCA16 index_map_offset0 0 1
 dA9 index_map82 0 A17 node_id_index_map82 0 A20 schema_embedding_map82 0 A5 chi
ld12 0 A14 lowest_node_id0 0 1 dZ1 1167 0 2 0 0 0 0 0 0 1e3 1e-8 0 3 0 1 0 1 1 4
 5 6 7 0 0 8 9 10 0 0 0 0 0 0 70 11 CI9 list_type0 0 1 uI10 notransmit0 0 1 lCCC
DCCDI12 finger_index0 0 1 dI12 finger_block1012 0 CZ2 0 4 T1 0 0 2 20 1 11 11 13
 255 4 134 0 1 0 12 0 0 13 0 50 255 5 127 0 14 15 0 0 +.0012 -.00275 -.001587713
24027147 0 .5 .866025403784439 0 -.866025403784439 .5 30 255 6 133 0 9 16 0 0 +.
0012 849182238484884e-33 -.00317542648054294 -1 0 0 29 255 7 1008 0 10 17 0 -.00
12 -.001375 -.00238156986040721 19 8 CCCCCCCA5 owner12 0 Z8 40 0 1 13 0 18 V0 16
 255 9 301 0 ?19 0 20 6 0 0 1 18 255 10 1005 0 21 0 22 7 ?1 17 255 21 0 23 24 25
 10 26 27 0 28 -18 22 998 0 24 10 29 17 ?1 17 24 0 23 30 21 22 28 31 0 32 -18 29
 994 0 30 22 33 34 ?1 29 17 1000 0 22 34 7 -.0012 -.00275 650521303491303e-33 29
 34 997 0 29 35 17 -.0012 -.001375 .002381569860407205 29 35 993 0 33 36 34 -.00
12 .001375 .002381569860407205 18 33 991 0 37 29 38 35 ?1 29 36 566 0 38 39 35 .
0012 .001375 -.002381569860407205 18 38 563 0 40 33 41 36 ?1 29 39 562 0 41 42 3
6 .0012 .00275 37557864968429e-32 18 41 559 0 43 38 44 39 ?1 29 42 558 0 44 45 3
9 .0012 .001375 .002381569860407205 18 44 555 0 46 41 47 42 ?1 29 45 550 0 47 48
 42 .0012 -.001375 -.00238156986040721 18 47 547 0 49 44 50 45 ?1 29 48 534 0 50
 51 45 .0012 -.00275 650521303491303e-33 18 50 532 0 52 47 53 48 ?1 29 51 531 0
 53 54 48 .0012 -.001375 .002381569860407205 18 53 528 0 55 50 56 51 ?1 29 54 30
2 0 56 57 51 .000954379906938138 849182238484884e-33 -.00317542648054294 18 56 3
00 0 58 53 59 54 ?1 29 57 286 0 59 60 54 .000954379906938139 .00275 -.0015877132
4027147 18 59 284 0 61 56 62 57 ?1 29 60 270 0 62 63 57 .000954379906938139 .002
75 .00158771324027147 18 62 268 0 64 59 65 60 ?1 29 63 254 0 65 66 60 .000954379
906938139 857241858963709e-33 .00317542648054294 18 65 252 0 67 62 68 63 ?1 29 6
6 238 0 68 69 63 .000954379906938139 -.00275 .00158771324027147 18 68 236 0 70 6
5 71 66 ?1 29 69 511 0 71 72 66 .000954379906938201 -.00275 -.001587713240271565
 18 71 417 0 73 68 74 69 ?1 29 72 952 0 74 75 69 -.000954379906938139 -.00275 .0
0158771324027147 18 74 832 0 76 71 77 72 ?1 29 75 954 0 77 78 72 -.0012 .001375
 -.002381569860407205 18 77 820 0 25 74 79 75 ?1 29 78 955 0 79 80 75 -.00095437
9906938138 849182238484884e-33 -.00317542648054294 18 79 815 0 81 77 82 78 ?1 29
 80 956 0 82 83 78 -.0012 .00275 433680868994202e-33 18 82 823 0 84 79 85 80 ?1
 29 83 957 0 85 86 80 -.000954379906938139 .00275 -.00158771324027147 18 85 818
 0 87 82 88 83 ?1 29 86 959 0 88 89 83 -.000954379906938139 .00275 .001587713240
27147 18 88 821 0 90 85 91 86 ?1 29 89 961 0 91 92 86 -.000954379906938139 85724
1858963709e-33 .00317542648054294 18 91 824 0 93 88 94 89 ?1 29 92 962 0 94 0 89
 -.000954379906938138 -.00275 -.00158771324027147 18 94 829 0 95 91 0 92 ?1 17 9
5 0 96 32 28 94 97 98 0 99 +15 255 96 902 0 28 100 0 17 32 0 96 28 95 22 99 101
 0 102 +17 28 0 96 95 32 10 24 31 0 103 +17 97 0 104 105 106 10 95 98 0 0 -16 98
 807 0 ?95 107 108 109 107 107 1 17 99 0 110 73 111 94 32 101 0 106 -15 110 245
 0 111 112 0 17 73 0 110 113 99 71 106 114 0 115 -17 111 0 110 99 116 22 76 117
 0 0 -16 101 808 0 ?32 118 117 119 117 117 1 17 106 0 104 97 115 94 73 114 0 0 +
15 104 322 0 97 14 0 17 115 0 104 106 49 71 120 121 0 122 +16 114 231 0 ?106 123
 124 125 0 0 1 16 123 237 0 ?116 126 114 127 0 0 1 16 124 167 0 ?128 114 129 130
 0 0 1 30 125 128 0 114 131 127 0 +.0012 -.00275 -.00158771324027147 -1 0 0 31 2
55 131 186 0 129 130 125 0 +-.0012 0 0 1 0 0 0 0 -1 .00125 30 127 129 0 123 125
 132 0 +.0012 -.00275 .00158771324027147 -1 0 0 30 132 130 0 126 127 133 0 +.001
2 857241858963709e-33 .00317542648054294 -1 0 0 16 126 253 0 ?134 135 123 132 0
 0 1 30 133 131 0 135 132 16 0 +.0012 .00275 .00158771324027147 -1 0 0 16 135 26
9 0 ?136 20 126 133 0 0 1 30 16 132 0 20 133 6 0 +.0012 .00275 -.001587713240271
47 -1 0 0 16 20 285 0 ?137 9 135 16 0 0 1 17 137 0 138 139 61 85 140 20 0 0 +15
 138 293 0 139 141 0 17 139 0 138 142 137 82 87 143 0 0 -17 61 0 138 137 144 59
 145 146 0 140 +17 140 0 147 148 149 59 137 20 0 150 -15 147 309 0 151 152 0 17
 148 0 147 58 140 38 150 153 0 154 +17 149 0 147 140 151 85 155 108 0 137 -17 15
0 0 156 145 40 59 148 153 0 0 -15 156 453 0 145 157 0 17 145 0 156 40 150 41 61
 146 0 0 -17 40 0 156 150 145 38 158 159 0 148 -16 153 363 0 ?148 121 160 161 16
0 160 1 16 121 360 0 ?115 162 153 163 162 162 1 16 160 364 0 ?58 153 164 161 153
 153 1 38 12 CCCCCCCCCCCA17 intersection_data204 0 Z161 488 0 160 165 163 0 +166
 167 168 169 170 171 38 165 489 0 146 172 161 0 -173 166 174 175 176 177 38 163
 487 0 121 161 178 0 +166 179 180 181 182 183 52 255 166 476 0 184 179 185 186 +
.0012 0 0 -1 0 0 .00275 .86602540378444 .5 0 0 -1 50 167 479 0 1 173 179 187 +.0
012 849182238484884e-33 -.00317542648054294 0 -.5 .866025403784438 0 -.866025403
784439 -.5 40 255 3 168 0 1 3 .0002845081272963825 .3047174754054315 ??.00095431
323663524 .0027502 -.00158759777021763 .001198665361252762 .00127732905201044 -.
002437960208520985 .00095431323663524 -199999999999101e-21 -.00317554195059678 4
1 3 CI8 term_use0 0 1 cCZ1 169 L?.00095431323663524 .0027502 -.00158759777021763
 41 1 170 L?.00095431323663524 -199999999999101e-21 -.00317554195059678 204 2 17
 INTERSECTION_DATA17 Intersection data7 uv_type0 0 1 u6 values0 1 1 fT12 171 4 5
.23592477460757 .0002456867633647595 -.00317565742065062 -.0002456867633647595 5
.80057472458527 1334638747238398e-21 -.001474932544043912 -133463874723845e-20 6
29813754143829e-19 .00024568676336476 2309401076758705e-22 -.00024568676336476 5
0 173 480 0 1 188 167 189 +.0012 .00275 -.00158771324027147 0 -1 -13657405443065
1e-30 0 136574054430651e-30 -1 50 179 478 0 1 167 166 190 +.0012 -.00275 -.00158
771324027147 0 .5 .866025403784439 0 -.866025403784439 .5 141 255 187 161 187 18
7 167 141 190 163 190 190 179 50 188 481 0 1 191 173 192 +.0012 .00275 .00158771
324027147 0 -.5 -.866025403784439 0 .866025403784439 -.5 141 189 165 189 189 173
 50 191 482 0 1 193 188 194 +.0012 857241858963709e-33 .00317542648054294 0 .5 -
.866025403784439 0 .866025403784439 .5 141 192 172 192 192 188 38 172 490 0 195
 196 165 0 +166 188 197 198 199 200 16 195 372 0 ?64 201 202 172 201 201 1 38 19
6 491 0 203 204 172 0 +166 191 205 206 207 208 40 3 197 0 1 3 .00028450812729638
2 .3047174754054315 ??.000954313236635241 -199999999999143e-21 .0031755419505967
8 .001198665361252762 .00147267094798956 .002325179512293425 .000954313236635241
 .0027502 .001587597770217635 41 1 198 L?.000954313236635241 -199999999999143e-2
1 .00317554195059678 41 1 199 L?.000954313236635241 .0027502 .001587597770217635
 204 12 200 4 3.14152967221438 .000245686763364759 -.003175657420650615 -.000245
686763364759 3.706179622192075 1334638747238146e-21 -.001474932544043912 -133463
8747238232e-21 4.188853186161805 .0002456867633647595 230940107675903e-21 -.0002
45686763364759 16 203 376 0 ?67 202 209 196 202 202 1 38 204 492 0 210 211 196 0
 +166 193 212 213 214 215 40 3 205 0 1 3 .000284508127296382 .3047174754054315 ?
?.000954313236635241 -.0027502 .00158759777021763 .001198665361252762 -.00127732
905201044 .002437960208520985 .000954313236635241 2000000000008565e-22 .00317554
195059678 41 1 206 L?.000954313236635241 -.0027502 .00158759777021763 41 1 207 L
?.000954313236635241 2000000000008565e-22 .00317554195059678 204 12 208 4 2.0943
3212101778 .000245686763364759 -.00317565742065062 -.000245686763364759 2.658982
07099548 1334638747237646e-21 -.001474932544043914 -13346387472378e-19 3.1416556
3496521 .000245686763364759 230940107675913e-21 -.000245686763364759 16 210 380
 0 ?70 209 216 204 209 209 1 31 211 930 0 216 109 204 0 +-.0012 0 0 1 0 0 0 0 -1
 .00275 50 193 483 0 1 217 191 218 +.0012 -.00275 .00158771324027147 0 1 -273148
108861302e-30 0 273148108861302e-30 1 40 5 212 0 1 5 .000733028079782526 .312888
623671968 ??-.0001809365374899465 -.00275 -.00434466851543462 .00103390790722198
2 -.00275 -.00129034857255646 .001187326661701584 -.00275 .000348154567110481 .0
0062331377681624 -.00275 .00254781771565705 -.00281866007822155 -.00275 .0093129
8906683199 41 1 213 L?-.0001809365374899465 -.00275 -.00434466851543462 41 1 214
 L?-.00281866007822155 -.00275 .00931298906683199 204 20 215 4 .564302666151208
 .001380936537489946 -.00593238175570609 -.001380936537489946 1.13207641979743 .
000166092092778018 -.00287806181282793 -.000166092092778018 1.696728029054975 12
6733382984161e-19 -.00123955867316099 -126733382984159e-19 ????2.854465755843375
 .004018660078221555 .00772527582656052 -.00401866007822155 52 217 913 0 219 220
 193 221 --.0012 0 0 1 0 0 .00275 .86602540378444 .5 0 0 -1 141 218 204 218 218
 193 14 255 219 883 222 ?223 224 225 4 217 -223 226 223 224 18 50 220 915 0 1 22
7 217 228 +.0012 -.00275 -.00158771324027147 0 .5 .866025403784439 0 -.866025403
784439 .5 141 221 119 229 230 217 38 119 936 0 117 0 231 0 +217 232 233 234 235
 236 141 229 109 237 221 217 141 230 231 221 238 217 38 231 935 0 118 119 239 0
 +217 240 241 242 243 244 141 238 239 230 245 217 38 239 934 0 246 231 247 0 +21
7 248 249 250 251 252 141 245 247 238 237 217 38 247 933 0 143 239 253 0 -254 21
7 255 256 257 258 141 237 253 245 229 217 38 253 932 0 259 247 109 0 +217 227 26
0 261 262 263 16 259 797 0 ?81 108 264 253 108 108 1 38 109 931 0 98 253 211 0 +
217 220 265 266 267 268 50 227 916 0 1 254 220 269 +.0012 849182238484884e-33 -.
00317542648054294 0 -.5 .866025403784438 0 -.866025403784439 -.5 40 3 260 0 1 3
 .0002845081272963825 .3047174754054315 ??-.00095431323663524 .0027502 -.0015875
9777021763 -.001198665361252762 .00127732905201044 -.002437960208520985 -.000954
31323663524 -199999999999101e-21 -.00317554195059678 41 1 261 L?-.00095431323663
524 .0027502 -.00158759777021763 41 1 262 L?-.00095431323663524 -199999999999101
e-21 -.00317554195059678 204 12 263 4 1.047260532572012 .0002456867633647595 -.0
0317565742065062 -.00215431323663524 .482610582594314 1334638747238398e-21 -.001
474932544043912 -.00239866536125276 6.28312232580417 .00024568676336476 23094010
76758705e-22 -.00215431323663524 50 254 917 0 1 248 227 270 +.0012 .00275 -.0015
8771324027147 0 -1 -136574054430651e-30 0 136574054430651e-30 -1 141 269 253 269
 269 227 50 248 918 0 1 240 254 271 +.0012 .00275 .00158771324027147 0 -.5 -.866
025403784439 0 .866025403784439 -.5 141 270 247 270 270 254 50 240 919 0 1 232 2
48 272 +.0012 857241858963709e-33 .00317542648054294 0 .5 -.866025403784439 0 .8
66025403784439 .5 141 271 239 271 271 248 50 232 920 0 1 0 240 273 +.0012 -.0027
5 .00158771324027147 0 1 -273148108861302e-30 0 273148108861302e-30 1 141 272 23
1 272 272 240 141 273 119 273 273 232 40 3 265 0 1 3 .000284508127296382 .304717
4754054315 ??-.00095431323663524 20000000000073e-20 -.00317554195059678 -.001198
665361252762 -.00147267094798956 -.00232517951229343 -.00095431323663524 -.00275
02 -.001587597770217635 41 1 266 L?-.00095431323663524 20000000000073e-20 -.0031
7554195059678 41 1 267 L?-.00095431323663524 -.0027502 -.001587597770217635 204
 12 268 4 629813754148959e-19 .0002456867633647595 -.00317565742065062 -.0021543
1323663524 5.7185983385773 1334638747238648e-21 -.001474932544043912 -.002398665
36125276 5.23592477460757 .00024568676336476 230940107676387e-21 -.0021543132366
3524 17 81 0 274 103 26 79 151 259 0 105 +16 108 793 0 ?155 98 259 253 259 259 1
 16 264 785 0 ?275 259 143 247 143 143 1 17 275 0 225 276 90 82 142 264 0 139 +1
6 143 792 0 ?87 264 277 247 264 264 1 17 87 0 278 155 279 85 139 143 0 149 +16 2
77 800 0 ?280 143 246 239 246 246 1 17 280 0 281 282 93 33 283 277 0 284 +16 246
 784 0 ?90 277 285 239 277 277 1 17 90 0 225 275 276 88 284 246 0 142 +16 285 81
0 0 ?286 246 118 231 118 118 1 17 286 0 287 102 76 29 288 285 0 289 +16 118 799
 0 ?93 285 101 231 285 285 1 17 93 0 281 280 282 91 289 118 0 283 +15 281 898 0
 93 224 0 17 282 0 281 93 280 29 37 290 0 286 +17 289 0 291 288 134 29 93 118 0
 0 -17 283 0 292 293 284 91 280 277 0 134 -15 292 277 0 136 294 0 17 293 0 292 2
95 283 65 134 126 0 296 -17 284 0 292 283 136 33 90 246 0 0 -17 134 0 291 289 67
 91 293 126 0 0 +15 291 261 0 134 297 0 17 67 0 291 134 298 65 299 203 0 293 +17
 298 0 291 67 300 53 301 202 0 302 +17 299 0 303 46 296 53 67 203 0 0 -15 303 46
1 0 296 304 0 17 46 0 303 296 299 44 302 305 0 295 -17 296 0 303 299 46 65 295 2
01 0 0 -17 295 0 292 64 293 44 296 201 0 306 +16 201 371 0 ?295 146 195 172 195
 195 1 16 146 368 0 ?61 164 201 165 164 164 1 16 164 367 0 ?144 160 146 165 146
 146 1 17 144 0 138 61 307 41 308 164 0 158 +17 307 0 138 144 142 62 136 135 0 3
08 -17 308 0 309 310 43 62 144 164 0 0 -17 158 0 311 306 154 41 40 159 0 145 +15
 311 352 0 306 312 313 17 306 0 311 302 158 44 43 314 0 310 +17 154 0 311 158 31
5 38 316 317 0 318 +16 159 384 0 ?158 129 314 178 317 314 1 16 129 164 0 ?319 12
4 159 131 0 0 1 16 314 387 0 ?306 159 305 178 159 305 1 31 178 486 0 159 163 130
 0 +.0012 0 0 1 0 0 0 0 -1 .00275 16 317 399 0 ?154 320 162 178 320 159 1 16 320
 396 0 ?315 321 317 178 321 317 1 16 162 359 0 ?49 317 121 163 121 121 1 17 49 0
 104 115 322 47 323 162 0 315 +17 322 0 104 49 105 56 19 9 0 323 -17 323 0 324 3
18 316 56 49 162 0 0 -17 315 0 311 154 52 47 325 320 0 120 +17 52 0 311 315 302
 50 55 321 0 113 +17 325 0 326 122 120 50 315 320 0 0 -17 120 0 326 325 122 47 1
15 121 0 316 -15 326 465 0 120 327 0 17 122 0 326 120 325 71 113 209 0 0 -17 316
 0 324 323 318 47 154 317 0 0 -15 324 457 0 318 328 0 17 318 0 324 316 323 38 58
 160 0 0 -17 58 0 147 19 148 56 318 160 0 322 +17 19 0 147 151 58 79 322 9 0 0 +
17 151 0 147 149 19 77 81 259 0 0 -14 328 454 329 ?226 157 324 4 166 +304 157 22
6 157 18 81 255 1 329 1148 330 328 331 0 222 332 333 14 226 903 332 ?100 328 287
 4 217 -219 100 100 328 18 14 157 450 334 ?328 184 156 4 166 +328 184 328 184 18
 14 304 458 335 ?184 327 303 4 166 +327 328 184 327 18 13 18 41 0 0 0 0 0 0 8 12
 14 12 756 336 ?14 0 337 4 338 +0 0 14 0 18 81 1 336 1152 330 12 339 0 335 340 3
41 14 14 726 340 ?152 12 104 4 5 -0 0 152 12 18 15 337 152 0 319 12 23 50 338 91
 0 12 342 343 0 +-.0012 -.00275 -.00158771324027147 -1 0 0 0 0 1 50 342 2 0 312
 185 338 0 +.0012 -.00275 -.00158771324027147 -1 0 0 0 0 1 50 343 122 0 112 338
 344 0 +.0012 -.00275 .00158771324027147 0 1 -273148108861302e-30 0 273148108861
302e-30 1 14 112 649 345 ?312 297 110 4 343 -0 0 312 297 18 50 344 123 0 297 343
 346 0 +.0012 857241858963709e-33 .00317542648054294 0 .5 -.866025403784439 0 .8
66025403784439 .5 14 297 665 347 ?112 294 291 4 344 -0 0 112 294 18 50 346 124 0
 294 344 348 0 +.0012 .00275 .00158771324027147 0 -.5 -.866025403784439 0 .86602
5403784439 -.5 14 294 681 349 ?297 141 292 4 346 -0 0 297 141 18 50 348 125 0 14
1 346 15 0 +.0012 .00275 -.00158771324027147 0 -1 -136574054430651e-30 0 1365740
54430651e-30 -1 14 141 697 350 ?294 152 138 4 348 -0 0 294 152 18 50 15 126 0 15
2 348 5 0 +.0012 849182238484884e-33 -.00317542648054294 0 -.5 .866025403784438
 0 -.866025403784439 -.5 14 152 713 351 ?141 14 147 4 15 -0 0 141 14 18 81 1 351
 1158 330 152 352 0 350 353 354 80 255 1 330 355 356 9000 1 1 1 1 1 1 1 1 0 FFFF
TFTFFFFFFF1 81 1 352 1084 357 152 0 351 358 359 360 81 1 350 1157 330 141 359 0
 349 351 361 81 1 353 1159 330 312 362 0 351 363 364 82 255 1 354 401604741 14 3
12 161 353 ?365 112 311 4 342 -0 0 365 112 18 81 1 362 1089 357 312 0 353 366 36
7 368 81 1 363 1160 330 365 367 0 353 369 370 82 1 364 257949828 14 365 170 363
 ?371 312 372 4 185 +0 0 371 312 18 81 1 367 1090 357 365 0 363 362 373 374 81 1
 369 1161 330 371 373 0 363 375 376 82 1 370 239272065 14 371 466 369 ?327 365 3
77 4 166 +184 327 327 365 18 81 1 373 1091 357 371 0 369 367 378 379 81 1 375 11
62 330 327 378 0 369 380 381 82 1 376 306380932 14 327 462 375 ?304 371 326 4 16
6 +371 304 304 371 18 81 1 378 1092 357 327 0 375 373 382 383 81 1 380 1163 330
 184 384 0 375 385 386 82 1 381 306839684 14 184 446 380 ?157 304 309 4 166 +157
 371 157 304 18 81 1 384 1094 357 184 0 380 382 387 388 81 1 385 1164 330 100 38
9 0 380 390 391 82 1 386 309985412 14 100 899 385 ?224 226 96 4 217 -226 224 224
 226 18 81 1 389 1098 357 100 0 385 392 393 394 81 1 390 1165 330 224 393 0 385
 395 396 82 1 391 382533765 14 224 895 390 ?219 100 281 4 217 -100 397 219 100 1
8 81 1 393 1099 357 224 0 390 389 398 399 81 1 395 1166 330 223 400 0 390 401 40
2 82 1 396 383647877 14 223 887 395 ?397 219 278 4 217 -397 219 397 219 18 81 1
 400 1101 357 223 0 395 398 403 404 81 1 401 1167 330 397 403 0 395 0 405 82 1 4
02 385220741 14 397 891 401 ?0 223 274 4 217 -224 223 0 223 18 81 1 403 1102 357
 397 0 401 400 0 406 82 1 405 384106629 80 1 357 0 407 8001 0 0 0 0 3 5 0 0 0 FF
FFTFTFFFFFFF2 83 255 3 406 .647058823529412 .619607843137255 .588235294117647 79
 255 15 407 SDL/TYSA_COLOUR15 274 894 0 26 397 0 17 26 0 274 81 103 77 21 27 0 1
55 +17 103 0 274 26 81 10 105 107 0 97 +16 27 794 0 ?26 31 107 211 31 216 1 17 1
55 0 278 279 87 77 149 108 0 151 +15 278 890 0 279 223 0 17 279 0 278 87 155 82
 25 216 0 275 +17 25 0 23 21 84 77 279 216 0 26 -16 216 789 0 ?279 210 408 211 2
7 408 1 16 408 786 0 ?276 216 290 211 216 290 1 17 276 0 225 90 275 33 84 408 0
 280 +16 290 801 0 ?282 408 409 211 408 409 1 16 409 811 0 ?102 290 31 211 290 3
1 1 17 102 0 287 76 286 22 30 409 0 111 +16 31 804 0 ?28 409 27 211 409 27 1 15
 287 906 0 76 226 0 17 76 0 287 286 102 74 111 117 0 288 +17 30 0 23 37 24 29 10
2 409 0 282 -15 23 754 0 84 12 0 17 37 0 23 84 30 33 282 290 0 276 -17 84 0 23 2
5 37 82 276 408 0 279 -16 117 809 0 ?76 101 0 119 101 101 1 17 288 0 291 300 289
 74 286 285 0 116 -17 300 0 291 298 288 68 116 123 0 301 -17 116 0 110 111 70 74
 300 123 0 0 +17 70 0 110 116 113 68 410 210 0 300 +17 113 0 110 70 73 50 122 20
9 0 410 +17 410 0 377 55 301 50 70 210 0 325 -15 377 469 0 301 371 0 17 55 0 377
 301 410 53 52 321 0 298 -17 301 0 377 410 55 68 298 202 0 0 -16 202 375 0 ?298
 195 203 196 203 203 1 16 321 393 0 ?52 305 320 178 305 320 1 16 305 390 0 ?302
 314 321 178 314 321 1 17 302 0 311 52 306 53 46 305 0 299 +16 209 379 0 ?113 20
3 210 204 210 210 1 15 225 886 0 90 219 0 16 107 798 0 ?103 27 98 109 98 98 1 17
 105 0 104 322 97 79 103 107 0 19 -81 1 398 1100 357 219 0 222 393 400 411 83 3
 404 .647058823529412 .619607843137255 .588235294117647 81 1 222 1147 330 219 39
8 0 0 329 412 83 3 411 .647058823529412 .619607843137255 .588235294117647 82 1 4
12 385679493 83 3 399 .647058823529412 .619607843137255 .588235294117647 81 1 39
2 1097 357 226 0 332 331 389 413 83 3 394 .647058823529412 .619607843137255 .588
235294117647 81 1 332 1149 330 226 392 0 329 334 414 81 1 331 1096 357 328 0 329
 387 392 415 83 3 413 .647058823529412 .619607843137255 .588235294117647 81 1 38
7 1095 357 157 0 334 384 331 416 83 3 415 .647058823529412 .619607843137255 .588
235294117647 81 1 334 1150 330 157 387 0 332 335 417 83 3 416 .647058823529412 .
619607843137255 .588235294117647 81 1 335 1151 330 304 382 0 334 336 418 82 1 41
7 309526660 81 1 382 1093 357 304 0 335 378 384 419 82 1 418 307953796 83 3 419
 .647058823529412 .619607843137255 .588235294117647 82 1 414 382075013 83 3 388
 .647058823529412 .619607843137255 .588235294117647 15 309 449 0 308 184 0 83 3
 383 .647058823529412 .619607843137255 .588235294117647 83 3 379 .64705882352941
2 .619607843137255 .588235294117647 83 3 374 .647058823529412 .619607843137255 .
588235294117647 15 372 173 0 128 365 420 51 255 185 183 0 365 166 342 0 -.0012 0
 0 -1 0 0 .00125 0 0 1 17 128 0 372 128 128 0 421 124 0 0 +15 420 174 0 422 365
 0 17 422 0 420 422 422 0 319 129 0 0 -17 319 0 337 319 319 0 422 129 0 0 +17 42
1 0 313 421 421 0 128 124 0 0 -15 313 159 0 421 312 0 81 1 366 1088 357 112 0 34
5 423 362 424 83 3 368 .647058823529412 .619607843137255 .588235294117647 81 1 3
45 1154 330 112 366 0 340 347 425 81 1 423 1087 357 297 0 347 426 366 427 83 3 4
24 .647058823529412 .619607843137255 .588235294117647 81 1 347 1155 330 297 423
 0 345 349 428 81 1 426 1086 357 294 0 349 359 423 429 83 3 427 .647058823529412
 .619607843137255 .588235294117647 81 1 349 1156 330 294 426 0 347 350 430 81 1
 359 1085 357 141 0 350 352 426 431 83 3 429 .647058823529412 .619607843137255 .
588235294117647 83 3 431 .647058823529412 .619607843137255 .588235294117647 82 1
 430 398459013 82 1 428 396886149 81 1 340 1153 330 14 358 0 336 345 432 82 1 42
5 395313285 81 1 358 1083 357 14 0 340 339 352 433 82 1 432 402849925 81 1 339 1
082 357 12 0 336 0 358 434 83 3 433 .647058823529412 .619607843137255 .588235294
117647 83 3 434 .647058823529412 .619607843137255 .588235294117647 82 1 361 4000
31877 83 3 360 .647058823529412 .619607843137255 .588235294117647 79 14 356 SWEn
tUnchanged82 1 341 405602437 82 1 333 308412548 31 130 187 0 124 178 131 0 +.001
2 0 0 1 0 0 0 0 -1 .00125 17 43 0 309 308 310 41 306 314 0 144 -17 310 0 309 43
 308 44 64 195 0 0 -17 64 0 292 136 295 62 310 195 0 307 +17 136 0 292 284 64 88
 307 135 0 0 +17 142 0 138 307 139 88 275 264 0 136 -40 5 255 0 1 5 .00073302807
9782524 .312888623671968 ??.0001809365374899455 .00275 -.004344668515434615 -.00
1033907907221982 .00275 -.001290348572556456 -.001187326661701584 .00275 .000348
154567110482 -.000623313776816239 .00275 .002547817715657055 .002818660078221555
 .00275 .00931298906683199 41 1 256 L?.0001809365374899455 .00275 -.004344668515
434615 41 1 257 L?.002818660078221555 .00275 .00931298906683199 204 20 258 4 .00
2756955275163145 -.001019063462510054 .564302666151208 .001380936537489944 -.000
2973646677150135 -.00223390790722198 1.13207641979743 .0001660920927780175 -.001
935867807381955 -.002387326661701585 1.69672802905498 126733382984161e-19 ????-.
01090070230710346 .001618660078221555 2.854465755843375 .004018660078221555 40 3
 249 0 1 3 .000284508127296382 .3047174754054315 ??-.000954313236635241 -1999999
99999143e-21 .00317554195059678 -.001198665361252762 .00147267094798956 .0023251
79512293425 -.000954313236635241 .0027502 .001587597770217635 41 1 250 L?-.00095
4313236635241 -199999999999143e-21 .00317554195059678 41 1 251 L?-.0009543132366
35241 .0027502 .001587597770217635 204 12 252 4 3.14165563496521 .00024568676336
4759 -.003175657420650615 -.00215431323663524 2.57700568498751 1334638747238146e
-21 -.001474932544043912 -.00239866536125276 2.09433212101778 .00024568676336475
95 230940107675903e-21 -.00215431323663524 40 3 241 0 1 3 .000284508127296382 .3
047174754054315 ??-.000954313236635241 -.0027502 .00158759777021763 -.0011986653
61252762 -.00127732905201044 .002437960208520985 -.000954313236635241 2000000000
008565e-22 .00317554195059678 41 1 242 L?-.000954313236635241 -.0027502 .0015875
9777021763 41 1 243 L?-.000954313236635241 2000000000008565e-22 .003175541950596
78 204 12 244 4 4.188853186161805 .000245686763364759 -.00317565742065062 -.0021
5431323663524 3.624203236184105 1334638747237646e-21 -.001474932544043914 -.0023
9866536125276 3.14152967221438 .000245686763364759 230940107675913e-21 -.0021543
1323663524 40 5 233 0 1 5 .000733028079782526 .312888623671968 ??.00018093653748
99465 -.00275 -.00434466851543462 -.001033907907221982 -.00275 -.001290348572556
46 -.001187326661701584 -.00275 .000348154567110481 -.00062331377681624 -.00275
 .00254781771565705 .00281866007822155 -.00275 .00931298906683199 41 1 234 L?.00
01809365374899465 -.00275 -.00434466851543462 41 1 235 L?.00281866007822155 -.00
275 .00931298906683199 204 20 236 4 5.71888264102838 .001380936537489946 -.00593
238175570609 -.001019063462510052 5.15110888738216 .000166092092778018 -.0028780
6181282793 -.00223390790722198 4.58645727812461 126733382984161e-19 -.0012395586
7316099 -.002387326661701585 ????3.42871955133621 .004018660078221555 .007725275
82656052 .00161866007822155 141 228 109 228 228 220 141 194 196 194 194 191 141
 186 204 435 436 166 141 435 163 437 186 166 141 436 196 186 438 166 141 438 172
 436 439 166 141 439 165 438 437 166 141 437 161 439 435 166 40 3 180 0 1 3 .000
284508127296382 .304717475405432 ??.00095431323663524 200000000000752e-21 -.0031
7554195059678 .00119866536125276 -.00147267094798956 -.00232517951229343 .000954
31323663524 -.0027502 -.001587597770217635 41 1 181 L?.00095431323663524 2000000
00000752e-21 -.00317554195059678 41 1 182 L?.00095431323663524 -.0027502 -.00158
7597770217635 204 12 183 4 6.28312232580417 .0002456867633647595 -.0031756574206
5062 -.0002456867633647595 .564586968602284 1334638747238398e-21 -.0014749325440
43912 -1334638747238666e-21 1.047260532572012 .00024568676336476 230940107676387
e-21 -.00024568676336476 40 5 174 0 1 5 .000733028079782524 .312888623671968 ??-
.0001809365374899455 .00275 -.004344668515434615 .001033907907221982 .00275 -.00
1290348572556456 .001187326661701584 .00275 .000348154567110482 .000623313776816
239 .00275 .002547817715657055 -.002818660078221555 .00275 .00931298906683199 41
 1 175 L?-.0001809365374899455 .00275 -.004344668515434615 41 1 176 L?-.00281866
0078221555 .00275 .00931298906683199 204 20 177 4 .002756955275163145 -.00138093
6537489944 5.71888264102838 .001380936537489944 -.0002973646677150135 -.00016609
20927780175 5.15110888738216 .0001660920927780175 -.001935867807381955 -12673338
29841634e-20 4.58645727812461 126733382984161e-19 ????-.01090070230710346 -.0040
18660078221555 3.42871955133621 .004018660078221555 19 13 135 0 1 0 8 4 S0 74 4
 CI16 index_map_offset0 0 1 dCCZ20 11 2 0 0 401 403 0 0 0 0 0 0 0 0 0 0 0 0 0 0
 0 0 0 0 1 0 
