**ABCDEFGHIJKLMNOPQRSTUVWXYZabcdefghijklmnopqrstuvwxyz**************************
**PARASOLID !"#$%&'()*+,-./:;<=>?@[\]^_`{|}~0123456789**************************
**PART1;
MC=AMD64;
MC_MODEL=Intel64 Family 6 Model 15 Stepping 11, GenuineIntel;
MC_ID=unknown;
OS=Windows_NT;
OS_RELEASE=unknown;
FRU=Parasolid Version 30.0, build 226,  7-26-2017;
APPL=SOLIDWORKS 2018-2017278;
SITE=;
USER=unknown;
FORMAT=text;
GUISE=transmit;
KEY=Nut DIN 934 - M8;
FILE=Nut DIN 934 - M8.x_t;
DATE=Fri Apr 17 15:34:27 2020;
**PART2;
SCH=SCH_3000226_30000;
USFLD_SIZE=0;
**PART3;
**END_OF_HEADER*****************************************************************
T51 : TRANSMIT FILE created by modeller version 300022623 SCH_3000226_30000_1300
6205 0 12 33 CCCCCCI4 mesh1006 0 I8 polyline1008 0 CCCCCCCDI5 owner1040 0 CCCCCC
I13 boundary_mesh1006 0 I17 boundary_polyline1008 0 CCCA16 index_map_offset0 0 1
 dA9 index_map82 0 A17 node_id_index_map82 0 A20 schema_embedding_map82 0 A5 chi
ld12 0 A14 lowest_node_id0 0 1 dZ1 1158 0 2 0 0 0 0 0 0 1e3 1e-8 0 3 0 1 0 1 1 4
 5 6 7 0 0 8 9 10 0 0 0 0 0 0 70 11 CI9 list_type0 0 1 uI10 notransmit0 0 1 lCCC
DCCDI12 finger_index0 0 1 dI12 finger_block1012 0 CZ2 0 4 T1 0 0 2 20 1 11 11 13
 255 4 134 0 1 0 12 0 0 13 0 50 255 5 127 0 14 15 0 0 +.00325 -.0065 -.003752776
749732565 0 .5 .866025403784439 0 -.866025403784439 .5 30 255 6 133 0 9 16 0 0 +
.00325 128562676089799e-32 -.00750555349946513 -1 0 0 29 255 7 1008 0 10 17 0 -.
00325 -.00325 -.00562916512459885 19 8 CCCCCCCA5 owner12 0 Z8 40 0 1 13 0 18 V0
 16 255 9 301 0 ?19 0 20 6 0 0 1 18 255 10 1005 0 21 0 22 7 ?1 17 255 21 0 23 24
 25 10 26 27 0 28 +18 22 998 0 25 10 29 17 ?1 17 25 0 23 21 24 22 30 31 0 32 +18
 29 994 0 33 22 34 35 ?1 29 17 1000 0 22 35 7 -.00325 -.0065 0 29 35 997 0 29 36
 17 -.00325 -.00325 .00562916512459885 29 36 566 0 34 37 35 .00325 .00325 -.0056
2916512459885 18 34 563 0 38 29 39 36 ?1 29 37 562 0 39 40 36 .00325 .0065 15023
1459873716e-32 18 39 559 0 41 34 42 37 ?1 29 40 558 0 42 43 37 .00325 .00325 .00
562916512459885 18 42 555 0 44 39 45 40 ?1 29 43 550 0 45 46 40 .00325 -.00325 -
.00562916512459885 18 45 547 0 47 42 48 43 ?1 29 46 534 0 48 49 43 .00325 -.0065
 0 18 48 532 0 50 45 51 46 ?1 29 49 531 0 51 52 46 .00325 -.00325 .0056291651245
9885 18 51 528 0 53 48 54 49 ?1 29 52 302 0 54 55 49 .00266944341639924 12856267
6089799e-32 -.00750555349946513 18 54 300 0 56 51 57 52 ?1 29 55 286 0 57 58 52
 .00266944341639924 .0065 -.003752776749732565 18 57 284 0 59 54 60 55 ?1 29 58
 270 0 60 61 55 .002669443416399235 .0065 .00375277674973257 18 60 268 0 62 57 6
3 58 ?1 29 61 254 0 63 64 58 .002669443416399235 1677036662071475e-33 .007505553
49946513 18 63 252 0 65 60 66 61 ?1 29 64 238 0 66 67 61 .00266944341639924 -.00
65 .003752776749732565 18 66 236 0 68 63 69 64 ?1 29 67 511 0 69 70 64 .00266944
341639924 -.0065 -.003752776749732565 18 69 417 0 71 66 72 67 ?1 29 70 952 0 72
 73 67 -.00266944341639924 -.0065 .003752776749732565 18 72 832 0 74 69 75 70 ?1
 29 73 954 0 75 76 70 -.00325 .00325 -.00562916512459885 18 75 820 0 77 72 78 73
 ?1 29 76 955 0 78 79 73 -.00266944341639924 128562676089799e-32 -.0075055534994
6513 18 78 815 0 80 75 81 76 ?1 29 79 956 0 81 82 76 -.00325 .0065 1301042606982
604e-33 18 81 823 0 83 78 84 79 ?1 29 82 957 0 84 85 79 -.00266944341639924 .006
5 -.003752776749732565 18 84 818 0 86 81 87 82 ?1 29 85 958 0 87 88 82 -.00325 .
00325 .00562916512459885 18 87 826 0 89 84 90 85 ?1 29 88 959 0 90 91 85 -.00266
9443416399235 .0065 .00375277674973257 18 90 821 0 92 87 93 88 ?1 29 91 961 0 93
 94 88 -.002669443416399235 1677036662071475e-33 .00750555349946513 18 93 824 0
 95 90 96 91 ?1 29 94 962 0 96 0 91 -.00266944341639924 -.0065 -.003752776749732
565 18 96 829 0 24 93 0 94 ?1 17 24 0 23 25 21 96 97 98 0 30 +15 255 23 902 0 21
 99 0 17 97 0 100 101 102 10 24 98 0 103 -16 98 807 0 ?24 104 105 106 104 104 1
 17 30 0 107 71 108 96 25 31 0 102 -15 107 245 0 108 109 0 17 71 0 107 110 30 69
 102 111 0 112 -17 108 0 107 30 113 22 74 114 0 26 -16 31 808 0 ?25 115 114 116
 114 114 1 17 102 0 100 97 112 96 71 111 0 0 +15 100 322 0 97 14 0 17 112 0 100
 102 47 69 117 118 0 119 +16 111 231 0 ?102 120 121 122 0 0 1 16 120 237 0 ?113
 123 111 124 0 0 1 16 121 167 0 ?125 111 126 127 0 0 1 30 122 128 0 111 128 124
 0 +.00325 -.0065 -.003752776749732565 -1 0 0 31 255 128 186 0 126 127 122 0 +-.
00325 0 0 1 0 0 0 0 -1 .0034 30 124 129 0 120 122 129 0 +.00325 -.0065 .00375277
6749732565 -1 0 0 30 129 130 0 123 124 130 0 +.00325 1677036662071475e-33 .00750
555349946513 -1 0 0 16 123 253 0 ?131 132 120 129 0 0 1 30 130 131 0 132 129 16
 0 +.00325 .0065 .00375277674973257 -1 0 0 16 132 269 0 ?133 20 123 130 0 0 1 30
 16 132 0 20 130 6 0 +.00325 .0065 -.003752776749732565 -1 0 0 16 20 285 0 ?134
 9 132 16 0 0 1 17 134 0 135 136 59 84 137 20 0 0 +15 135 293 0 136 138 0 17 136
 0 135 139 134 81 86 140 0 141 -17 59 0 135 134 142 57 143 144 0 137 +17 137 0 1
45 146 147 57 134 20 0 148 -15 145 309 0 149 150 0 17 146 0 145 56 137 34 148 15
1 0 152 +17 147 0 145 137 149 84 153 105 0 134 -17 148 0 154 143 38 57 146 151 0
 0 -15 154 453 0 143 155 0 17 143 0 154 38 148 39 59 144 0 0 -17 38 0 154 148 14
3 34 156 157 0 146 -16 151 363 0 ?146 118 158 159 158 158 1 16 118 360 0 ?112 16
0 151 161 160 160 1 16 158 364 0 ?56 151 162 159 151 151 1 38 12 CCCCCCCCCCCA17
 intersection_data204 0 Z159 488 0 158 163 161 0 +164 165 166 167 168 169 38 163
 489 0 144 170 159 0 -171 164 172 173 174 175 38 161 487 0 118 159 176 0 +164 17
7 178 179 180 181 52 255 164 476 0 182 177 183 184 +.00325 0 0 -1 0 0 .0065 .866
02540378444 .5 0 0 -1 50 165 479 0 1 171 177 185 +.00325 128562676089799e-32 -.0
0750555349946513 0 -.5 .866025403784439 0 -.866025403784439 -.5 40 255 3 166 0 1
 3 .000672462383173416 .30472242110799 ??.002669376748194135 .0065002 -.00375266
1279678725 .003246839595040125 .00301892902064926 -.00576257401672891 .002669376
748194135 -199999999998819e-21 -.00750566896951897 41 3 CI8 term_use0 0 1 cCZ1 1
67 L?.002669376748194135 .0065002 -.003752661279678725 41 1 168 L?.0026693767481
94135 -199999999998819e-21 -.00750566896951897 204 2 17 INTERSECTION_DATA17 Inte
rsection data7 uv_type0 0 1 u6 values0 1 1 fT12 169 4 5.23596110945744 .00058062
3251805866 -.00750578443957281 -.000580623251805866 5.80061238880056 31604049598
74335e-21 -.003485958965472445 -3160404959874545e-21 2664652554804865e-20 .00058
0623251805866 2309401076760045e-22 -.000580623251805866 50 171 480 0 1 186 165 1
87 +.00325 .0065 -.003752776749732565 0 -1 -23112532288264e-29 0 23112532288264e
-29 -1 50 177 478 0 1 165 164 188 +.00325 -.0065 -.003752776749732565 0 .5 .8660
25403784439 0 -.866025403784439 .5 141 255 185 159 185 185 165 141 188 161 188 1
88 177 50 186 481 0 1 189 171 190 +.00325 .0065 .00375277674973257 0 -.5 -.86602
5403784439 0 .866025403784439 -.5 141 187 163 187 187 171 50 189 482 0 1 191 186
 192 +.00325 1677036662071475e-33 .00750555349946513 0 .5 -.866025403784439 0 .8
66025403784439 .5 141 190 170 190 190 186 38 170 490 0 193 194 163 0 +164 186 19
5 196 197 198 16 193 372 0 ?62 199 200 170 199 199 1 38 194 491 0 201 202 170 0
 +164 189 203 204 205 206 40 3 195 0 1 3 .000672462383173416 .30472242110799 ??.
002669376748194135 -199999999998323e-21 .00750566896951897 .003246839595040125 .
003481070979350745 .00549575623246879 .002669376748194135 .0065002 .003752661279
67873 41 1 196 L?.002669376748194135 -199999999998323e-21 .00750566896951897 41
 1 197 L?.002669376748194135 .0065002 .00375266127967873 204 12 198 4 3.14156600
7064245 .000580623251805867 -.00750578443957281 -.000580623251805867 3.706217286
407365 3160404959875835e-21 -.00348595896547244 -316040495987628e-20 4.188816851
31194 .000580623251805866 230940107674668e-21 -.000580623251805866 16 201 376 0
 ?65 200 207 194 200 200 1 38 202 492 0 208 209 194 0 +164 191 210 211 212 213 4
0 3 203 0 1 3 .000672462383173416 .30472242110799 ??.002669376748194135 -.006500
2 .003752661279678725 .003246839595040125 -.00301892902064926 .00576257401672891
 .002669376748194135 200000000001825e-21 .00750566896951897 41 1 204 L?.00266937
6748194135 -.0065002 .003752661279678725 41 1 205 L?.002669376748194135 20000000
0001825e-21 .00750566896951897 204 12 206 4 2.094368455867645 .00058062325180586
6 -.00750578443957281 -.000580623251805866 2.659019735210765 3160404959874335e-2
1 -.00348595896547245 -3160404959874545e-21 3.14161930011534 .000580623251805867
 2309401076760415e-22 -.000580623251805867 16 208 380 0 ?68 207 214 202 207 207
 1 31 209 930 0 214 106 202 0 +-.00325 0 0 1 0 0 0 0 -1 .0065 50 191 483 0 1 215
 189 216 +.00325 -.0065 .003752776749732565 0 1 0 0 0 1 40 5 210 0 1 5 .00173330
120553957 .3137126885072315 ??690426901002129e-19 -.0065 -.01009851494176832 .00
2889145102597745 -.0065 -.002918200812988625 .0032118586785979 -.0065 .000929074
521320106 .00181745080138135 -.0065 .00619780731968441 -.00660628887250895 -.006
5 .0226576698124814 41 1 211 L?690426901002129e-19 -.0065 -.01009851494176832 41
 1 212 L?-.00660628887250895 -.0065 .0226576698124814 204 20 213 4 .571904649937
969 .00318095730989979 -.0138512916915009 -.003180957309899785 1.14881261948125
 .0003608548974022535 -.00667097756272119 -.0003608548974022535 1.71276923148374
 3814132140210055e-20 -.00282370222841246 -381413214021009e-19 ????2.86221690871
9785 .00985628887250894 .01890489306274885 -.00985628887250894 52 215 913 0 217
 218 191 219 --.00325 0 0 1 0 0 .0065 .86602540378444 .5 0 0 -1 141 216 202 216
 216 191 14 255 217 883 220 ?221 222 223 4 215 -221 224 221 222 18 50 218 915 0
 1 225 215 226 +.00325 -.0065 -.003752776749732565 0 .5 .866025403784439 0 -.866
025403784439 .5 141 219 116 227 228 215 38 116 936 0 114 0 229 0 +215 230 231 23
2 233 234 141 227 106 235 219 215 141 228 229 219 236 215 38 229 935 0 115 116 2
37 0 +215 238 239 240 241 242 141 236 237 228 243 215 38 237 934 0 244 229 245 0
 +215 246 247 248 249 250 141 243 245 236 235 215 38 245 933 0 140 237 251 0 -25
2 215 253 254 255 256 141 235 251 243 227 215 38 251 932 0 257 245 106 0 +215 22
5 258 259 260 261 16 257 797 0 ?80 105 262 251 105 105 1 38 106 931 0 98 251 209
 0 +215 218 263 264 265 266 50 225 916 0 1 252 218 267 +.00325 128562676089799e-
32 -.00750555349946513 0 -.5 .866025403784439 0 -.866025403784439 -.5 40 3 258 0
 1 3 .000672462383173416 .30472242110799 ??-.002669376748194135 .0065002 -.00375
2661279678725 -.003246839595040125 .00301892902064926 -.00576257401672891 -.0026
69376748194135 -199999999998819e-21 -.00750566896951897 41 1 259 L?-.00266937674
8194135 .0065002 -.003752661279678725 41 1 260 L?-.002669376748194135 -199999999
998819e-21 -.00750566896951897 204 12 261 4 1.047224197722146 .00058062325180586
6 -.00750578443957281 -.00591937674819414 .482572918379027 3160404959874335e-21
 -.003485958965472445 -.00649683959504013 6.28315866065404 .000580623251805866 2
309401076760045e-22 -.00591937674819414 50 252 917 0 1 246 225 268 +.00325 .0065
 -.003752776749732565 0 -1 -23112532288264e-29 0 23112532288264e-29 -1 141 267 2
51 267 267 225 50 246 918 0 1 238 252 269 +.00325 .0065 .00375277674973257 0 -.5
 -.866025403784439 0 .866025403784439 -.5 141 268 245 268 268 252 50 238 919 0 1
 230 246 270 +.00325 1677036662071475e-33 .00750555349946513 0 .5 -.866025403784
439 0 .866025403784439 .5 141 269 237 269 269 246 50 230 920 0 1 0 238 271 +.003
25 -.0065 .003752776749732565 0 1 0 0 0 1 141 270 229 270 270 238 141 271 116 27
1 271 230 40 3 263 0 1 3 .000672462383173417 .30472242110799 ??-.002669376748194
135 2000000000012855e-22 -.00750566896951897 -.003246839595040125 -.003481070979
35074 -.00549575623246879 -.002669376748194135 -.0065002 -.00375266127967873 41
 1 264 L?-.002669376748194135 2000000000012855e-22 -.00750566896951897 41 1 265
 L?-.002669376748194135 -.0065002 -.00375266127967873 204 12 266 4 2664652554837
73e-19 .000580623251805867 -.00750578443957281 -.00591937674819413 5.71856067436
202 3160404959874335e-21 -.003485958965472445 -.00649683959504013 5.235961109457
44 .000580623251805866 230940107674668e-21 -.00591937674819413 17 80 0 272 28 77
 78 149 257 0 101 +16 105 793 0 ?153 98 257 251 257 257 1 16 262 785 0 ?273 257
 140 245 140 140 1 17 273 0 223 89 92 81 139 262 0 136 +16 140 792 0 ?86 262 274
 245 262 262 1 17 86 0 275 153 83 84 136 140 0 147 +16 274 800 0 ?276 140 244 23
7 244 244 1 17 276 0 277 278 95 87 279 274 0 280 +16 244 784 0 ?92 274 281 237 2
74 274 1 17 92 0 223 273 89 90 280 244 0 139 +16 281 810 0 ?282 244 115 229 115
 115 1 17 282 0 283 32 74 29 284 281 0 278 +16 115 799 0 ?95 281 31 229 281 281
 1 17 95 0 277 276 278 93 33 115 0 279 +15 277 898 0 95 222 0 17 278 0 277 95 27
6 29 285 286 0 287 +17 33 0 288 284 131 29 95 115 0 282 -17 279 0 289 290 280 93
 276 274 0 131 -15 289 277 0 133 291 0 17 290 0 289 292 279 63 131 123 0 293 -17
 280 0 289 279 133 87 92 244 0 285 -17 131 0 288 33 65 93 290 123 0 0 +15 288 26
1 0 131 294 0 17 65 0 288 131 295 63 296 201 0 290 +17 295 0 288 65 297 51 298 2
00 0 299 +17 296 0 300 44 293 51 65 201 0 0 -15 300 461 0 293 301 0 17 44 0 300
 293 296 42 299 302 0 292 -17 293 0 300 296 44 63 292 199 0 0 -17 292 0 289 62 2
90 42 293 199 0 303 +16 199 371 0 ?292 144 193 170 193 193 1 16 144 368 0 ?59 16
2 199 163 162 162 1 16 162 367 0 ?142 158 144 163 144 144 1 17 142 0 135 59 304
 39 305 162 0 156 +17 304 0 135 142 139 60 133 132 0 305 -17 305 0 306 307 41 60
 142 162 0 0 -17 156 0 308 303 152 39 38 157 0 143 +15 308 3 0 156 309 310 17 30
3 0 308 299 156 42 41 311 0 307 +17 152 0 308 156 312 34 313 314 0 315 +16 157 3
84 0 ?156 126 311 176 314 311 1 16 126 164 0 ?316 121 157 128 0 0 1 16 311 387 0
 ?303 157 302 176 157 302 1 31 176 486 0 157 161 127 0 +.00325 0 0 1 0 0 0 0 -1
 .0065 16 314 399 0 ?152 317 160 176 317 157 1 16 317 396 0 ?312 318 314 176 318
 314 1 16 160 359 0 ?47 314 118 161 118 118 1 17 47 0 100 112 319 45 320 160 0 3
12 +17 319 0 100 47 101 54 19 9 0 320 -17 320 0 321 315 313 54 47 160 0 0 -17 31
2 0 308 152 50 45 322 317 0 117 +17 50 0 308 312 299 48 53 318 0 110 +17 322 0 3
23 119 117 48 312 317 0 0 -17 117 0 323 322 119 45 112 118 0 313 -15 323 465 0 1
17 324 0 17 119 0 323 117 322 69 110 207 0 0 -17 313 0 321 320 315 45 152 314 0
 0 -15 321 457 0 315 325 0 17 315 0 321 313 320 34 56 158 0 0 -17 56 0 145 19 14
6 54 315 158 0 319 +17 19 0 145 149 56 78 319 9 0 0 +17 149 0 145 147 19 75 80 2
57 0 326 -17 326 0 327 103 141 75 83 214 0 0 -15 327 60 0 285 12 0 17 103 0 327
 26 326 10 77 328 0 0 -17 141 0 327 326 285 81 89 329 0 0 -17 83 0 275 86 153 81
 326 214 0 273 +16 214 789 0 ?83 208 329 209 328 329 1 16 329 786 0 ?89 214 286
 209 214 286 1 16 328 794 0 ?77 27 104 209 27 214 1 17 77 0 272 80 28 75 103 328
 0 153 +16 27 804 0 ?21 330 328 209 330 328 1 16 104 798 0 ?28 328 98 106 98 98
 1 17 28 0 272 77 80 10 101 104 0 97 +15 272 894 0 77 331 0 17 101 0 100 319 97
 78 28 104 0 19 -14 331 891 332 ?0 221 272 4 215 -222 221 0 221 18 81 255 1 332
 1139 333 331 334 0 220 335 336 14 221 887 335 ?331 217 275 4 215 -331 217 331 2
17 18 14 222 895 337 ?217 99 277 4 215 -99 331 217 99 18 13 18 41 0 0 0 0 0 0 8
 12 14 12 756 338 ?14 0 339 4 340 -0 0 14 0 18 81 1 338 1142 333 12 341 0 337 34
2 343 14 14 726 342 ?150 12 100 4 5 -0 0 150 12 18 15 339 153 0 316 12 327 50 34
0 91 0 12 344 345 0 +-.00325 2172334604821125e-33 -.00750555349946513 1 0 0 0 0
 -1 50 344 2 0 309 183 340 0 +.00325 2172334604821125e-33 -.00750555349946513 1
 0 0 0 0 -1 50 345 122 0 109 340 346 0 +.00325 -.0065 .003752776749732565 0 1 0
 0 0 1 14 109 649 347 ?309 294 107 4 345 -0 0 309 294 18 50 346 123 0 294 345 34
8 0 +.00325 1677036662071475e-33 .00750555349946513 0 .5 -.866025403784439 0 .86
6025403784439 .5 14 294 665 349 ?109 291 288 4 346 -0 0 109 291 18 50 348 124 0
 291 346 350 0 +.00325 .0065 .00375277674973257 0 -.5 -.866025403784439 0 .86602
5403784439 -.5 14 291 681 351 ?294 138 289 4 348 -0 0 294 138 18 50 350 125 0 13
8 348 15 0 +.00325 .0065 -.003752776749732565 0 -1 -23112532288264e-29 0 2311253
2288264e-29 -1 14 138 697 352 ?291 150 135 4 350 -0 0 291 150 18 50 15 126 0 150
 350 5 0 +.00325 128562676089799e-32 -.00750555349946513 0 -.5 .866025403784439
 0 -.866025403784439 -.5 14 150 713 353 ?138 14 145 4 15 -0 0 138 14 18 81 1 353
 1148 333 150 354 0 352 355 356 80 255 1 333 357 358 9000 1 1 1 1 1 1 1 1 0 FFFF
TFTFFFFFFF1 81 1 354 1075 359 150 0 353 360 361 362 81 1 352 1147 333 138 361 0
 351 353 363 81 1 355 1149 333 309 364 0 353 365 366 82 255 1 356 -249036660 14
 309 161 355 ?367 109 308 4 344 +0 0 367 109 18 81 1 364 1080 359 309 0 355 368
 369 370 81 1 365 1150 333 367 369 0 355 371 372 82 1 366 -392626037 14 367 170
 365 ?373 309 374 4 183 +0 0 373 309 18 81 1 369 1081 359 367 0 365 364 375 376
 81 1 371 1151 333 373 375 0 365 377 378 82 1 372 -411303800 14 373 466 371 ?324
 367 379 4 164 +182 324 324 367 18 81 1 375 1082 359 373 0 371 369 380 381 81 1
 377 1152 333 324 380 0 371 382 383 82 1 378 -344260469 14 324 462 377 ?301 373
 323 4 164 +373 301 301 373 18 81 1 380 1083 359 324 0 377 375 384 385 81 1 382
 1153 333 301 384 0 377 386 387 82 1 383 -343801717 14 301 458 382 ?182 324 300
 4 164 +324 325 182 324 18 81 1 384 1084 359 301 0 382 380 388 389 81 1 386 1154
 333 182 388 0 382 390 391 82 1 387 -342687605 14 182 446 386 ?155 301 306 4 164
 +155 373 155 301 18 81 1 388 1085 359 182 0 386 384 392 393 81 1 390 1155 333 1
55 392 0 386 394 395 82 1 391 -340655989 14 155 450 390 ?325 182 154 4 164 +325
 182 325 182 18 81 1 392 1086 359 155 0 390 388 396 397 81 1 394 1156 333 325 39
6 0 390 398 399 82 1 395 -341114741 14 325 454 394 ?224 155 321 4 164 +301 155 2
24 155 18 81 1 396 1087 359 325 0 394 392 400 401 81 1 398 1157 333 224 400 0 39
4 402 403 82 1 399 -342228853 14 224 903 398 ?99 325 283 4 215 -217 99 99 325 18
 81 1 400 1088 359 224 0 398 396 404 405 81 1 402 1158 333 99 404 0 398 0 406 82
 1 403 -268566388 14 99 899 402 ?222 224 23 4 215 -224 222 222 224 18 81 1 404 1
089 359 99 0 402 400 407 408 82 1 406 -268107636 80 1 359 0 409 8001 0 0 0 0 3 5
 0 0 0 FFFFTFTFFFFFFF2 81 1 407 1090 359 222 0 337 404 410 411 83 255 3 408 .647
058823529412 .619607843137255 .588235294117647 81 1 337 1141 333 222 407 0 335 3
38 412 81 1 410 1091 359 217 0 220 407 413 414 83 3 411 .647058823529412 .619607
843137255 .588235294117647 81 1 220 1138 333 217 410 0 0 332 415 81 1 413 1092 3
59 221 0 335 410 334 416 83 3 414 .647058823529412 .619607843137255 .58823529411
7647 81 1 335 1140 333 221 413 0 332 337 417 81 1 334 1093 359 331 0 332 413 0 4
18 83 3 416 .647058823529412 .619607843137255 .588235294117647 83 3 418 .6470588
23529412 .619607843137255 .588235294117647 82 1 417 -265420660 82 1 415 -2649619
08 82 1 412 -266993524 79 255 15 409 SDL/TYSA_COLOUR83 3 405 .647058823529412 .6
19607843137255 .588235294117647 15 283 906 0 74 224 0 17 74 0 283 282 32 72 108
 114 0 284 +17 32 0 283 74 282 22 287 330 0 108 +16 114 809 0 ?74 31 0 116 31 31
 1 17 284 0 288 297 33 72 282 281 0 113 -17 297 0 288 295 284 66 113 120 0 298 -
17 113 0 107 108 68 72 297 120 0 0 +17 68 0 107 113 110 66 419 208 0 297 +17 110
 0 107 68 71 48 119 207 0 419 +17 419 0 379 53 298 48 68 208 0 322 -15 379 469 0
 298 373 0 17 53 0 379 298 419 51 50 318 0 295 -17 298 0 379 419 53 66 295 200 0
 0 -16 200 375 0 ?295 193 201 194 201 201 1 16 318 393 0 ?50 302 317 176 302 317
 1 16 302 390 0 ?299 311 318 176 311 318 1 17 299 0 308 50 303 51 44 302 0 296 +
16 207 379 0 ?110 201 208 202 208 208 1 17 287 0 327 285 26 29 32 330 0 0 -16 33
0 811 0 ?32 286 27 209 286 27 1 16 286 801 0 ?278 329 330 209 329 330 1 17 285 0
 327 141 287 87 278 286 0 0 -17 26 0 327 287 103 22 21 27 0 0 -83 3 401 .6470588
23529412 .619607843137255 .588235294117647 83 3 397 .647058823529412 .6196078431
37255 .588235294117647 83 3 393 .647058823529412 .619607843137255 .5882352941176
47 15 306 449 0 305 182 0 83 3 389 .647058823529412 .619607843137255 .5882352941
17647 83 3 385 .647058823529412 .619607843137255 .588235294117647 83 3 381 .6470
58823529412 .619607843137255 .588235294117647 83 3 376 .647058823529412 .6196078
43137255 .588235294117647 15 374 173 0 125 367 420 51 255 183 183 0 367 164 344
 0 -.00325 0 0 -1 0 0 .0034 0 0 1 17 125 0 374 125 125 0 421 121 0 0 +15 420 174
 0 422 367 0 17 422 0 420 422 422 0 316 126 0 0 -17 316 0 339 316 316 0 422 126
 0 0 +17 421 0 310 421 421 0 125 121 0 0 -15 310 158 0 421 309 0 81 1 368 1079 3
59 109 0 347 423 364 424 83 3 370 .647058823529412 .619607843137255 .58823529411
7647 81 1 347 1144 333 109 368 0 342 349 425 81 1 423 1078 359 294 0 349 426 368
 427 83 3 424 .647058823529412 .619607843137255 .588235294117647 81 1 349 1145 3
33 294 423 0 347 351 428 81 1 426 1077 359 291 0 351 361 423 429 83 3 427 .64705
8823529412 .619607843137255 .588235294117647 81 1 351 1146 333 291 426 0 349 352
 430 81 1 361 1076 359 138 0 352 354 426 431 83 3 429 .647058823529412 .61960784
3137255 .588235294117647 83 3 431 .647058823529412 .619607843137255 .58823529411
7647 82 1 430 -252182388 82 1 428 -253755252 81 1 342 1143 333 14 360 0 338 347
 432 82 1 425 -255328116 81 1 360 1074 359 14 0 342 341 354 433 82 1 432 -247791
476 81 1 341 1073 359 12 0 338 0 360 434 83 3 433 .647058823529412 .619607843137
255 .588235294117647 83 3 434 .647058823529412 .619607843137255 .588235294117647
 82 1 363 -250609524 83 3 362 .647058823529412 .619607843137255 .588235294117647
 79 14 358 SWEntUnchanged82 1 343 -245038964 15 275 890 0 83 221 0 82 1 336 -266
534772 17 153 0 275 83 86 75 147 105 0 149 +17 89 0 223 92 273 87 141 329 0 276
 +15 223 886 0 92 217 0 31 127 187 0 121 176 128 0 +.00325 0 0 1 0 0 0 0 -1 .003
4 17 41 0 306 305 307 39 303 311 0 142 -17 307 0 306 41 305 42 62 193 0 0 -17 62
 0 289 133 292 60 307 193 0 304 +17 133 0 289 280 62 90 304 132 0 0 +17 139 0 13
5 304 136 90 273 262 0 133 -40 5 253 0 1 5 .001733301205539575 .3137126885072315
 ??-690426901002143e-19 .0065 -.01009851494176832 -.00288914510259775 .0065 -.00
291820081298862 -.0032118586785979 .0065 .000929074521320109 -.00181745080138135
 .0065 .00619780731968441 .00660628887250895 .0065 .02265766981248145 41 1 254 L
?-690426901002143e-19 .0065 -.01009851494176832 41 1 255 L?.00660628887250895 .0
065 .02265766981248145 204 20 256 4 .00634573819203575 -.003319042690100215 .571
90464993797 .003180957309899785 -.000834575936743943 -.00613914510259775 1.14881
261948125 .0003608548974022525 -.00468185127105267 -.0064618586785979 1.71276923
148374 3814132140210055e-20 ????-.026410446562214 .003356288872508955 2.86221690
8719785 .00985628887250895 40 3 247 0 1 3 .000672462383173416 .30472242110799 ??
-.002669376748194135 -199999999998323e-21 .00750566896951897 -.00324683959504012
5 .003481070979350745 .00549575623246879 -.002669376748194135 .0065002 .00375266
127967873 41 1 248 L?-.002669376748194135 -199999999998323e-21 .0075056689695189
7 41 1 249 L?-.002669376748194135 .0065002 .00375266127967873 204 12 250 4 3.141
61930011534 .000580623251805867 -.00750578443957281 -.00591937674819413 2.576968
02077222 3160404959875835e-21 -.00348595896547244 -.00649683959504012 2.09436845
586765 .000580623251805866 230940107674668e-21 -.00591937674819413 40 3 239 0 1
 3 .000672462383173416 .30472242110799 ??-.002669376748194135 -.0065002 .0037526
61279678725 -.003246839595040125 -.00301892902064926 .00576257401672891 -.002669
376748194135 200000000001825e-21 .00750566896951897 41 1 240 L?-.002669376748194
135 -.0065002 .003752661279678725 41 1 241 L?-.002669376748194135 20000000000182
5e-21 .00750566896951897 204 12 242 4 4.18881685131194 .000580623251805866 -.007
50578443957281 -.00591937674819413 3.62416557196882 3160404959874335e-21 -.00348
595896547245 -.00649683959504013 3.141566007064245 .000580623251805867 230940107
6760415e-22 -.00591937674819413 40 5 231 0 1 5 .00173330120553957 .3137126885072
315 ??-690426901002129e-19 -.0065 -.01009851494176832 -.002889145102597745 -.006
5 -.002918200812988625 -.0032118586785979 -.0065 .000929074521320106 -.001817450
80138135 -.0065 .00619780731968441 .00660628887250895 -.0065 .0226576698124814 4
1 1 232 L?-690426901002129e-19 -.0065 -.01009851494176832 41 1 233 L?.0066062888
7250895 -.0065 .0226576698124814 204 20 234 4 5.71128065724162 .0031809573098997
9 -.0138512916915009 -.00331904269010021 5.13437268769834 .0003608548974022535 -
.00667097756272119 -.00613914510259775 4.57041607569585 3814132140210055e-20 -.0
0282370222841246 -.0064618586785979 ????3.4209683984598 .00985628887250894 .0189
0489306274885 .003356288872508945 141 226 106 226 226 218 141 192 194 192 192 18
9 141 184 202 435 436 164 141 435 161 437 184 164 141 436 194 184 438 164 141 43
8 170 436 439 164 141 439 163 438 437 164 141 437 159 439 435 164 40 3 178 0 1 3
 .000672462383173417 .30472242110799 ??.002669376748194135 2000000000012855e-22
 -.00750566896951897 .003246839595040125 -.00348107097935074 -.00549575623246879
 .002669376748194135 -.0065002 -.00375266127967873 41 1 179 L?.00266937674819413
5 2000000000012855e-22 -.00750566896951897 41 1 180 L?.002669376748194135 -.0065
002 -.00375266127967873 204 12 181 4 6.28315866065404 .000580623251805867 -.0075
0578443957281 -.000580623251805867 .564624632817571 3160404959874335e-21 -.00348
5958965472445 -3160404959874545e-21 1.047224197722146 .000580623251805866 230940
107674668e-21 -.000580623251805866 40 5 172 0 1 5 .001733301205539575 .313712688
5072315 ??690426901002143e-19 .0065 -.01009851494176832 .00288914510259775 .0065
 -.00291820081298862 .0032118586785979 .0065 .000929074521320109 .00181745080138
135 .0065 .00619780731968441 -.00660628887250895 .0065 .02265766981248145 41 1 1
73 L?690426901002143e-19 .0065 -.01009851494176832 41 1 174 L?-.0066062888725089
5 .0065 .02265766981248145 204 20 175 4 .00634573819203575 -.003180957309899785
 5.71128065724162 .003180957309899785 -.000834575936743943 -.000360854897402252
 5.13437268769834 .0003608548974022525 -.00468185127105267 -3814132140210045e-20
 4.57041607569585 3814132140210055e-20 ????-.026410446562214 -.00985628887250895
 3.4209683984598 .00985628887250895 19 13 135 0 1 0 8 4 S0 74 4 CI16 index_map_o
ffset0 0 1 dCCZ20 11 2 0 0 402 334 0 0 0 0 0 0 0 0 0 0 0 0 0 0 0 0 0 0 1 0 
