**ABCDEFGHIJKLMNOPQRSTUVWXYZabcdefghijklmnopqrstuvwxyz**************************
**PARASOLID !"#$%&'()*+,-./:;<=>?@[\]^_`{|}~0123456789**************************
**PART1;
MC=AMD64;
MC_MODEL=Intel64 Family 6 Model 15 Stepping 11, GenuineIntel;
MC_ID=unknown;
OS=Windows_NT;
OS_RELEASE=unknown;
FRU=Parasolid Version 30.0, build 226,  7-26-2017;
APPL=SOLIDWORKS 2018-2017278;
SITE=;
USER=unknown;
FORMAT=text;
GUISE=transmit;
KEY=Screw DIN 912 - M3 x 40 --- 18N;
FILE=Screw DIN 912 - M3 x 40 --- 18N.x_t;
DATE=Fri Apr 17 15:06:59 2020;
**PART2;
SCH=SCH_3000226_30000;
USFLD_SIZE=0;
**PART3;
**END_OF_HEADER*****************************************************************
T51 : TRANSMIT FILE created by modeller version 300022623 SCH_3000226_30000_1300
6205 0 12 33 CCCCCCI4 mesh1006 0 I8 polyline1008 0 CCCCCCCDI5 owner1040 0 CCCCCC
I13 boundary_mesh1006 0 I17 boundary_polyline1008 0 CCCA16 index_map_offset0 0 1
 dA9 index_map82 0 A17 node_id_index_map82 0 A20 schema_embedding_map82 0 A5 chi
ld12 0 A14 lowest_node_id0 0 1 dZ1 422 0 2 0 0 0 0 0 0 1e3 1e-8 0 3 0 1 0 1 1 4
 5 6 7 0 0 8 9 10 0 0 0 0 0 0 70 11 CI9 list_type0 0 1 uI10 notransmit0 0 1 lCCC
DCCDI12 finger_index0 0 1 dI12 finger_block1012 0 CZ2 0 4 T1 0 0 3 20 1 11 11 13
 255 4 47 0 1 0 12 0 0 13 0 52 255 5 355 0 14 15 0 0 +-.04275 -517391362311687e-
32 0 1 1210272192541968e-31 0 .0015 .70710678118655 .707106781186545 -1210272192
541968e-31 1 0 31 255 6 339 0 9 16 0 0 +-.043 -520417042793042e-32 0 -1 -1210272
192541958e-31 0 1210272192541958e-31 -1 0 .00125000000000002 29 255 7 152 0 10 1
7 0 1592406554413935e-34 1301042606982604e-33 .001443375672974066 19 8 CCCCCCCA5
 owner12 0 Z8 51 0 1 13 0 18 V0 16 255 9 336 0 ?19 0 20 6 0 0 1 18 255 10 150 0
 21 0 22 7 ?1 17 255 21 0 23 24 25 10 26 27 0 28 +18 22 221 0 29 10 30 31 ?1 17
 29 0 32 33 34 22 25 35 0 36 -18 30 223 0 37 22 38 39 ?1 29 31 297 0 22 39 40 -.
0013 .00125 .000721687836487035 29 39 298 0 30 41 31 -.0013 .00125 -.00072168783
6487035 29 40 295 0 42 31 43 16940658945086e-32 -.00125 .000721687836487035 18 4
2 232 0 44 45 0 40 ?1 29 43 294 0 45 40 46 16940658945086e-32 -.00125 -.00072168
7836487029 18 45 230 0 47 48 42 43 ?1 29 46 293 0 48 43 49 -671511211122599e-48
 495487818168213e-32 -.001443375672974064 18 48 228 0 50 51 45 46 ?1 29 49 292 0
 51 46 17 -16940658945086e-32 .00125 -.000721687836487035 18 51 226 0 52 53 48 4
9 ?1 29 17 291 0 53 49 7 -16940658945086e-32 .00125 .000721687836487035 18 53 22
4 0 25 54 51 17 ?1 17 25 0 23 21 36 53 29 35 0 34 +18 54 231 0 24 55 53 56 ?1 17
 24 0 23 36 21 54 28 57 0 58 -18 55 229 0 59 60 54 61 ?1 29 56 302 0 54 0 61 -.0
013 1043669862608496e-33 .001443375672974066 29 61 301 0 55 56 62 -.0013 -.00125
 .000721687836487035 29 62 300 0 60 61 41 -.0013 -.00125 -.000721687836487029 18
 60 227 0 63 38 55 62 ?1 29 41 299 0 38 62 39 -.0013 477869532865323e-32 -.00144
3375672974064 18 38 225 0 64 30 60 41 ?1 17 64 0 65 66 67 38 50 68 0 69 -15 255
 65 248 0 67 70 0 17 66 0 65 47 64 60 71 72 0 73 -17 67 0 65 64 47 48 74 75 0 76
 +17 50 0 77 78 69 48 64 68 0 67 +16 68 194 0 ?50 79 80 81 0 0 1 17 69 0 77 50 3
7 38 82 83 0 71 -15 77 244 0 78 84 0 17 37 0 77 69 78 30 52 79 0 82 -17 82 0 85
 86 71 30 69 83 0 33 +16 83 187 0 ?82 87 72 88 0 0 1 17 71 0 85 82 73 38 66 72 0
 0 +15 85 259 0 89 90 0 17 73 0 85 71 91 60 92 93 0 0 +16 72 191 0 ?71 83 93 94
 0 0 1 16 93 195 0 ?73 72 95 96 0 0 1 30 255 94 287 0 72 96 88 0 +-.0013 -.00125
 -.000721687836487029 -1173683280263406e-31 .866025403784439 -.5 30 96 288 0 93
 97 94 0 +-.0013 -.00125 .000721687836487035 -1501113831973645e-46 1201851678989
726e-30 -1 30 88 286 0 83 94 98 0 +-.0013 477869532865323e-32 -.0014433756729740
64 -1173683280263406e-31 .866025403784439 .5 30 98 285 0 87 88 99 0 +-.0013 .001
25 -.000721687836487035 0 0 1 16 87 183 0 ?86 57 83 98 0 0 1 30 99 284 0 27 98 1
00 0 +-16940658945086e-32 .00125 .000721687836487035 1173683280263406e-31 -.8660
25403784439 .5 16 27 203 0 ?21 101 0 99 0 0 1 30 100 283 0 101 99 102 0 +-165320
8705508e-46 121985271563739e-32 .001443375672974066 1173683280263406e-31 -.86602
5403784439 -.5 16 101 206 0 ?103 104 27 100 0 0 1 30 102 282 0 104 100 105 0 +16
940658945086e-32 -.00125 .000721687836487035 -1501113831973645e-46 1201851678989
726e-30 -1 16 104 209 0 ?106 75 101 102 0 0 1 30 105 281 0 75 102 107 0 +1694065
8945086e-32 -.00125 -.000721687836487029 -1173683280263406e-31 .866025403784439
 -.5 16 75 212 0 ?67 108 104 105 0 0 1 30 107 280 0 108 105 109 0 +-671511211122
599e-48 495487818168213e-32 -.001443375672974064 -1173683280263406e-31 .86602540
3784439 .5 16 108 215 0 ?78 110 75 107 0 0 1 30 109 279 0 110 107 111 0 +-169406
58945086e-32 .00125 -.000721687836487035 0 0 1 16 110 218 0 ?34 112 108 109 0 0
 1 30 111 278 0 35 109 113 0 +-.0013 .00125 .000721687836487035 1 13552527156068
8e-30 0 16 35 186 0 ?25 114 79 111 0 0 1 30 113 277 0 79 111 81 0 +-.0013 .00125
 -.000721687836487035 1 135525271560688e-30 0 16 79 190 0 ?52 35 68 113 0 0 1 30
 81 276 0 68 113 115 0 +-.0013 477869532865323e-32 -.001443375672974064 1 135525
271560688e-30 0 30 115 275 0 80 81 116 0 +-.0013 -.00125 -.000721687836487029 1
 135525271560688e-30 0 16 80 198 0 ?47 68 117 115 0 0 1 30 116 274 0 117 115 118
 0 +-.0013 -.00125 .000721687836487035 1 135525271560688e-30 0 16 117 202 0 ?44
 80 57 116 0 0 1 30 118 273 0 57 116 119 0 +-.0013 1043669862608496e-33 .0014433
75672974066 1 135525271560688e-30 0 16 57 182 0 ?28 117 87 118 0 0 1 31 119 96 0
 114 118 120 0 +-.003 -363081657762587e-33 0 1 1210272192541958e-31 0 -121027219
2541958e-31 1 0 .0015 16 114 60 0 ?121 122 35 119 0 0 1 31 120 97 0 122 119 123
 0 +-.003 -363081657762587e-33 0 1 1210272192541958e-31 0 -1210272192541958e-31
 1 0 .00275 16 122 65 0 ?124 125 114 120 0 0 1 31 123 98 0 125 120 126 0 +-15e-5
 -1815408288812935e-35 0 1 1210272192541958e-31 0 -1210272192541958e-31 1 0 .002
75 16 125 70 0 ?127 128 122 123 0 0 1 31 126 99 0 128 123 16 0 +318481310882788e
-33 3854490744057485e-50 0 1 1210272192541958e-31 0 -1210272192541958e-31 1 0 .0
026 16 128 75 0 ?129 20 125 126 0 0 1 31 16 333 0 20 126 6 0 --.04275 -517391362
311687e-32 0 -1 -1210272192541968e-31 0 1210272192541968e-31 -1 0 .0015 16 20 33
0 0 ?130 9 128 16 0 0 1 17 130 0 131 130 130 0 132 20 0 0 +15 131 331 0 130 133
 134 17 132 0 135 132 132 0 130 20 0 0 -15 135 350 0 132 14 0 14 255 14 348 136
 ?0 90 137 4 5 +0 0 0 90 18 81 255 1 136 409 138 14 139 0 0 140 141 14 90 257 14
0 ?14 142 85 4 143 +0 0 14 142 18 15 137 349 0 144 14 135 13 18 50 0 0 0 0 0 0 8
 12 14 12 83 145 ?146 0 147 4 15 +0 0 146 0 18 81 1 145 411 138 12 148 0 140 149
 150 14 146 78 149 ?151 12 152 4 153 +0 0 151 12 18 15 147 174 0 26 12 154 50 25
5 15 94 0 12 153 5 0 +159240655441394e-33 1927245372028745e-50 0 1 1210272192541
958e-31 0 -1210272192541958e-31 1 0 54 255 153 93 0 146 155 15 0 +-15e-5 0 0 1 1
210272192541958e-31 0 .0026 15e-5 -1210272192541958e-31 1 0 51 255 155 92 0 151
 156 153 0 +0 0 0 1 1210272192541958e-31 0 .00275 -1210272192541958e-31 1 0 14 1
51 73 157 ?158 146 159 4 155 +0 0 158 146 18 50 156 91 0 158 160 155 0 +-.003 .0
0275 0 -1 -1210272192541958e-31 0 1210272192541958e-31 -1 0 14 158 68 161 ?133 1
51 162 4 156 +0 0 133 151 18 51 160 90 0 133 163 156 0 +0 0 0 1 1210272192541958
e-31 0 .0015 -1210272192541958e-31 1 0 14 133 63 164 ?165 158 131 4 160 +0 0 165
 158 18 50 163 89 0 165 166 160 0 +-.043 .0015 0 -1 -1210272192541958e-31 0 1210
272192541958e-31 -1 0 14 165 58 167 ?168 133 169 4 163 +0 0 168 133 18 50 166 26
5 0 168 170 163 0 +-.0013 .00125 .000721687836487035 -677626357803441e-31 .5 .86
6025403784439 0 -.866025403784439 .5 14 168 233 171 ?172 165 23 4 166 -0 0 172 1
65 18 50 170 266 0 142 173 166 0 +-.0013 1043669862608496e-33 .00144337567297406
6 67762635780344e-30 -.5 .866025403784439 0 -.866025403784439 -.5 14 142 253 174
 ?90 175 176 4 170 -0 0 90 175 18 50 173 267 0 175 177 170 0 +-.0013 -.00125 .00
0721687836487035 135525271560688e-30 -1 -1201851678989726e-30 0 1201851678989726
e-30 -1 14 175 249 178 ?142 70 179 4 173 -0 0 142 70 18 50 177 268 0 70 180 173
 0 +-.0013 -.00125 -.000721687836487029 677626357803441e-31 -.5 -.86602540378443
9 0 .866025403784439 -.5 14 70 245 181 ?175 84 65 4 177 -0 0 175 84 18 50 180 26
9 0 84 182 177 0 +-.0013 477869532865323e-32 -.001443375672974064 -6776263578034
4e-30 .5 -.866025403784439 0 .866025403784439 .5 14 84 241 183 ?70 172 77 4 180
 -0 0 70 172 18 50 182 270 0 172 143 180 0 +-.0013 .00125 -.000721687836487035 -
135525271560688e-30 1 0 -1 -135525271560688e-30 0 14 172 237 184 ?84 168 32 4 18
2 -0 0 84 168 18 50 143 272 0 90 0 182 0 +-.0013 1035826617665654e-33 .001443375
672974066 1 135525271560688e-30 -284655659989077e-46 -135525271560688e-30 1 0 81
 1 184 422 138 172 185 0 183 0 186 15 32 240 0 34 172 0 17 34 0 32 29 52 53 187
 110 0 26 +17 52 0 32 34 33 51 37 79 0 78 +17 187 0 147 76 26 51 34 110 0 0 -17
 26 0 147 187 188 53 21 27 0 0 -17 188 0 147 26 189 10 103 101 0 0 -17 189 0 147
 188 74 42 106 104 0 0 -17 103 0 176 59 28 42 188 101 0 189 +15 176 256 0 103 14
2 0 17 59 0 176 58 103 55 44 117 0 92 -17 28 0 176 103 58 10 24 57 0 188 +17 58
 0 176 28 59 54 91 95 0 89 -17 91 0 85 73 89 55 58 95 0 0 +16 95 199 0 ?91 93 11
2 97 0 0 1 17 89 0 85 91 86 54 36 112 0 0 +17 86 0 85 89 82 22 33 87 0 0 +17 36
 0 23 25 24 22 89 112 0 86 -16 112 179 0 ?89 95 110 190 0 0 1 30 190 290 0 112 0
 97 0 +-.0013 .00125 .000721687836487035 1173683280263406e-31 -.866025403784439
 .5 30 97 289 0 95 190 96 0 +-.0013 1043669862608496e-33 .001443375672974066 117
3683280263406e-31 -.866025403784439 -.5 15 23 236 0 21 168 0 17 33 0 32 52 29 30
 86 87 0 0 -17 44 0 179 106 92 42 59 117 0 103 +17 92 0 179 44 63 55 73 93 0 91
 -15 179 252 0 106 175 0 17 63 0 179 92 106 60 47 80 0 66 -17 106 0 179 63 44 45
 189 104 0 74 +17 47 0 65 67 66 45 63 80 0 106 +17 74 0 147 189 76 45 67 75 0 0
 -17 76 0 147 74 187 48 78 108 0 0 -17 78 0 77 37 50 51 76 108 0 187 +80 255 1 1
38 191 192 9000 1 1 1 1 1 1 1 1 0 FFFFTFTFFFFFFF1 81 1 185 372 193 172 0 184 194
 195 196 81 1 183 421 138 84 195 0 181 184 197 82 255 1 186 -1356201831 81 1 195
 373 193 84 0 183 185 198 199 81 1 181 420 138 70 198 0 178 183 200 82 1 197 -13
56070759 81 1 198 374 193 70 0 181 195 201 202 81 1 178 419 138 175 201 0 174 18
1 203 82 1 200 -1355939687 81 1 201 375 193 175 0 178 198 204 205 81 1 174 418 1
38 142 204 0 171 178 206 82 1 203 -1355808615 81 1 204 376 193 142 0 174 201 207
 208 81 1 171 417 138 168 194 0 167 174 209 82 1 206 -1355677543 81 1 194 371 19
3 168 0 171 210 185 211 81 1 167 416 138 165 210 0 164 171 212 82 1 209 -1355546
471 81 1 210 370 193 165 0 167 213 194 214 81 1 164 415 138 133 213 0 161 167 21
5 82 1 212 -1391525734 81 1 213 369 193 133 216 164 217 210 218 81 1 161 414 138
 158 217 0 157 164 219 82 1 215 -1390935910 81 1 217 368 193 158 0 161 220 213 2
21 81 1 157 413 138 151 220 0 149 161 222 82 1 219 -1390346089 81 1 220 367 193
 151 0 157 223 217 224 81 1 149 412 138 146 223 0 145 157 225 82 1 222 -13897562
65 81 1 223 366 193 146 0 149 148 220 226 82 1 225 -1389166441 80 1 193 0 227 80
01 0 0 0 0 3 5 0 0 0 FFFFTFTFFFFFFF2 81 1 148 365 193 12 0 145 0 223 228 83 255
 3 226 .647058823529412 .619607843137255 .588235294117647 83 3 228 .647058823529
412 .619607843137255 .588235294117647 79 255 15 227 SDL/TYSA_COLOUR83 3 224 .647
058823529412 .619607843137255 .588235294117647 83 3 221 .647058823529412 .619607
843137255 .588235294117647 81 3 216 364 229 133 0 213 0 0 230 0 0 83 3 218 .6470
58823529412 .619607843137255 .588235294117647 80 3 229 231 232 9000 0 0 0 0 3 5
 0 0 0 FFFFTFFFFFFFFF5 5 5 86 255 3 230 1 1210272192541958e-31 0 1e100 1e100 1e1
00 -.025 -3025680481354895e-33 0 79 12 232 TexSplitFace83 3 214 .647058823529412
 .619607843137255 .588235294117647 83 3 211 .647058823529412 .619607843137255 .5
88235294117647 81 1 207 377 193 90 0 140 204 139 233 83 3 208 .647058823529412 .
619607843137255 .588235294117647 81 1 140 410 138 90 207 0 136 145 234 81 1 139
 378 193 14 0 136 207 0 235 83 3 233 .647058823529412 .619607843137255 .58823529
4117647 83 3 235 .647058823529412 .619607843137255 .588235294117647 82 1 234 -13
65507943 83 3 205 .647058823529412 .619607843137255 .588235294117647 83 3 202 .6
47058823529412 .619607843137255 .588235294117647 83 3 199 .647058823529412 .6196
07843137255 .588235294117647 83 3 196 .647058823529412 .619607843137255 .5882352
94117647 79 14 192 SWEntUnchanged15 169 337 0 19 165 0 17 19 0 169 19 19 0 144 9
 0 0 +17 144 0 137 144 144 0 19 9 0 0 -15 162 126 0 121 158 236 17 121 0 162 121
 121 0 237 114 0 0 +15 236 67 0 238 158 0 17 238 0 236 238 238 0 124 122 0 0 -17
 124 0 159 124 124 0 238 122 0 0 +15 159 127 0 124 151 239 15 239 72 0 240 151 0
 17 240 0 239 240 240 0 127 125 0 0 -17 127 0 152 127 127 0 240 125 0 0 +15 152
 128 0 127 146 241 15 241 77 0 242 146 0 17 242 0 241 242 242 0 129 128 0 0 -17
 129 0 154 129 129 0 242 128 0 0 +15 154 129 0 129 12 0 17 237 0 134 237 237 0 1
21 114 0 0 -15 134 62 0 237 133 0 82 1 150 -1388576615 82 1 141 -1345453926 19 1
3 46 0 1 0 8 4 S0 74 4 CI16 index_map_offset0 0 1 dCCZ20 11 3 0 0 184 216 139 0
 0 0 0 0 0 0 0 0 0 0 0 0 0 0 0 0 1 0 
