**ABCDEFGHIJKLMNOPQRSTUVWXYZabcdefghijklmnopqrstuvwxyz**************************
**PARASOLID !"#$%&'()*+,-./:;<=>?@[\]^_`{|}~0123456789**************************
**PART1;
MC=AMD64;
MC_MODEL=Intel64 Family 6 Model 15 Stepping 11, GenuineIntel;
MC_ID=unknown;
OS=Windows_NT;
OS_RELEASE=unknown;
FRU=Parasolid Version 30.0, build 226,  7-26-2017;
APPL=SOLIDWORKS 2018-2017278;
SITE=;
USER=unknown;
FORMAT=text;
GUISE=transmit;
KEY=Screw DIN 7985 - M3 x 16 --- 16N;
FILE=Screw DIN 7985 - M3 x 16 --- 16N.x_t;
DATE=Fri Apr 24 16:49:29 2020;
**PART2;
SCH=SCH_3000226_30000;
USFLD_SIZE=0;
**PART3;
**END_OF_HEADER*****************************************************************
T51 : TRANSMIT FILE created by modeller version 300022623 SCH_3000226_30000_1300
6205 0 12 33 CCCCCCI4 mesh1006 0 I8 polyline1008 0 CCCCCCCDI5 owner1040 0 CCCCCC
I13 boundary_mesh1006 0 I17 boundary_polyline1008 0 CCCA16 index_map_offset0 0 1
 dA9 index_map82 0 A17 node_id_index_map82 0 A20 schema_embedding_map82 0 A5 chi
ld12 0 A14 lowest_node_id0 0 1 dZ1 793 0 2 0 0 0 0 0 0 1e3 1e-8 0 3 0 1 0 1 1 4
 5 6 7 0 0 8 9 10 0 0 0 0 0 0 70 11 CI9 list_type0 0 1 uI10 notransmit0 0 1 lCCC
DCCDI12 finger_index0 0 1 dI12 finger_block1012 0 CZ2 0 4 T1 0 0 2 20 1 11 11 13
 255 4 41 0 1 0 12 0 0 13 0 50 255 5 696 0 14 15 0 0 -0 -41023865985938e-32 .001
4 .4461978131098095 2622404808326605e-31 -.894934361602025 -.894934361602025 0 -
.4461978131098095 30 255 6 692 0 16 17 0 0 --.001960633002291145 -.0004224644449
150505 -37e-5 -.894934361602025 .4461978131098095 518323541069932e-31 29 255 7 6
76 0 18 19 0 -.000187869730483241 -.0013063316076711 -37e-5 19 8 CCCCCCCA5 owner
12 0 Z8 45 0 1 13 0 20 V0 16 255 9 586 0 ?21 0 22 23 0 0 1 18 255 10 129 0 24 0
 25 26 ?1 17 255 24 0 27 28 29 10 30 31 0 32 +18 25 306 0 33 10 34 35 ?1 29 26 6
68 0 10 36 37 -.000187869730483241 -37e-5 .0013063316076711 29 36 667 0 38 39 26
 -.00175 -37e-5 .000527482185906493 29 37 669 0 40 26 41 -.000187869730483241 .0
013063316076711 37e-5 18 40 309 0 42 34 43 37 ?1 29 41 670 0 43 37 44 -.00018786
9730483241 .0013063316076711 -37e-5 18 43 311 0 45 40 46 41 ?1 29 44 671 0 47 41
 48 -.00175 .000527482185906492 -37e-5 18 47 324 0 49 50 51 44 ?1 29 48 672 0 50
 44 52 -.00175 .000527482185906492 37e-5 18 50 310 0 53 54 47 48 ?1 29 52 673 0
 55 48 56 -.000187869730483241 -.0013063316076711 37e-5 18 55 318 0 57 18 58 52
 ?1 29 56 674 0 59 52 19 -.00175 -.000527482185906493 37e-5 18 59 319 0 60 61 62
 56 ?1 29 19 675 0 61 56 7 -.00175 -.000527482185906493 -37e-5 18 61 328 0 63 64
 59 19 ?1 17 63 0 65 66 67 61 68 69 0 70 +18 64 316 0 67 71 61 72 ?1 17 67 0 65
 63 73 64 74 75 0 68 -18 71 327 0 76 77 64 78 ?1 29 72 523 0 64 79 80 -.00175 -3
7e-5 -37e-5 29 79 526 0 62 0 72 -.00175 -37e-5 37e-5 29 80 520 0 51 72 81 -.0017
5 37e-5 -37e-5 18 51 325 0 82 47 77 80 ?1 29 81 517 0 54 80 83 -.00175 37e-5 37e
-5 18 54 323 0 84 85 50 81 ?1 29 83 502 0 58 81 86 -274553797879303e-19 -37e-5 3
7e-5 18 58 320 0 28 55 85 83 ?1 29 86 499 0 87 83 88 -274553797879303e-19 -37e-5
 -37e-5 18 87 315 0 73 89 18 86 ?1 29 88 496 0 46 86 90 -274553797879303e-19 37e
-5 -37e-5 18 46 312 0 91 43 92 88 ?1 29 90 493 0 34 88 93 -274553797879303e-19 3
7e-5 37e-5 18 34 308 0 94 25 40 90 ?1 29 93 661 0 92 90 95 -.000187869730483241
 37e-5 -.0013063316076711 18 92 313 0 96 46 89 93 ?1 29 95 662 0 89 93 78 -.0001
87869730483241 -37e-5 -.0013063316076711 18 89 314 0 97 92 87 95 ?1 29 78 663 0
 71 95 98 -.00175 -37e-5 -.000527482185906493 29 98 664 0 77 78 35 -.00175 37e-5
 -.000527482185906493 18 77 326 0 99 51 71 98 ?1 29 35 665 0 25 98 39 -.00018786
9730483241 37e-5 .0013063316076711 29 39 666 0 85 35 36 -.00175 37e-5 .000527482
185906493 18 85 307 0 100 58 54 39 ?1 17 100 0 101 84 33 85 102 103 0 104 -15 25
5 101 385 0 100 105 0 17 84 0 101 106 100 54 104 107 0 108 +17 33 0 101 100 106
 25 109 110 0 102 -17 102 0 111 32 112 25 100 103 0 113 +16 103 225 0 ?102 114 1
15 116 0 0 1 17 104 0 117 118 119 85 84 107 0 112 -15 117 431 0 118 120 0 17 118
 0 117 121 104 38 112 122 0 0 +17 119 0 117 104 123 54 124 125 0 0 +16 107 257 0
 ?84 31 125 126 0 0 1 17 112 0 111 102 30 85 118 122 0 0 -15 111 381 0 32 14 0 1
7 30 0 111 112 32 38 24 31 0 29 -16 122 221 0 ?118 127 0 128 0 0 1 16 127 253 0
 ?121 129 122 130 0 0 1 30 128 683 0 122 116 131 0 --.00175 -1545668464614115e-3
4 .000527482185906493 0 1 2930276141852715e-31 30 116 682 0 103 132 128 0 --4329
411775086725e-35 37e-5 .0014 -.894934361602025 0 -.4461978131098095 30 131 684 0
 31 128 133 0 -4329411775086725e-35 -37e-5 .0014 -.894934361602025 0 -.446197813
1098095 16 31 224 0 ?24 134 107 131 0 0 1 30 133 685 0 135 131 136 0 +-.00196063
3002291145 .00042246444491505 37e-5 .894934361602025 .4461978131098095 431936284
2249435e-32 16 135 231 0 ?137 115 138 133 0 0 1 31 255 136 686 0 139 133 140 0 -
-.00456358241491322 -.000875318258911803 0 .4461978131098095 -.894934361602025 0
 .894934361602025 .4461978131098095 0 .00490340265907692 16 139 165 0 ?141 142 1
43 136 0 0 1 30 140 687 0 138 136 144 0 +-.001960633002291145 .00042246444491505
 -37e-5 .894934361602025 .4461978131098095 518323541069932e-31 16 138 233 0 ?145
 135 146 140 0 0 1 30 144 688 0 147 140 148 0 +-.00175 .000527482185906492 0 0 0
 -1 16 147 260 0 ?49 125 149 144 0 0 1 31 148 689 0 150 144 151 0 +-.00456358241
491322 .000875318258911802 0 .4461978131098095 .894934361602025 0 -.894934361602
025 .4461978131098095 0 .00490340265907692 16 150 141 0 ?152 153 154 148 0 0 1 3
0 151 690 0 155 148 17 0 --.001960633002291145 -.0004224644449150505 37e-5 -.894
934361602025 .4461978131098095 4319362842249435e-32 16 155 252 0 ?156 16 134 151
 0 0 1 30 17 691 0 157 151 6 0 --.00175 -.000527482185906493 0 0 0 1 16 157 245
 0 ?158 69 129 17 0 0 1 17 158 0 117 68 159 61 160 157 0 0 +16 69 272 0 ?63 161
 157 162 0 0 1 16 129 249 0 ?159 157 127 163 0 0 1 17 159 0 117 158 121 59 164 1
29 0 0 +30 163 488 0 129 130 162 0 +-.00175 -3581739319818185e-35 37e-5 0 -1 -96
8037654004915e-31 30 130 489 0 127 0 163 0 +-.00175 -37e-5 0 0 0 -1 30 162 486 0
 69 163 165 0 +-.00175 429808718378182e-34 -37e-5 0 -1 -1161645184805898e-31 30
 165 485 0 161 162 166 0 +-.00175 -37e-5 0 0 0 -1 16 161 239 0 ?167 168 69 165 0
 0 1 30 166 483 0 169 165 170 0 +-.00175 37e-5 0 0 0 -1 16 169 266 0 ?99 149 168
 166 0 0 1 30 170 482 0 149 166 171 0 +-.00175 429808718378182e-34 -37e-5 0 -1 -
1161645184805898e-31 16 149 263 0 ?82 147 169 170 0 0 1 30 171 480 0 125 170 126
 0 +-.00175 -3581739319818185e-35 37e-5 0 -1 -968037654004915e-31 16 125 227 0 ?
119 107 147 171 0 0 1 30 126 479 0 107 171 172 0 +-.00175 37e-5 0 0 0 -1 30 172
 465 0 115 126 173 0 +-.00175 37e-5 37e-5 1 0 0 16 115 230 0 ?106 103 135 172 0
 0 1 30 173 462 0 146 172 174 0 +-.00175 37e-5 -37e-5 1 0 0 16 146 235 0 ?175 13
8 176 173 0 0 1 30 174 459 0 75 173 177 0 +-.00175 -37e-5 -37e-5 1 0 0 16 75 243
 0 ?74 178 16 174 0 0 1 30 177 456 0 134 174 179 0 +-.00175 -37e-5 37e-5 1 0 0 1
6 134 256 0 ?180 155 31 177 0 0 1 31 179 83 0 114 177 181 0 +-.00085753696455840
4 -1050179898796986e-34 0 1 1224646799147352e-31 0 -1224646799147352e-31 1 0 .00
28 16 114 47 0 ?182 183 103 179 0 0 1 31 181 84 0 183 179 184 0 +-.0024 -2939152
317953645e-34 0 1 1224646799147352e-31 0 -1224646799147352e-31 1 0 .0028 16 183
 49 0 ?185 186 114 181 0 0 1 31 184 85 0 186 181 187 0 +-.0024 -2939152317953645
e-34 0 1 1224646799147352e-31 0 -1224646799147352e-31 1 0 .0015 16 186 54 0 ?188
 189 183 184 0 0 1 31 187 583 0 22 184 23 0 --.01815 -2222733940452445e-33 0 -1
 -122464679914735e-30 0 122464679914735e-30 -1 0 .0015 16 22 580 0 ?190 9 191 18
7 0 0 1 31 23 589 0 9 187 192 0 +-.0184 -225335011043113e-32 0 -1 -1224646799147
352e-31 0 1224646799147352e-31 -1 0 .00125 31 192 618 0 193 23 194 0 --.005 37e-
5 0 0 -1 0 0 0 -1 .00498629120689917 16 193 157 0 ?195 143 196 192 0 0 1 31 194
 620 0 197 192 198 0 --.005 -37e-5 0 0 -1 0 0 0 -1 .00498629120689917 16 197 149
 0 ?97 196 153 194 0 0 1 31 198 626 0 110 194 199 0 --.005 37e-5 0 0 -1 0 0 0 -1
 .00498629120689917 16 110 173 0 ?109 191 142 198 0 0 1 31 199 636 0 189 198 200
 0 --.005 -37e-5 0 0 -1 0 0 0 -1 .00498629120689917 16 189 133 0 ?28 154 186 199
 0 0 1 31 200 642 0 142 199 201 0 --.005 -648140792771858e-33 37e-5 0 -968037654
004915e-31 1 0 -1 -968037654004915e-31 .00498629120689917 16 142 169 0 ?94 110 1
39 200 0 0 1 31 201 644 0 143 200 202 0 --.005 -569342527735858e-33 -37e-5 0 -11
61645184805898e-31 1 0 -1 -1161645184805898e-31 .00498629120689917 16 143 161 0
 ?203 139 193 201 0 0 1 31 202 650 0 154 201 204 0 --.005 -648140792771858e-33 3
7e-5 0 -968037654004915e-31 1 0 -1 -968037654004915e-31 .00498629120689917 16 15
4 137 0 ?57 150 189 202 0 0 1 31 204 660 0 153 202 205 0 --.005 -569342527735858
e-33 -37e-5 0 -1161645184805898e-31 1 0 -1 -1161645184805898e-31 .00498629120689
917 16 153 145 0 ?206 197 150 204 0 0 1 30 205 677 0 176 204 207 0 +-43294117750
86725e-35 37e-5 -.0014 .894934361602025 0 -.4461978131098095 16 176 237 0 ?208 1
46 178 205 0 0 1 31 207 678 0 196 205 209 0 --.00456358241491322 -35583097851194
55e-34 .000875318258911803 .4461978131098095 2622404808326605e-31 .8949343616020
25 .894934361602025 0 -.4461978131098095 .00490340265907692 16 196 153 0 ?210 19
3 197 207 0 0 1 30 209 679 0 178 207 211 0 +4329411775086725e-35 -37e-5 -.0014 .
894934361602025 0 -.4461978131098095 16 178 242 0 ?212 176 75 209 0 0 1 30 211 6
80 0 168 209 132 0 +-.00175 -1545668464614115e-34 -.000527482185906493 0 -1 2930
276141852715e-31 16 168 269 0 ?76 169 161 211 0 0 1 31 132 681 0 191 211 116 0 +
-.00456358241491322 -3558309785119455e-34 -.000875318258911803 .4461978131098095
 2622404808326605e-31 -.894934361602025 -.894934361602025 0 -.4461978131098095 .
00490340265907692 16 191 176 0 ?32 22 110 132 0 0 1 17 32 0 111 30 102 10 113 19
1 0 213 +17 113 0 214 109 213 25 32 191 0 0 -17 213 0 214 113 215 10 28 189 0 0
 -15 214 177 0 113 12 216 17 215 0 214 213 217 58 57 154 0 0 -17 28 0 27 218 24
 58 213 189 0 180 +15 27 425 0 28 219 0 17 218 0 27 29 28 62 180 134 0 164 -17 1
80 0 220 57 164 58 218 134 0 215 +15 220 421 0 57 221 0 17 57 0 220 60 180 55 21
5 154 0 156 +17 164 0 220 180 60 62 159 129 0 121 -17 60 0 220 164 57 59 156 155
 0 160 -18 62 321 0 218 59 38 79 ?1 17 121 0 117 159 118 62 29 127 0 0 +17 29 0
 27 24 218 38 121 127 0 118 -18 38 322 0 30 62 0 36 ?1 17 156 0 222 152 160 55 6
0 155 0 217 +17 160 0 222 156 70 59 158 157 0 159 -15 222 417 0 152 223 0 17 70
 0 222 160 152 61 66 16 0 158 -17 152 0 222 70 156 18 217 150 0 66 +17 66 0 65 7
3 63 18 70 16 0 206 +16 16 248 0 ?66 75 155 6 0 0 1 15 65 413 0 67 224 0 17 73 0
 65 67 66 87 206 153 0 74 -18 18 317 0 152 87 55 7 ?1 17 206 0 214 217 225 18 73
 153 0 0 +17 217 0 214 215 206 55 152 150 0 0 -17 225 0 214 206 210 87 97 197 0
 0 -17 210 0 214 225 195 89 96 196 0 0 +17 97 0 226 227 74 89 225 197 0 212 +15
 226 409 0 97 228 0 17 227 0 226 229 97 71 212 178 0 167 -17 74 0 226 97 229 87
 67 75 0 225 +17 212 0 230 96 76 89 227 178 0 210 +15 230 405 0 231 232 0 17 96
 0 230 231 212 92 210 196 0 208 -17 76 0 230 212 231 71 233 168 0 227 +17 231 0
 230 76 96 77 208 176 0 233 -17 233 0 117 234 167 77 76 168 0 0 -17 234 0 117 23
5 233 51 99 169 0 0 -17 167 0 117 233 68 71 229 161 0 0 +17 68 0 117 167 158 64
 63 69 0 229 -17 229 0 226 74 227 64 167 161 0 0 -17 235 0 117 123 234 47 82 149
 0 0 -17 99 0 236 208 237 77 234 169 0 231 +15 236 401 0 237 238 0 17 208 0 236
 91 99 92 231 176 0 195 +17 237 0 236 99 91 51 175 146 0 234 -17 91 0 236 237 20
8 46 195 193 0 175 -17 175 0 239 45 82 46 237 146 0 203 +15 239 397 0 240 241 0
 17 45 0 239 240 175 43 203 143 0 145 -17 82 0 239 175 240 51 235 149 0 237 +17
 203 0 214 195 141 46 45 143 0 0 +17 195 0 214 210 203 92 91 193 0 0 +17 141 0 2
14 203 242 43 42 139 0 0 +17 242 0 214 141 109 40 94 142 0 0 -17 42 0 243 53 145
 40 141 139 0 137 -15 243 393 0 53 244 0 17 53 0 243 49 42 50 137 135 0 123 -17
 145 0 243 42 49 43 240 138 0 141 +17 137 0 245 94 124 40 53 135 0 242 +15 245 3
89 0 94 246 0 17 94 0 245 108 137 34 242 142 0 106 +17 124 0 245 137 108 50 119
 125 0 0 -17 108 0 245 124 94 54 106 115 0 119 -17 106 0 101 33 84 34 108 115 0
 109 +17 109 0 214 242 113 34 33 110 0 0 +14 255 246 386 247 ?244 105 245 4 248
 -0 0 244 105 20 81 255 1 247 775 249 246 250 0 0 251 252 14 244 390 251 ?241 24
6 243 4 15 +0 0 241 246 20 14 105 382 253 ?246 14 101 4 254 +0 0 246 14 20 50 24
8 451 0 246 254 255 0 +-.00175 -3581739319818185e-35 37e-5 0 -968037654004915e-3
1 1 0 -1 -968037654004915e-31 13 20 44 0 0 0 0 0 0 8 12 14 12 75 256 ?257 0 214
 4 258 +0 0 257 0 20 81 1 256 778 249 12 259 0 253 260 261 14 257 67 260 ?262 12
 263 4 264 +0 0 262 12 20 53 255 258 82 0 12 264 265 0 +-.005 -612323399573677e-
33 0 .005 1 1224646799147352e-31 0 1224646799147352e-31 -1 0 50 264 81 0 257 266
 258 0 +-.0184 -225335011043113e-32 0 -1 -1224646799147352e-31 0 122464679914735
2e-31 -1 0 52 255 265 605 0 267 258 268 0 +-.01815 -2222733940452445e-33 0 1 122
464679914735e-30 0 .0015 .707106781186546 .707106781186549 -122464679914735e-30
 1 0 14 267 598 269 ?0 120 270 4 265 +0 0 0 120 20 50 268 693 0 232 265 271 0 +0
 -41023865985938e-32 -.0014 .4461978131098095 2622404808326605e-31 .894934361602
025 .894934361602025 0 -.4461978131098095 14 232 402 272 ?228 238 230 4 268 +0 0
 228 238 20 50 271 694 0 223 268 15 0 -0 -.0014 0 .4461978131098095 .89493436160
2025 0 -.894934361602025 .4461978131098095 0 14 223 414 273 ?221 224 222 4 271 -
0 0 221 224 20 50 15 695 0 244 271 5 0 +0 .0014 0 .4461978131098095 -.8949343616
02025 0 .894934361602025 .4461978131098095 0 81 1 273 782 249 223 274 0 272 275
 276 14 221 418 275 ?219 223 220 4 277 -0 0 219 223 20 14 224 410 278 ?223 228 6
5 4 279 +0 0 223 228 20 81 1 278 784 249 224 280 0 275 281 282 14 228 406 281 ?2
24 232 226 4 283 -0 0 224 232 20 50 279 445 0 224 283 277 0 +-.00175 42980871837
8182e-34 -37e-5 0 -1161645184805898e-31 1 0 -1 -1161645184805898e-31 50 283 446
 0 228 284 279 0 +-.00175 -37e-5 0 0 -1 0 0 0 -1 50 277 443 0 221 279 285 0 +-.0
0175 -3581739319818185e-35 37e-5 0 -968037654004915e-31 1 0 -1 -968037654004915e
-31 50 285 442 0 219 277 286 0 +-.00175 -37e-5 0 0 -1 0 0 0 -1 14 219 422 287 ?1
20 221 27 4 285 -0 0 120 221 20 51 255 286 78 0 288 285 289 0 +0 0 0 1 122464679
9147352e-31 0 .0028 -1224646799147352e-31 1 0 14 288 52 290 ?14 291 292 4 286 +0
 0 14 291 20 50 289 79 0 291 286 266 0 +-.0024 .0015 0 -1 -1224646799147352e-31
 0 1224646799147352e-31 -1 0 14 291 57 293 ?288 262 294 4 289 +0 0 288 262 20 51
 266 80 0 262 289 264 0 +0 0 0 1 1224646799147352e-31 0 .0015 -1224646799147352e
-31 1 0 14 262 62 295 ?291 257 296 4 266 +0 0 291 257 20 81 1 295 789 249 262 29
7 0 293 298 299 15 296 581 0 190 262 300 17 190 0 296 190 190 0 301 22 0 0 +15 3
00 61 0 302 262 0 17 302 0 300 302 302 0 188 186 0 0 -17 188 0 294 188 188 0 302
 186 0 0 +15 294 109 0 188 291 303 15 303 56 0 304 291 0 17 304 0 303 304 304 0
 185 183 0 0 -17 185 0 292 185 185 0 304 183 0 0 +15 292 110 0 185 288 305 15 30
5 51 0 306 288 0 17 306 0 305 306 306 0 182 114 0 0 -17 182 0 216 182 182 0 306
 114 0 0 +15 216 111 0 182 12 0 17 301 0 307 301 301 0 190 22 0 0 -15 307 600 0
 301 267 0 80 255 1 249 308 309 9000 1 1 1 1 1 1 1 1 0 FFFFTFTFFFFFFF1 81 1 297
 715 310 262 0 295 311 312 313 81 1 293 788 249 291 312 0 290 295 314 81 1 298 7
90 249 14 315 0 295 316 317 82 255 1 299 -974913417 14 14 378 298 ?105 288 111 4
 5 -0 0 105 288 20 81 1 315 718 310 14 0 298 318 319 320 81 1 316 791 249 241 32
1 0 298 322 323 82 1 317 -642645896 14 241 394 316 ?238 244 239 4 255 +0 0 238 2
44 20 81 1 321 722 310 241 0 316 324 325 326 81 1 322 792 249 238 325 0 316 327
 328 82 1 323 -644415368 14 238 398 322 ?232 241 236 4 284 +0 0 232 241 20 81 1
 325 723 310 238 0 322 321 329 330 81 1 327 793 249 120 331 0 322 0 332 82 1 328
 -644153224 14 120 426 327 ?267 219 117 4 333 +0 0 267 219 20 81 1 331 730 310 1
20 0 327 334 335 336 82 1 332 -664600456 80 1 310 0 337 8001 0 0 0 0 3 5 0 0 0 F
FFFTFTFFFFFFF2 81 1 334 729 310 219 0 287 338 331 339 81 1 335 731 310 267 0 269
 331 0 340 83 255 3 336 .647058823529412 .619607843137255 .584313725490196 81 1
 269 780 249 267 335 0 260 272 341 83 3 340 .647058823529412 .619607843137255 .5
84313725490196 81 1 260 779 249 257 311 0 256 269 342 81 1 272 781 249 232 329 0
 269 273 343 82 1 341 -606207881 81 1 329 724 310 232 0 272 325 344 345 82 1 343
 -643891080 81 1 344 725 310 228 0 281 329 280 346 83 3 345 .647058823529412 .61
9607843137255 .584313725490196 81 1 281 785 249 228 344 0 278 287 347 81 1 280 7
26 310 224 0 278 344 274 348 83 3 346 .647058823529412 .619607843137255 .5843137
25490196 81 1 274 727 310 223 0 273 280 338 349 83 3 348 .647058823529412 .61960
7843137255 .584313725490196 81 1 338 728 310 221 0 275 274 334 350 83 3 349 .647
058823529412 .619607843137255 .584313725490196 81 1 275 783 249 221 338 0 273 27
8 351 83 3 350 .647058823529412 .619607843137255 .584313725490196 82 1 351 -6429
08040 81 1 287 786 249 219 334 0 281 290 352 82 1 347 -643628936 81 1 290 787 24
9 288 318 0 287 293 353 82 1 352 -642776968 81 1 318 717 310 288 0 290 312 315 3
54 82 1 353 -976093068 81 1 312 716 310 291 0 293 297 318 355 83 3 354 .64705882
3529412 .619607843137255 .584313725490196 83 3 355 .647058823529412 .61960784313
7255 .584313725490196 81 1 311 714 310 257 0 260 259 297 356 82 1 342 -974323593
 81 1 259 713 310 12 0 256 0 311 357 83 3 356 .647058823529412 .619607843137255
 .584313725490196 83 3 357 .647058823529412 .619607843137255 .584313725490196 83
 3 339 .647058823529412 .619607843137255 .584313725490196 79 255 15 337 SDL/TYSA
_COLOUR50 333 454 0 120 0 254 0 +-.00175 0 0 1 0 0 0 0 -1 50 254 452 0 105 333 2
48 0 +-.00175 37e-5 0 0 -1 0 0 0 -1 83 3 330 .647058823529412 .619607843137255 .
584313725490196 50 284 448 0 238 255 283 0 +-.00175 37e-5 0 0 -1 0 0 0 -1 50 255
 449 0 241 248 284 0 +-.00175 429808718378182e-34 -37e-5 0 -1161645184805898e-31
 1 0 -1 -1161645184805898e-31 81 1 324 721 310 244 0 251 250 321 358 83 3 326 .6
47058823529412 .619607843137255 .584313725490196 81 1 251 776 249 244 324 0 247
 253 359 81 1 250 720 310 246 0 247 319 324 360 83 3 358 .647058823529412 .61960
7843137255 .584313725490196 81 1 319 719 310 105 0 253 315 250 361 83 3 360 .647
058823529412 .619607843137255 .584313725490196 81 1 253 777 249 105 319 0 251 25
6 362 83 3 361 .647058823529412 .619607843137255 .584313725490196 82 1 362 -6452
01800 82 1 359 -644743048 83 3 320 .647058823529412 .619607843137255 .5843137254
90196 82 1 314 -975503244 83 3 313 .647058823529412 .619607843137255 .5843137254
90196 79 14 309 SWEntUnchanged82 1 282 -643432328 82 1 276 -643104648 15 270 599
 0 363 267 307 17 363 0 270 363 363 0 21 9 0 0 -17 21 0 263 21 21 0 363 9 0 0 +1
5 263 587 0 21 257 0 82 1 261 -973406088 82 1 252 -644939656 17 49 0 243 145 53
 47 123 147 0 240 +17 240 0 239 82 45 47 145 138 0 235 -17 123 0 117 119 235 50
 49 147 0 124 -19 13 40 0 1 0 8 4 S0 74 4 CI16 index_map_offset0 0 1 dCCZ20 11 2
 0 0 327 335 0 0 0 0 0 0 0 0 0 0 0 0 0 0 0 0 0 0 1 0 
