**ABCDEFGHIJKLMNOPQRSTUVWXYZabcdefghijklmnopqrstuvwxyz**************************
**PARASOLID !"#$%&'()*+,-./:;<=>?@[\]^_`{|}~0123456789**************************
**PART1;
MC=AMD64;
MC_MODEL=Intel64 Family 6 Model 15 Stepping 11, GenuineIntel;
MC_ID=unknown;
OS=Windows_NT;
OS_RELEASE=unknown;
FRU=Parasolid Version 30.0, build 226,  7-26-2017;
APPL=SOLIDWORKS 2018-2017278;
SITE=;
USER=unknown;
FORMAT=text;
GUISE=transmit;
KEY=Washer NNN XXXX - M4;
FILE=Washer NNN XXXX - M4.x_t;
DATE=Mon Apr 27 15:14:48 2020;
**PART2;
SCH=SCH_3000226_30000;
USFLD_SIZE=0;
**PART3;
**END_OF_HEADER*****************************************************************
T51 : TRANSMIT FILE created by modeller version 300022623 SCH_3000226_30000_1300
6205 0 12 33 CCCCCCI4 mesh1006 0 I8 polyline1008 0 CCCCCCCDI5 owner1040 0 CCCCCC
I13 boundary_mesh1006 0 I17 boundary_polyline1008 0 CCCA16 index_map_offset0 0 1
 dA9 index_map82 0 A17 node_id_index_map82 0 A20 schema_embedding_map82 0 A5 chi
ld12 0 A14 lowest_node_id0 0 1 dZ1 110 0 2 0 0 0 0 0 0 1e3 1e-8 0 3 0 1 0 1 1 4
 5 6 0 0 0 7 8 0 0 0 0 0 0 0 70 11 CI9 list_type0 0 1 uI10 notransmit0 0 1 lCCCD
CCDI12 finger_index0 0 1 dI12 finger_block1012 0 CZ2 0 4 T1 0 0 2 20 1 9 9 13 25
5 4 29 0 1 0 10 0 0 11 0 51 255 5 28 0 12 13 0 0 -0 0 .0016 0 0 -1 .00665 -1 0 0
 31 255 6 23 0 14 15 0 0 +0 0 0 0 0 1 1 0 0 .00665 19 8 CCCCCCCA5 owner12 0 Z7 7
 0 1 11 0 16 V0 16 255 8 4 0 ?17 0 14 15 0 0 1 17 255 17 0 18 17 17 0 19 8 0 0 +
16 14 18 0 ?20 8 21 6 0 0 1 31 15 5 0 8 22 6 0 +0 0 .0016 0 0 1 1 0 0 .00665 31
 22 71 0 23 24 15 0 +0 0 0 0 0 1 1 0 0 .0021 16 23 49 0 ?25 21 0 22 0 0 1 31 24
 72 0 21 0 22 0 +0 0 .0016 0 0 1 1 0 0 .0021 16 21 52 0 ?26 14 23 24 0 0 1 17 26
 0 27 26 26 0 28 21 0 0 +15 255 27 58 0 26 29 30 17 28 0 31 28 28 0 26 21 0 0 -1
5 31 43 0 28 10 0 14 255 10 46 32 ?33 0 18 4 34 +0 0 33 0 16 81 255 1 32 107 35
 10 36 0 0 37 38 14 33 40 37 ?12 10 39 4 13 -0 0 12 10 16 15 18 3 0 17 10 31 50
 255 34 2 0 10 40 13 0 +0 0 .0016 0 0 1 1 0 0 13 16 8 0 0 0 0 0 0 7 10 51 40 68
 0 29 0 34 0 -0 0 .0016 0 0 -1 .0021 -1 0 0 50 13 22 0 33 34 5 0 +0 0 0 0 0 1 1
 0 0 14 29 55 41 ?0 12 27 4 40 +0 0 0 12 16 81 1 41 109 35 29 42 0 37 43 44 14 1
2 25 43 ?29 33 45 4 5 -0 0 29 33 16 81 1 43 110 35 12 46 0 41 0 47 15 45 24 0 19
 12 48 17 19 0 45 19 19 0 17 8 0 0 -15 48 26 0 20 12 0 17 20 0 48 20 20 0 49 14
 0 0 +17 49 0 39 49 49 0 20 14 0 0 -15 39 17 0 49 33 50 15 50 38 0 25 33 0 17 25
 0 50 25 25 0 51 23 0 0 +17 51 0 30 51 51 0 25 23 0 0 -15 30 59 0 51 29 0 80 255
 1 35 52 53 9000 1 1 1 1 1 1 1 1 0 FFFFTFTFFFFFFF1 81 1 46 95 54 12 0 43 55 42 5
6 82 255 1 47 2054881383 80 1 54 0 57 8001 0 0 0 0 3 5 0 0 0 FFFFTFTFFFFFFF2 81
 1 55 94 54 33 0 37 36 46 58 81 1 42 96 54 29 0 41 46 0 59 83 255 3 56 .79215686
2745098 .819607843137255 .933333333333333 83 3 59 .792156862745098 .819607843137
255 .933333333333333 81 1 37 108 35 33 55 0 32 41 60 81 1 36 93 54 10 0 32 0 55
 61 83 3 58 .792156862745098 .819607843137255 .933333333333333 83 3 61 .79215686
2745098 .819607843137255 .933333333333333 82 1 60 2056585319 79 255 15 57 SDL/TY
SA_COLOUR79 14 53 SWEntUnchanged82 1 44 2050752615 82 1 38 2057109607 19 11 30 0
 1 0 7 4 S0 74 4 CI16 index_map_offset0 0 1 dCCZ20 9 2 0 0 43 42 0 0 0 0 0 0 0 0
 0 0 0 0 0 0 0 0 0 0 1 0 
